<svg viewBox="0 0 1920 1080" xmlns="http://www.w3.org/2000/svg"><path fill="transparent" d="M0 0h1920v1080H0z"/><path d="M0 465l80 14.5c80 14.5 240 43.5 400 45.8 160 2.4 320-22 480-24.5s320 16.9 480 22.7c160 5.8 320-1.8 400-5.7l80-3.8v567H0z" fill="#ffb6b6"/><path d="M0 602l80 9.5c80 9.5 240 28.5 400 34.3 160 5.9 320-1.5 480 6s320 29.9 480 34.4 320-8.9 400-15.5l80-6.7v417H0z" fill="#ffc4c3"/><path d="M0 682l80 2.2c80 2.1 240 6.5 400 25.3s320 52.2 480 70c160 17.8 320 20.2 480 6.5s320-43.3 400-58.2l80-14.8v368H0z" fill="#ffd2d1"/><path d="M0 830l80-6.2c80-6.1 240-18.5 400-14.5s320 24.4 480 25.9 320-15.9 480-26.7c160-10.8 320-15.2 400-17.3l80-2.2v292H0z" fill="#ffdfdf"/><path d="M0 979l80-10.7c80-10.6 240-32 400-30s320 27.4 480 37.9 320 6.1 480-5c160-11.2 320-29.2 400-38.2l80-9v157H0z" fill="#ffeded"/></svg>