<svg viewBox="0 0 600 900" xmlns="http://www.w3.org/2000/svg"><path d="M0 169l25 17.2c25 17.1 75 51.5 125 54.1C200 243 250 214 300 211s100 20 150 27 100-2 125-6.5l25-4.5v674H0z" fill="#ffb6b6"/><path d="M0 332l25 11.2c25 11.1 75 33.5 125 40.3 50 6.8 100-1.8 150 7s100 35.2 150 40.5c50 5.3 100-10.3 125-18.2l25-7.8v496H0z" fill="#ffc4c3"/><path d="M0 427l25 2.5c25 2.5 75 7.5 125 29.7 50 22.1 100 61.5 150 82.6C350 563 400 566 450 550s100-51 125-68.5l25-17.5v437H0z" fill="#ffd2d1"/><path d="M0 603l25-7.3c25-7.4 75-22 125-17.2 50 4.8 100 29.2 150 30.8C350 611 400 590 450 577c50-13 100-18 125-20.5l25-2.5v347H0z" fill="#ffdfdf"/><path d="M0 780l25-12.7c25-12.6 75-38 125-35.6 50 2.3 100 32.3 150 44.6 50 12.4 100 7 150-6.3s100-34.7 125-45.3l25-10.7v187H0z" fill="#ffeded"/></svg>