<svg viewBox="0 0 1200 900" xmlns="http://www.w3.org/2000/svg"><path d="M0 169l50 17.2c50 17.1 150 51.5 250 54.1C400 243 500 214 600 211s200 20 300 27 200-2 250-6.5l50-4.5v674H0z" fill="#ffb6b6"/><path d="M0 332l50 11.2c50 11.1 150 33.5 250 40.3 100 6.8 200-1.8 300 7s200 35.2 300 40.5c100 5.3 200-10.3 250-18.2l50-7.8v496H0z" fill="#ffc4c3"/><path d="M0 427l50 2.5c50 2.5 150 7.5 250 29.7 100 22.1 200 61.5 300 82.6C700 563 800 566 900 550s200-51 250-68.5l50-17.5v437H0z" fill="#ffd2d1"/><path d="M0 603l50-7.3c50-7.4 150-22 250-17.2 100 4.8 200 29.2 300 30.8C700 611 800 590 900 577c100-13 200-18 250-20.5l50-2.5v347H0z" fill="#ffdfdf"/><path d="M0 780l50-12.7c50-12.6 150-38 250-35.6 100 2.3 200 32.3 300 44.6 100 12.4 200 7 300-6.3s200-34.7 250-45.3l50-10.7v187H0z" fill="#ffeded"/></svg>