<svg width="50" height="59" viewBox="0 0 50 59" fill="none" xmlns="http://www.w3.org/2000/svg">
<path d="M28.1377 0.00320882C25.1886 -0.0470669 22.2591 0.493893 19.5201 1.59452C16.7811 2.69514 14.2876 4.33338 12.185 6.41364C10.0823 8.49389 8.41278 10.9745 7.2737 13.7106C6.13463 16.4468 5.54886 19.3837 5.55059 22.35C5.55059 22.459 5.55059 23.0874 5.55477 24.072C5.27588 24.7514 4.83867 25.3534 4.28001 25.8274C4.05921 26.0494 3.69683 26.3972 3.29693 26.7826C1.87214 28.1651 1.32646 28.7014 1.09737 28.9821C0.68352 29.4721 0.365502 30.0364 0.160058 30.6453C-0.152378 31.6089 -0.160721 32.9831 1.58056 34.0723C2.04251 34.3541 2.52107 34.6073 3.01358 34.8306C3.37188 34.9982 3.73431 35.1574 4.09674 35.3124L4.14256 35.3334C4.71745 39.1542 5.62974 45.1788 5.68394 45.5642C5.76807 46.8904 6.33275 48.1394 7.27109 49.075C8.8083 50.4869 10.862 50.4324 12.3659 50.3864C12.595 50.3822 12.8241 50.3738 13.0366 50.3738H14.8487C14.9112 51.2368 14.982 52.3386 15.0445 53.3106C15.1236 54.5046 15.2028 55.7154 15.2695 56.6623C15.3128 57.2962 15.5935 57.8899 16.0551 58.3238C16.5167 58.7577 17.1247 58.9993 17.7565 59C17.9202 58.9999 18.0835 58.983 18.2439 58.9497L42.2265 54.1527C42.9905 53.9984 43.678 53.5834 44.1729 52.9781C44.6678 52.3727 44.9397 51.6141 44.9426 50.8304V46.4482C44.9748 41.1951 46.0793 36.0046 48.1878 31.1983C49.6315 27.8261 50.2273 24.1482 49.9223 20.4895C49.6174 16.8308 48.4211 13.3039 46.4393 10.2205C44.4575 7.137 41.751 4.59187 38.5591 2.8099C35.3671 1.02794 31.7879 0.0639857 28.1377 0.00320882ZM36.0027 23.322C35.7484 23.7875 35.3312 24.1414 34.8322 24.315C34.6114 24.3904 28.4292 25.9698 28.4292 25.9698L31.3329 33.7749C31.635 34.2549 31.7352 34.8359 31.6114 35.3903C31.4876 35.9446 31.1499 36.4267 30.6726 36.7306C30.1953 37.0345 29.6175 37.1353 29.0663 37.0107C28.5152 36.8862 28.0358 36.5466 27.7336 36.0666L19.7769 23.4352C19.5961 23.1481 19.4858 22.822 19.4552 22.4837C19.4245 22.1453 19.4743 21.8045 19.6005 21.4893C19.7266 21.1742 19.9255 20.8937 20.1807 20.6711C20.436 20.4486 20.7402 20.2902 21.0683 20.2092C21.2307 20.1673 27.3586 18.8099 27.3586 18.8099L24.3801 10.8038C24.2302 10.5661 24.1283 10.301 24.0803 10.0238C24.0322 9.7465 24.0389 9.46243 24.1001 9.18777C24.1612 8.91311 24.2755 8.65325 24.4365 8.42302C24.5975 8.19279 24.8019 7.99671 25.0383 7.84596C25.5156 7.54151 26.0936 7.44022 26.6451 7.56436C27.1967 7.6885 27.6766 8.02791 27.9793 8.50792L35.936 21.1435C36.1521 21.4853 36.2663 21.8822 36.2652 22.2872C36.2652 22.6488 36.175 23.0046 36.0027 23.322Z" fill="#E95C6D"/>
</svg>
