<svg id="Layer_1" data-name="Layer 1" xmlns="http://www.w3.org/2000/svg" viewBox="0 0 40.25 45.98"><defs><style>.cls-1,.cls-15,.cls-2{fill:#e95c6d;}.cls-1{opacity:0.2;}.cls-3{fill:none;}.cls-10,.cls-11,.cls-12,.cls-15,.cls-3{stroke:#45413c;stroke-linecap:round;stroke-linejoin:round;}.cls-12,.cls-4{fill:#45413c;}.cls-4{opacity:0.15;isolation:isolate;}.cls-5{fill:#a86c4d;}.cls-6{fill:#de926a;}.cls-11,.cls-7{fill:#ffcebf;}.cls-8{fill:#ffb59e;}.cls-9{fill:#ffaac9;}.cls-10{fill:#ffe500;}.cls-13{fill:#ff6242;}.cls-14{fill:#ffa694;}</style></defs><path id="_Path_" data-name=" Path " class="cls-1" d="M3.44,43.73V24.56A20.76,20.76,0,0,1,6.1,14.41h0A11.49,11.49,0,0,1,17.59,2.91h7.72A11.49,11.49,0,0,1,36.8,14.41h0a20.65,20.65,0,0,1,2.66,10.15V43.73Z" transform="translate(-1.33 0.02)"/><path id="_Path_2" data-name=" Path 2" class="cls-2" d="M36.8,14.41A11.49,11.49,0,0,0,25.31,2.91H17.59A11.49,11.49,0,0,0,6.1,14.41,20.76,20.76,0,0,0,3.44,24.56V43.73H5.33V29.09c0-6,1.5-8.76,3.78-10.15h0c0-6.35,4.6-11.5,10.28-11.5h4.12c5.68,0,10.28,5.15,10.28,11.5h0c2.47,1.39,3.78,3.29,3.78,10.15V43.73h1.89V24.56A20.65,20.65,0,0,0,36.8,14.41Z" transform="translate(-1.33 0.02)"/><path id="_Path_3" data-name=" Path 3" class="cls-3" d="M3.44,43.73V24.56A20.76,20.76,0,0,1,6.1,14.41h0A11.49,11.49,0,0,1,17.59,2.91h7.72A11.49,11.49,0,0,1,36.8,14.41h0a20.65,20.65,0,0,1,2.66,10.15V43.73Z" transform="translate(-1.33 0.02)"/><ellipse id="_Ellipse_" data-name=" Ellipse " class="cls-4" cx="20.12" cy="44.3" rx="20.12" ry="1.68"/><path id="_Path_4" data-name=" Path 4" class="cls-5" d="M21.45.48A12.18,12.18,0,0,1,33.63,12.63h0V36.11a1.38,1.38,0,0,1-.87,1.28h0a30.34,30.34,0,0,1-22.6,0h0a1.38,1.38,0,0,1-.86-1.28V12.63A12.16,12.16,0,0,1,21.45.48Z" transform="translate(-1.33 0.02)"/><path id="_Path_5" data-name=" Path 5" class="cls-6" d="M21.45.48A12.16,12.16,0,0,0,9.3,12.63V16a12.17,12.17,0,0,1,24.33,0V12.63A12.18,12.18,0,0,0,21.45.48Z" transform="translate(-1.33 0.02)"/><path id="_Path_6" data-name=" Path 6" class="cls-3" d="M21.45.48A12.18,12.18,0,0,1,33.63,12.63h0V36.11a1.38,1.38,0,0,1-.87,1.28h0a30.34,30.34,0,0,1-22.6,0h0a1.38,1.38,0,0,1-.86-1.28V12.63A12.16,12.16,0,0,1,21.45.48Z" transform="translate(-1.33 0.02)"/><path id="_Path_7" data-name=" Path 7" class="cls-7" d="M24.29,28.63v-2a2.84,2.84,0,1,0-5.68,0h0v2a13.27,13.27,0,0,0-10.44,13v2.13H34.73V41.6A13.27,13.27,0,0,0,24.29,28.63Z" transform="translate(-1.33 0.02)"/><path class="cls-8" d="M21.45,30.31a13.42,13.42,0,0,1,13.28,11.5V41.6a13.27,13.27,0,0,0-10.44-13v-2a2.84,2.84,0,1,0-5.68,0h0v2a13.27,13.27,0,0,0-10.44,13v.21A13.42,13.42,0,0,1,21.45,30.31Z" transform="translate(-1.33 0.02)"/><path id="_Path_8" data-name=" Path 8" class="cls-3" d="M24.29,28.63v-2a2.84,2.84,0,1,0-5.68,0h0v2a13.27,13.27,0,0,0-10.44,13v2.13H34.73V41.6A13.27,13.27,0,0,0,24.29,28.63Z" transform="translate(-1.33 0.02)"/><path class="cls-2" d="M35,37.77A15.29,15.29,0,0,0,33.6,34.2a10.36,10.36,0,0,0-1.37-2A1.13,1.13,0,0,0,30.94,32a8.28,8.28,0,0,0-2.23,1.62,5.59,5.59,0,0,0-1.52,2.28s-1.4-.84-5.74-.84-5.73.84-5.73.84a5.7,5.7,0,0,0-1.48-2.24A8.33,8.33,0,0,0,12,32a1.12,1.12,0,0,0-1.28.24,10,10,0,0,0-1.38,2A15,15,0,0,0,8,37.81a1.12,1.12,0,0,0,.81,1.36l.13,0a12,12,0,0,1,4.82,1.88v2.65H29.2V41A12,12,0,0,1,34,39.15a1.11,1.11,0,0,0,1-1.25A.59.59,0,0,0,35,37.77Z" transform="translate(-1.33 0.02)"/><path class="cls-9" d="M9.4,39.25a12.83,12.83,0,0,1,4.47-5.93,8.94,8.94,0,0,0-2-1.31,1.11,1.11,0,0,0-1.28.23,10,10,0,0,0-1.38,2A15.26,15.26,0,0,0,7.9,37.78a1.12,1.12,0,0,0,.81,1.36l.13,0Z" transform="translate(-1.33 0.02)"/><path class="cls-9" d="M35,37.77A15.29,15.29,0,0,0,33.6,34.2a10.36,10.36,0,0,0-1.37-2A1.13,1.13,0,0,0,30.94,32a8.23,8.23,0,0,0-2,1.31,12.9,12.9,0,0,1,4.47,5.93l.51-.09a1.12,1.12,0,0,0,1-1.21Z" transform="translate(-1.33 0.02)"/><path class="cls-3" d="M35,37.77A15.29,15.29,0,0,0,33.6,34.2a10.36,10.36,0,0,0-1.37-2A1.13,1.13,0,0,0,30.94,32a8.28,8.28,0,0,0-2.23,1.62,5.59,5.59,0,0,0-1.52,2.28s-1.4-.84-5.74-.84-5.73.84-5.73.84a5.7,5.7,0,0,0-1.48-2.24A8.33,8.33,0,0,0,12,32a1.12,1.12,0,0,0-1.28.24,10,10,0,0,0-1.38,2A15,15,0,0,0,8,37.81a1.12,1.12,0,0,0,.81,1.36l.13,0a12,12,0,0,1,4.82,1.88v2.65H29.2V41A12,12,0,0,1,34,39.15a1.11,1.11,0,0,0,1-1.25A.59.59,0,0,0,35,37.77Z" transform="translate(-1.33 0.02)"/><polyline id="_Path_9" data-name=" Path 9" class="cls-3" points="15.78 29.08 20.12 31.3 24.47 29.08"/><circle id="_Path_10" data-name=" Path 10" class="cls-10" cx="20.12" cy="32.4" r="1.1"/><g id="_Group_" data-name=" Group "><path id="_Path_11" data-name=" Path 11" class="cls-11" d="M31.59,15.18a9.79,9.79,0,0,1-6.34-5.59L24.56,8a17.78,17.78,0,0,1-11.18,6.91l-2.11.38a2,2,0,0,0,0,4h.14a10.06,10.06,0,0,0,20,0h.12a2,2,0,1,0,0-4h0Z" transform="translate(-1.33 0.02)"/></g><path id="_Path_12" data-name=" Path 12" class="cls-12" d="M15.39,16.79a.86.86,0,1,0,.86-.86.86.86,0,0,0-.86.86Z" transform="translate(-1.33 0.02)"/><path id="_Path_13" data-name=" Path 13" class="cls-12" d="M27.53,16.79a.86.86,0,0,1-1.72,0,.87.87,0,0,1,.86-.86.85.85,0,0,1,.86.84Z" transform="translate(-1.33 0.02)"/><g id="_Group_2" data-name=" Group 2"><g id="_Group_3" data-name=" Group 3"><g id="_Group_4" data-name=" Group 4"><g id="_Group_5" data-name=" Group 5"><g id="_Group_6" data-name=" Group 6"><g id="_Group_7" data-name=" Group 7"><g id="_Group_8" data-name=" Group 8"><path id="_Path_14" data-name=" Path 14" class="cls-13" d="M18.29,22a.45.45,0,0,0-.37.18.43.43,0,0,0-.11.39,3.71,3.71,0,0,0,7.31,0,.49.49,0,0,0-.11-.39.51.51,0,0,0-.37-.18Z" transform="translate(-1.33 0.02)"/><path id="_Path_15" data-name=" Path 15" class="cls-14" d="M21.45,23.6a4.53,4.53,0,0,0-2.82.86,3.76,3.76,0,0,0,5.31.29,3.83,3.83,0,0,0,.28-.29A4.51,4.51,0,0,0,21.45,23.6Z" transform="translate(-1.33 0.02)"/></g></g></g></g></g></g></g><g id="_Group_9" data-name=" Group 9"><path id="_Path_16" data-name=" Path 16" class="cls-3" d="M18.29,22a.45.45,0,0,0-.37.18.43.43,0,0,0-.11.39,3.71,3.71,0,0,0,7.31,0,.49.49,0,0,0-.11-.39.51.51,0,0,0-.37-.18Z" transform="translate(-1.33 0.02)"/></g><ellipse id="_Ellipse_2" data-name=" Ellipse 2" class="cls-8" cx="13.49" cy="20.48" rx="1.12" ry="0.67"/><ellipse id="_Ellipse_3" data-name=" Ellipse 3" class="cls-8" cx="26.78" cy="20.48" rx="1.12" ry="0.67"/><path id="_Path_17" data-name=" Path 17" class="cls-15" d="M11.39,5.81a11.21,11.21,0,0,0-1.26,2.43A35.27,35.27,0,0,0,21.45,9.83,35.37,35.37,0,0,0,32.78,8.24a12,12,0,0,0-1.27-2.43A33.89,33.89,0,0,1,21.45,7.18,33.93,33.93,0,0,1,11.39,5.81Z" transform="translate(-1.33 0.02)"/></svg>