<svg width="90" height="87" fill="none" xmlns="http://www.w3.org/2000/svg"><path d="M78.46 2.059A2.508 2.508 0 0075.52.068 173.211 173.211 0 0159.42 2.407c-3.645.347-7.375.58-10.978.684-1.464 0-2.876.064-4.214.064h-2.002A130.21 130.21 0 0118.964.932c-1.98-.39-3.16-.696-3.645-.812A2.465 2.465 0 0013.38.3a2.538 2.538 0 00-1.19 1.548 2.507 2.507 0 00.232 1.907 2.476 2.476 0 001.496 1.19s1.443.412 4.15.938c4.928.928 9.906 1.56 14.909 1.897 2.455.326 10.757.41 10.851.41h.338c1.404 0 2.858-.02 4.361-.063 3.698-.105 7.46-.337 11.179-.695a183.214 183.214 0 0016.772-2.444 2.486 2.486 0 001.981-2.93zM77.816 18.305l-1.96-9.988c-1.727.316-3.465.611-5.204.885l1.37 6.9-1.433-.526a3.415 3.415 0 00-3.593.79l-.98.97-1.475-7.28c-1.506.189-3.013.347-4.52.494h-.737l2.244 11.263a3.423 3.423 0 002.381 2.54c.311.094.634.144.96.147a3.424 3.424 0 002.412-1.022l2.581-2.571 3.435 1.264c.14.051.285.094.431.127h1.159a3.383 3.383 0 002.719-1.981 3.266 3.266 0 00.21-2.012zM48.358 11.257v7.564l-1.211-.78a3.477 3.477 0 00-3.688 0l-1.222.78V11.3c-1.349 0-3.36-.063-5.268-.137v11.041a3.425 3.425 0 005.268 2.876l3.066-1.96 3.066 1.96a3.36 3.36 0 001.844.537 3.404 3.404 0 003.413-3.413V11.025c-1.665.095-3.34.179-5.004.221l-.264.01zM24.6 17.336l-.98-.97a3.425 3.425 0 00-3.603-.79l-1.411.527 1.338-6.669c-.843-.147-1.686-.295-2.487-.453-1.095-.253-1.99-.41-2.707-.569l-1.96 9.798a3.414 3.414 0 004.53 3.93l3.414-1.254 2.581 2.592c.64.64 1.508 1 2.413 1 .328 0 .655-.05.97-.147a3.414 3.414 0 002.38-2.591l2.213-10.905a127.409 127.409 0 01-5.268-.527L24.6 17.337zM48.464 32.17l-1.18.79a3.477 3.477 0 01-3.835-.074l-1.159-.811a.611.611 0 00-.864.832l.717 1.17a3.456 3.456 0 010 3.824l-.843 1.17a.611.611 0 00.832.863l1.19-.758a3.477 3.477 0 013.836.073l1.158.801a.611.611 0 00.864-.832l-.716-1.19a3.456 3.456 0 010-3.825l.8-1.17a.61.61 0 00-.8-.864zM29.5 47.183a2.602 2.602 0 103.687 3.673 2.602 2.602 0 00-3.687-3.673zM57.461 47.183a2.603 2.603 0 103.689 3.673 2.603 2.603 0 00-3.689-3.673zM21.514 31.685a3.74 3.74 0 10.063 7.48 3.74 3.74 0 00-.063-7.48zM69.092 31.685a3.74 3.74 0 100 7.48 3.74 3.74 0 000-7.48z" fill="#E95C6D"/><path fill-rule="evenodd" clip-rule="evenodd" d="M83.478 52.125c3.602 3.602 3.039 10.005-1.257 14.302-3.966 3.965-9.727 4.751-13.422 2.016l-.458 1.717c-.288 1.079-.699 1.052-1.38.37l-.413-.412-9.765 9.764a.302.302 0 01-.424 0l-.636-.636a.302.302 0 010-.424l9.764-9.765-.352-.353-.351-.35c-.525-.503.007-.963.572-1.094l1.826-.425C64.42 63.14 65.2 57.36 69.176 53.382c4.296-4.296 10.7-4.859 14.302-1.257zM6.523 52.125c3.602-3.602 10.006-3.04 14.303 1.257 3.966 3.966 4.752 9.728 2.016 13.423l1.718.458c1.078.288 1.051.7.37 1.38l-.413.413 9.765 9.766a.302.302 0 010 .424l-.636.636a.302.302 0 01-.424 0l-9.766-9.765-.352.353-.351.35c-.503.525-.962-.006-1.094-.571l-.424-1.827c-3.696 2.763-9.478 1.983-13.455-1.994-4.296-4.296-4.86-10.7-1.257-14.303zM45.161 46.656c3.994 0 7.233 3.863 7.233 8.627 0 4.398-2.759 8.028-6.324 8.56l.698 1.206c.438.758.196.97-.56.97h-.458v10.829a.237.237 0 01-.235.235h-.706a.237.237 0 01-.235-.235V66.02h-.78c-.57.012-.53-.538-.29-.924l.778-1.248c-3.58-.517-6.354-4.155-6.354-8.565 0-4.764 3.239-8.627 7.233-8.627z" fill="#E95C6D"/></svg>