<svg width="90" height="87" fill="none" xmlns="http://www.w3.org/2000/svg"><path d="M78.46 2.06a2.5 2.5 0 00-2.94-2 173.21 173.21 0 01-16.1 2.35c-3.65.34-7.38.58-10.98.68-1.46 0-2.87.07-4.21.07h-2A130.21 130.21 0 0118.96.93C16.98.54 15.8.23 15.32.12a2.46 2.46 0 00-1.94.18 2.54 2.54 0 00-1.19 1.55 2.5 2.5 0 00.23 1.9 2.48 2.48 0 001.5 1.2s1.44.4 4.15.93c4.93.93 9.9 1.56 14.9 1.9 2.46.33 10.76.41 10.86.41h.34a166.51 166.51 0 0015.54-.76A183.21 183.21 0 0076.48 5a2.49 2.49 0 001.98-2.93zm-.64 16.24l-1.96-9.98c-1.73.31-3.47.6-5.2.88l1.36 6.9-1.43-.52a3.42 3.42 0 00-3.6.79l-.97.97-1.48-7.28c-1.5.18-3.01.34-4.52.49h-.74l2.25 11.26a3.42 3.42 0 002.38 2.54c.31.1.63.15.96.15a3.42 3.42 0 002.41-1.02l2.58-2.57 3.44 1.26c.14.05.28.1.43.13h1.16a3.38 3.38 0 002.72-1.98 3.27 3.27 0 00.2-2.02zm-29.46-7.04v7.56l-1.21-.78a3.48 3.48 0 00-3.7 0l-1.21.78V11.3c-1.35 0-3.36-.06-5.27-.14V22.2a3.42 3.42 0 005.27 2.88l3.06-1.96 3.07 1.96a3.36 3.36 0 001.84.54 3.4 3.4 0 003.42-3.42V11.03c-1.67.09-3.34.17-5 .22h-.27zM24.6 17.34l-.98-.97a3.42 3.42 0 00-3.6-.8l-1.41.53 1.33-6.67c-.84-.14-1.68-.3-2.48-.45-1.1-.25-2-.4-2.71-.57l-1.96 9.8a3.41 3.41 0 004.53 3.93l3.41-1.25 2.59 2.59a3.41 3.41 0 003.38.85 3.41 3.41 0 002.38-2.59l2.21-10.9a127.4 127.4 0 01-5.27-.53l-1.42 7.03zm23.86 14.83l-1.18.79a3.48 3.48 0 01-3.83-.07l-1.16-.81a.61.61 0 00-.86.83l.71 1.17a3.46 3.46 0 010 3.82l-.84 1.17a.61.61 0 00.83.86l1.2-.75a3.48 3.48 0 013.83.07l1.16.8a.61.61 0 00.86-.83l-.72-1.2a3.46 3.46 0 010-3.82l.8-1.17a.61.61 0 00-.8-.86zM29.5 47.18a2.6 2.6 0 103.69 3.68 2.6 2.6 0 00-3.69-3.68zm27.96 0a2.6 2.6 0 103.69 3.68 2.6 2.6 0 00-3.69-3.68zm-35.95-15.5a3.74 3.74 0 10.07 7.48 3.74 3.74 0 00-.07-7.47zm47.58 0a3.74 3.74 0 100 7.48 3.74 3.74 0 000-7.47z" fill="#E95C6D"/><path fill-rule="evenodd" clip-rule="evenodd" d="M83.48 52.13c3.6 3.6 3.04 10-1.26 14.3-3.97 3.96-9.73 4.75-13.42 2.01l-.46 1.72c-.29 1.08-.7 1.05-1.38.37l-.41-.41-9.77 9.76a.3.3 0 01-.42 0l-.64-.63a.3.3 0 010-.43l9.77-9.76-.36-.36-.35-.35c-.52-.5.01-.96.58-1.09l1.82-.42c-2.76-3.7-1.98-9.48 2-13.46 4.3-4.3 10.7-4.86 14.3-1.26zm-76.96 0c3.6-3.6 10-3.05 14.3 1.25 3.97 3.97 4.76 9.73 2.02 13.42l1.72.46c1.08.3 1.05.7.37 1.38l-.41.42 9.76 9.76a.3.3 0 010 .43l-.63.63a.3.3 0 01-.43 0l-9.76-9.76-.36.35-.35.35c-.5.52-.96 0-1.1-.57l-.42-1.83c-3.7 2.76-9.47 1.98-13.45-2-4.3-4.29-4.86-10.7-1.26-14.3zm38.64-5.47c4 0 7.23 3.86 7.23 8.62 0 4.4-2.76 8.03-6.32 8.56l.7 1.2c.44.77.2.98-.56.98h-.46v10.83a.24.24 0 01-.23.23h-.71a.24.24 0 01-.24-.23V66.02h-.78c-.57.01-.53-.54-.29-.92l.78-1.25c-3.58-.52-6.35-4.16-6.35-8.57 0-4.76 3.24-8.62 7.23-8.62z" fill="#E95C6D"/></svg>