<svg id="food-meal-plate-restaurant" xmlns="http://www.w3.org/2000/svg" viewBox="0 0 64 64"><defs><style>.cls-1{fill:#e95c6d}</style></defs><path class="cls-1" d="M33 17a15 15 0 1015 15 15 15 0 00-15-15zm0 28a13 13 0 1113-13 13 13 0 01-13 13z"/><path class="cls-1" d="M33 10a22 22 0 1022 22 22 22 0 00-22-22zm0 42a20 20 0 1120-20 20 20 0 01-20 20zM63 0a3.32 3.32 0 00-3.27 2.84L56 28.86a1 1 0 00.28.85L58 31.42V61a3 3 0 006 0V1a1 1 0 00-1-1zm-1 61a1 1 0 01-2 0V31a1 1 0 00-.29-.71l-1.65-1.65 3.65-25.52a1.25 1.25 0 01.29-.65V61z"/><path class="cls-1" d="M14 14.76V1a1 1 0 00-2-.26L9.66 9.55 8 .81a1 1 0 00-2 0L4.34 9.55 2 .74A1 1 0 00.87 0 1 1 0 000 1v13.77a4.6 4.6 0 002.55 4.13A2.6 2.6 0 014 21.24v39.65A3.09 3.09 0 006.5 64a2.77 2.77 0 00.5 0 3 3 0 003-3V21.24a2.6 2.6 0 011.45-2.34A4.62 4.62 0 0014 14.76zm-3.45 2.35A4.59 4.59 0 008 21.24V61a1 1 0 01-.35.76 1 1 0 01-.83.23 1.09 1.09 0 01-.82-1.1V21.24a4.59 4.59 0 00-2.55-4.13A2.63 2.63 0 012 14.76v-6.2l1.53 5.7a1 1 0 002-.07L7 6.3l1.52 7.89a1 1 0 001.94.07L12 8.56v6.21a2.62 2.62 0 01-1.45 2.34zM31 37h2v2h-2zM35 37h2v2h-2zM39 37h2v2h-2z"/></svg>