<svg id="food-meal-plate-restaurant" xmlns="http://www.w3.org/2000/svg" viewBox="0 0 64 64"><defs><style>.cls-1{fill:#e95c6d;}</style></defs><path class="cls-1" d="M33,17A15,15,0,1,0,48,32,15,15,0,0,0,33,17Zm0,28A13,13,0,1,1,46,32,13,13,0,0,1,33,45Z" transform="translate(0 0)"/><path class="cls-1" d="M33,10A22,22,0,1,0,55,32,22,22,0,0,0,33,10Zm0,42A20,20,0,1,1,53,32,20,20,0,0,1,33,52Z" transform="translate(0 0)"/><path class="cls-1" d="M63,0a3.32,3.32,0,0,0-3.27,2.84L56,28.86a1,1,0,0,0,.28.85L58,31.42V61a3,3,0,0,0,6,0V1A1,1,0,0,0,63,0ZM62,61a1,1,0,0,1-2,0V31a1,1,0,0,0-.29-.71l-1.65-1.65L61.71,3.12A1.25,1.25,0,0,1,62,2.47V61Z" transform="translate(0 0)"/><path class="cls-1" d="M14,14.76V1a1,1,0,0,0-2-.26L9.66,9.55,8,.81a1,1,0,0,0-2,0L4.34,9.55,2,.74A1,1,0,0,0,.87,0,1,1,0,0,0,0,1V14.77A4.6,4.6,0,0,0,2.55,18.9,2.6,2.6,0,0,1,4,21.24V60.89A3.09,3.09,0,0,0,6.5,64,2.77,2.77,0,0,0,7,64a3,3,0,0,0,3-3V21.24a2.6,2.6,0,0,1,1.45-2.34A4.62,4.62,0,0,0,14,14.76Zm-3.45,2.35A4.59,4.59,0,0,0,8,21.24V61a1,1,0,0,1-.35.76,1,1,0,0,1-.83.23A1.09,1.09,0,0,1,6,60.89V21.24a4.59,4.59,0,0,0-2.55-4.13A2.63,2.63,0,0,1,2,14.76V8.56l1.53,5.7a1,1,0,0,0,2-.07L7,6.3l1.52,7.89a1,1,0,0,0,1.94.07L12,8.56v6.21A2.62,2.62,0,0,1,10.55,17.11Z" transform="translate(0 0)"/><rect class="cls-1" x="31" y="37" width="2" height="2"/><rect class="cls-1" x="35" y="37" width="2" height="2"/><rect class="cls-1" x="39" y="37" width="2" height="2"/></svg>