<svg width="113" height="113" fill="none" xmlns="http://www.w3.org/2000/svg"><path d="M33.547 95.344h-12.36v3.531h12.36v-3.531zM49.438 48.996a3.093 3.093 0 01-3.09-3.09 3.093 3.093 0 013.09-3.09 3.093 3.093 0 013.09 3.09 3.093 3.093 0 01-3.09 3.09zm0-3.531a.442.442 0 00-.442.441c0 .486.883.486.883 0a.442.442 0 00-.441-.441zM31.781 48.996a3.093 3.093 0 01-3.09-3.09 3.093 3.093 0 013.09-3.09 3.093 3.093 0 013.09 3.09 3.093 3.093 0 01-3.09 3.09zm0-3.531a.442.442 0 00-.441.441c0 .486.883.486.883 0a.442.442 0 00-.442-.441zM40.61 61.355a6.63 6.63 0 01-6.622-6.62h2.649a3.977 3.977 0 003.972 3.972 3.977 3.977 0 003.973-3.973h2.648a6.63 6.63 0 01-6.62 6.621z" fill="#E95C6D"/><path d="M3.531 61.797a7.07 7.07 0 017.063-7.063v-20.39c0-16.504 12.548-30.024 28.564-30.78a61.121 61.121 0 012.9 0c16.019.756 28.567 14.276 28.567 30.78v20.39a7.07 7.07 0 017.063 7.063c0 2.922-1.786 5.436-4.323 6.51a12.333 12.333 0 014.323 9.38c0 2.07-.52 4.107-1.505 5.913-.15.712-.598 2.458-1.65 4.508l1.694 7.974L82.9 82.737l-1.249-6.241a4.434 4.434 0 012.36-4.826 4.42 4.42 0 015.107.83l1.353 1.352 11.868-4.746a5.187 5.187 0 014.845.523 5.19 5.19 0 012.285 4.301 5.208 5.208 0 01-2.619 4.513L96.845 84.16l-6.865 24.027a1.768 1.768 0 01-1.699 1.282H5.297a1.765 1.765 0 01-1.73-2.121l3.842-18.636a20.799 20.799 0 01-2.282-4.879l-.104-.339c-.141-.466-.31-.925-.482-1.386-.473-1.283-1.01-2.736-1.01-4.42 0-3.75 1.678-7.113 4.322-9.382-2.537-1.073-4.322-3.587-4.322-6.51zm83.419 44.14L93.647 82.5c.127-.443.422-.819.821-1.048l10.631-6.074c.517-.299.838-.851.838-1.448 0-.561-.266-1.066-.732-1.38a1.643 1.643 0 00-1.554-.168l-12.947 5.18a1.77 1.77 0 01-1.905-.392l-2.176-2.175a.897.897 0 00-1.033-.168.897.897 0 00-.476.975l1.366 6.836c.078.385.023.784-.151 1.137l-11.082 22.162H86.95zm-13.256-4.79l-3.66-17.224a2.032 2.032 0 01-.03-.183c-.075-.71-.566-1.301-1.141-1.48l-11.108-2.588-2.689 9.109c-.226.768.198 2.719-.566 2.719 0 .5-1.441-1.475-1.598-1.517L42.375 87.07v18.867h19.422v-7.062h3.531v7.062H71.3l2.395-4.79zm-22.59-23.024c-.095.364-.265.703-.563.945l-6.128 4.903 7.76 2.147 2.138-7.248-3.207-.747zm7.162-39.28h-12.53c-4.869 0-9.982-.22-11.748-5.186-1.394 3.93-7.071 5.07-11.037 5.169v8.846c0 9.735 7.92 17.656 17.657 17.656 9.735 0 17.656-7.92 17.656-17.656v-8.828h.002zM30.678 79.066c-.295-.236-.461-.568-.56-.925l-3.07.745 2.687 7.232 7.128-2.106-6.185-4.946zm9.931-10.207c-2.479 0-4.85-.45-7.062-1.236v9.217l7.062 5.65 7.063-5.65v-9.217a21.05 21.05 0 01-7.063 1.236zm-24.718 37.078v-7.062h3.53v7.062h19.423V87.112l-9.69 2.862c-.888.267-2.654 3.026-2.156-1.077l-3.406-9.169-10.32 2.508c-.685.204-1.176.796-1.276 1.677l-4.533 22.024h8.428z" fill="#E95C6D"/><path d="M95.244 41.837c-2.953.167-5.617 1.352-7.587 3.184-2.146 1.993-3.472 4.748-3.472 7.793 0 .025.002.051.004.075a.726.726 0 00.727.715v.003h22.114a.729.729 0 00.728-.729l-.002-.064h.005c0-3.045-1.327-5.802-3.472-7.793-1.971-1.83-4.633-3.015-7.586-3.182v-1.98h1.576a.729.729 0 000-1.457h-4.696a.73.73 0 000 1.457h1.661v1.977zm13.496 12.661H83.08a.729.729 0 00-.729.729v3.672a.73.73 0 00.728.728h25.661a.73.73 0 00.729-.728v-3.672a.73.73 0 00-.729-.729zm-24.932 1.457h24.202v2.214H83.805v-2.214h.003zm4.84-9.87c1.871-1.737 4.46-2.812 7.325-2.812s5.453 1.075 7.325 2.812c1.699 1.578 2.805 3.703 2.982 6.063H85.67c.175-2.36 1.28-4.485 2.978-6.063z" fill="#E95C6D"/></svg>