<svg width="89" height="86" fill="none" xmlns="http://www.w3.org/2000/svg"><path d="M51.17 70.78h-16.2a1.68 1.68 0 010-3.36h16.2a1.68 1.68 0 010 3.36zm5.02 6.68H29.95a1.68 1.68 0 010-3.36h26.24a1.68 1.68 0 010 3.36zm.52-60.37a1.68 1.68 0 01-1.18-2.87l2.84-2.85a1.68 1.68 0 012.38 2.38L57.9 16.6a1.68 1.68 0 01-1.19.49zM26.58 47.22a1.68 1.68 0 01-1.19-2.86l2.85-2.85a1.68 1.68 0 012.37 2.37l-2.84 2.85a1.68 1.68 0 01-1.2.5zm2.84-30.13c-.43 0-.86-.17-1.18-.5l-2.85-2.84a1.68 1.68 0 112.38-2.38l2.84 2.85a1.68 1.68 0 01-1.19 2.87zm30.14 30.13c-.43 0-.86-.16-1.19-.49l-2.85-2.85a1.68 1.68 0 012.38-2.37l2.85 2.84a1.68 1.68 0 01-1.2 2.87z" fill="#E95C6D"/><path d="M78.57 23.2h-.44V5.83A5.84 5.84 0 0072.3 0H13.7a5.84 5.84 0 00-5.83 5.83V23.2h-.44A7.44 7.44 0 000 30.63v47.94C0 82.67 3.33 86 7.43 86h71.14c4.1 0 7.43-3.33 7.43-7.43V65.55a1.68 1.68 0 00-3.36 0v7.43L61.32 53.61l21.32-17.62v8.16a1.68 1.68 0 003.36 0V30.63c0-4.1-3.34-7.43-7.43-7.43zM11.23 5.83a2.48 2.48 0 012.47-2.47h58.6a2.48 2.48 0 012.47 2.47v32.3L47.15 60.97h-8.3L11.23 38.14V5.84zM3.36 36l21.32 17.62L3.36 72.98V36zm0-5.36a4.08 4.08 0 014.07-4.07h.44v8.8l-4.51-3.73v-1zm79.28 46.9v1.04a4.08 4.08 0 01-4.07 4.07H7.43a4.08 4.08 0 01-4.07-4.07v-1.05L27.3 55.77l9.88 8.16c.3.25.67.39 1.06.39h9.51c.4 0 .77-.14 1.07-.39l9.88-8.16 23.94 21.75zm-4.5-50.97h.43a4.08 4.08 0 014.07 4.07v1l-4.5 3.73v-8.8z" fill="#E95C6D"/><path d="M82.97 57.6a1.51 1.51 0 01-.46-1.1v-3.8c0-.88.7-1.62 1.58-1.65a1.5 1.5 0 011.59 1.52v3.8c0 .87-.71 1.61-1.59 1.65a1.51 1.51 0 01-1.12-.42zm-40.4-13.72a1.71 1.71 0 01-1.13-.42 335.1 335.1 0 00-3.3-2.8c-2.91-2.46-5.43-4.58-7.19-6.67-1.96-2.33-2.87-4.55-2.87-6.97 0-2.35.82-4.51 2.3-6.1a7.83 7.83 0 015.8-2.5c1.66 0 3.2.53 4.54 1.56a9.24 9.24 0 011.84 1.9 9.25 9.25 0 011.84-1.9 7.34 7.34 0 014.55-1.55c2.24 0 4.3.88 5.8 2.49a8.88 8.88 0 012.29 6.1c0 2.43-.91 4.64-2.87 6.98-1.76 2.08-4.27 4.2-7.2 6.66l-3.3 2.8c-.3.27-.7.42-1.11.42zm-6.4-23.78c-1.76 0-3.37.7-4.54 1.95a7.22 7.22 0 00-1.85 4.97c0 2.04.76 3.86 2.48 5.9 1.66 1.98 4.13 4.06 6.98 6.46 1 .85 2.14 1.8 3.32 2.82 1.18-1.02 2.32-1.97 3.32-2.82 2.86-2.4 5.32-4.48 6.98-6.46 1.72-2.04 2.49-3.86 2.49-5.9 0-1.92-.66-3.69-1.85-4.97a6.14 6.14 0 00-4.55-1.95c-1.29 0-2.47.4-3.51 1.2a8.17 8.17 0 00-1.96 2.24c-.2.33-.54.52-.92.52s-.72-.2-.92-.52a8.16 8.16 0 00-1.96-2.24 5.68 5.68 0 00-3.5-1.2z" fill="#E95C6D"/></svg>