<svg width="89" height="86" fill="none" xmlns="http://www.w3.org/2000/svg"><path d="M51.174 70.775H34.963a1.68 1.68 0 010-3.36h16.21a1.68 1.68 0 010 3.36zM56.191 77.458H29.945a1.68 1.68 0 010-3.36h26.246a1.68 1.68 0 010 3.36zM56.713 17.087a1.68 1.68 0 01-1.188-2.867l2.846-2.846a1.68 1.68 0 012.376 2.375l-2.846 2.846a1.675 1.675 0 01-1.188.492zM26.578 47.222a1.68 1.68 0 01-1.188-2.867l2.846-2.847a1.68 1.68 0 012.376 2.376l-2.847 2.846a1.675 1.675 0 01-1.187.492zM29.424 17.087c-.43 0-.86-.164-1.188-.492l-2.846-2.846a1.68 1.68 0 112.375-2.376l2.846 2.846a1.68 1.68 0 01-1.187 2.868zM59.559 47.222c-.43 0-.86-.164-1.188-.492l-2.846-2.846a1.68 1.68 0 012.375-2.376l2.846 2.846a1.68 1.68 0 01-1.187 2.868z" fill="#E95C6D"/><path d="M78.57 23.203h-.44V5.833A5.84 5.84 0 0072.299 0H13.702a5.84 5.84 0 00-5.833 5.833v17.37h-.438C3.334 23.203 0 26.537 0 30.634v47.934C0 82.666 3.334 86 7.432 86h71.136C82.666 86 86 82.666 86 78.568V65.554a1.68 1.68 0 00-3.36 0v7.43L61.32 53.608 82.64 35.99v8.162a1.68 1.68 0 003.359 0V30.634c0-4.097-3.334-7.43-7.43-7.43zM11.228 5.833a2.476 2.476 0 012.473-2.474h58.596a2.476 2.476 0 012.473 2.474v32.303l-27.62 22.822h-8.302l-27.62-22.822V5.833zM3.359 35.99L24.681 53.61 3.36 72.983V35.991zm0-5.357a4.076 4.076 0 014.072-4.071h.438v8.797l-4.51-3.726v-1zm79.282 46.888v1.046a4.077 4.077 0 01-4.073 4.073H7.432a4.077 4.077 0 01-4.073-4.073v-1.046l23.938-21.751 9.878 8.161c.3.249.68.385 1.07.385h9.51c.39 0 .769-.136 1.07-.385l9.878-8.161L82.64 77.522zm-4.51-50.96h.438a4.076 4.076 0 014.072 4.072v1l-4.51 3.726v-8.797z" fill="#E95C6D"/><path d="M82.97 57.6a1.515 1.515 0 01-.463-1.102v-3.8c0-.874.71-1.614 1.584-1.65a1.507 1.507 0 011.584 1.518v3.799c0 .875-.71 1.615-1.584 1.651a1.515 1.515 0 01-1.12-.417zM42.561 43.878a1.71 1.71 0 01-1.12-.416c-1.17-1.01-2.297-1.96-3.292-2.797l-.005-.005c-2.918-2.456-5.437-4.576-7.19-6.666-1.96-2.335-2.873-4.55-2.873-6.969 0-2.35.817-4.518 2.298-6.106 1.499-1.606 3.556-2.49 5.793-2.49 1.671 0 3.202.522 4.55 1.551a9.244 9.244 0 011.84 1.898A9.246 9.246 0 0144.4 19.98c1.347-1.03 2.878-1.551 4.55-1.551 2.236 0 4.294.884 5.793 2.49 1.481 1.587 2.297 3.756 2.297 6.106 0 2.42-.913 4.634-2.872 6.97-1.753 2.089-4.272 4.21-7.19 6.665-.996.839-2.126 1.79-3.299 2.803-.31.267-.707.415-1.119.415zm-6.39-23.774c-1.757 0-3.37.693-4.545 1.95-1.192 1.278-1.848 3.043-1.848 4.971 0 2.035.765 3.855 2.482 5.9 1.659 1.978 4.127 4.055 6.984 6.46l.005.004c.999.841 2.131 1.795 3.31 2.812 1.185-1.02 2.32-1.974 3.32-2.816 2.857-2.405 5.325-4.482 6.984-6.46 1.716-2.045 2.482-3.865 2.482-5.9 0-1.928-.657-3.693-1.849-4.97-1.174-1.258-2.788-1.95-4.545-1.95-1.287 0-2.469.404-3.513 1.2-.93.711-1.577 1.61-1.957 2.238-.195.323-.54.516-.92.516s-.724-.193-.92-.516c-.38-.629-1.027-1.527-1.957-2.238-1.044-.796-2.225-1.2-3.512-1.2z" fill="#E95C6D"/></svg>