<svg width="90" height="103" viewBox="0 0 90 103" fill="none" xmlns="http://www.w3.org/2000/svg">
<g opacity="0.3">
<path opacity="0.3" d="M12.0005 38.4405H18.004V32.0314H12.0005V38.4405ZM36.0147 32.0314H42.0183V25.6222H36.0147V32.0314ZM48.0218 32.0314H54.0254V25.6222H48.0218V32.0314ZM60.029 32.0314H66.0325V25.6222H60.029V32.0314ZM36.0481 19.2131H42.0516V12.804H36.0481V19.2131ZM48.0552 19.2131H54.0587V12.804H48.0552V19.2131ZM60.0623 19.2131H66.0659V12.804H60.0623V19.2131ZM35.9814 57.6394H41.9849V51.2303H35.9814V57.6394ZM47.9885 57.6394H53.992V51.2303H47.9885V57.6394ZM59.9956 57.6394H65.9992V51.2303H59.9956V57.6394ZM36.0147 70.4577H42.0183V64.0486H36.0147V70.4577ZM59.9956 70.4577H65.9992V64.0486H59.9956V70.4577ZM36.0147 83.276H42.0183V76.8669H36.0147V83.276ZM59.9956 83.276H65.9992V76.8669H59.9956V83.276ZM78.0063 76.8669H84.0098V70.4577H78.0063V76.8669ZM78.0063 57.6394V64.0486H84.0098V57.6394H78.0063ZM78.0063 89.6424H84.0098V83.2333H78.0063V89.6424ZM35.9814 44.8354H41.9849V38.4263H35.9814V44.8354ZM47.9885 44.8354H53.992V38.4263H47.9885V44.8354ZM59.9956 44.8354H65.9992V38.4263H59.9956V44.8354ZM12.0338 51.2445H18.0374V44.8354H12.0338V51.2445ZM12.0338 64.0628H18.0374V57.6537H12.0338V64.0628ZM12.0338 76.8811H18.0374V70.472H12.0338V76.8811ZM12.0338 89.6994H18.0374V83.2902H12.0338V89.6994ZM48.0018 70.472H54.0054V64.0628H48.0018V70.472Z" fill="#E95C6D"/>
</g>
<path opacity="0.8" fill-rule="evenodd" clip-rule="evenodd" d="M89.94 96.0445C89.94 97.7443 89.3074 99.3745 88.1816 100.576C87.0557 101.778 85.5287 102.454 83.9364 102.454H6.00356C4.41132 102.454 2.88429 101.778 1.7584 100.576C0.632516 99.3745 0 97.7443 0 96.0445V25.6365C0 23.9367 0.632516 22.3065 1.7584 21.1046C2.88429 19.9027 4.41132 19.2274 6.00356 19.2274H24.0142V6.40914C24.0142 4.70933 24.6467 3.07914 25.7726 1.87719C26.8985 0.675247 28.4255 0 30.0178 0H71.9893C73.5816 0 75.1086 0.675247 76.2345 1.87719C77.3604 3.07914 77.9929 4.70933 77.9929 6.40914V44.807H83.9964C85.5887 44.807 87.1157 45.4822 88.2416 46.6842C89.3675 47.8861 90 49.5163 90 51.2161L89.94 96.0445ZM23.9875 25.6365H5.97687V96.0445H23.9875V25.6365ZM71.956 6.40914H29.9844V96.0445H47.9951V76.8171H53.9987V96.0445H72.0093L71.956 6.40914ZM83.9631 51.209H77.9595V96.016H83.9631V51.209Z" fill="#E95C6D"/>
</svg>
