<svg id="Layer_1" data-name="Layer 1" xmlns="http://www.w3.org/2000/svg" viewBox="0 0 134.82 200"><defs><style>.cls-1{opacity:0.3;}.cls-2,.cls-3{fill:#e95c6d;}.cls-3{fill-rule:evenodd;opacity:0.8;}</style></defs><g class="cls-1"><path class="cls-2" d="M17.76,110.53h9v-9h-9Zm36-9h9v-9h-9Zm18,0h9v-9h-9Zm18,0h9v-9h-9Zm-35.95-18h9v-9h-9Zm18,0h9v-9h-9Zm18,0h9v-9h-9ZM53.71,137.49h9v-9h-9Zm18,0h9v-9h-9Zm18,0h9v-9h-9Zm-35.95,18h9v-9h-9Zm35.95,0h9v-9h-9Zm-35.95,18h9v-9h-9Zm35.95,0h9v-9h-9Zm27-9h9v-9h-9Zm0-27v9h9v-9Zm0,44.94h9v-9h-9ZM53.71,119.51h9v-9h-9Zm18,0h9v-9h-9Zm18,0h9v-9h-9Zm-71.9,9h9v-9h-9Zm0,18h9v-9h-9Zm0,18h9v-9h-9Zm0,18h9v-9h-9Zm53.92-27h9v-9h-9Z" transform="translate(0.22 -0.4)"/></g><path class="cls-3" d="M134.6,191.42a9,9,0,0,1-9,9H8.77a9,9,0,0,1-9-9V92.55a9,9,0,0,1,9-9h27v-18a9,9,0,0,1,9-9h62.92a9,9,0,0,1,9,9v53.92h9a9,9,0,0,1,9,9ZM35.73,92.55h-27v98.87h27Zm71.91-27H44.72V191.42h27v-27h9v27h27Zm18,62.91h-9v62.92h9Z" transform="translate(0.22 -0.4)"/><path class="cls-2" d="M91,4.9A26.65,26.65,0,0,0,52.78,39.84l23.4,42.9,23.4-42.9A26.5,26.5,0,0,0,91,4.9Zm4,32.42L76.18,71.74,57.4,37.32a21.39,21.39,0,1,1,37.56,0Z" transform="translate(0.22 -0.4)"/><path class="cls-2" d="M76.18,11.38A13.17,13.17,0,1,0,89.35,24.55,13.2,13.2,0,0,0,76.18,11.38Zm0,21.07a7.9,7.9,0,1,1,7.9-7.9A7.91,7.91,0,0,1,76.18,32.45Z" transform="translate(0.22 -0.4)"/></svg>