<svg width="90" height="103" fill="none" xmlns="http://www.w3.org/2000/svg"><path opacity=".3" d="M12 38.44h6.004v-6.409H12v6.41zm24.015-6.409h6.003v-6.409h-6.003v6.41zm12.007 0h6.003v-6.409h-6.003v6.41zm12.007 0h6.003v-6.409H60.03v6.41zm-23.98-12.818h6.003v-6.409h-6.004v6.41zm12.006 0h6.004v-6.409h-6.004v6.41zm12.007 0h6.004v-6.409h-6.004v6.41zM35.982 57.64h6.003V51.23H35.98v6.41zm12.007 0h6.003V51.23h-6.003v6.41zm12.007 0h6.003V51.23h-6.003v6.41zM36.015 70.458h6.003v-6.41h-6.003v6.41zm23.98 0H66v-6.41h-6.003v6.41zm-23.98 12.818h6.003v-6.41h-6.003v6.41zm23.98 0H66v-6.41h-6.003v6.41zm18.011-6.41h6.004v-6.408h-6.004v6.409zm0-19.227v6.41h6.004v-6.41h-6.004zm0 32.003h6.004v-6.409h-6.004v6.41zM35.981 44.835h6.004v-6.409H35.98v6.41zm12.008 0h6.003v-6.409h-6.003v6.41zm12.007 0h6.003v-6.409h-6.003v6.41zm-47.962 6.41h6.003v-6.41h-6.003v6.41zm0 12.818h6.003v-6.41h-6.003v6.41zm0 12.818h6.003v-6.409h-6.003v6.41zm0 12.818h6.003V83.29h-6.003v6.41zm35.968-19.227h6.003v-6.41h-6.003v6.41z" fill="#E95C6D"/><path opacity=".8" fill-rule="evenodd" clip-rule="evenodd" d="M89.94 96.044c0 1.7-.633 3.33-1.758 4.532-1.126 1.202-2.653 1.878-4.246 1.878H6.004c-1.593 0-3.12-.676-4.246-1.878C.633 99.375 0 97.744 0 96.045V25.635c0-1.7.633-3.33 1.758-4.531 1.126-1.202 2.653-1.878 4.246-1.878h18.01V6.41c0-1.7.633-3.33 1.759-4.532C26.898.675 28.425 0 30.018 0h41.971c1.593 0 3.12.675 4.245 1.877C77.36 3.08 77.993 4.71 77.993 6.41v38.398h6.003c1.593 0 3.12.675 4.246 1.877C89.368 47.886 90 49.516 90 51.216l-.06 44.828zM23.987 25.638H5.977v70.407h18.01V25.638zM71.957 6.408H29.984v89.635h18.011V76.817H54v19.228h18.01l-.053-89.636zm12.007 44.8H77.96v44.807h6.003V51.209z" fill="#E95C6D"/></svg>