<svg width="1920" height="1080" xmlns="http://www.w3.org/2000/svg"><g stroke-linejoin="bevel"><path d="M940 551l191-21-152-153z" fill="#fffdfd" stroke="#fffdfd"/><path d="M1131 530l33-196-185 43z" fill="#fff" stroke="#fff"/><path d="M940 551l187 156 4-177z" fill="snow" stroke="snow"/><path d="M1131 530l186-166-153-30z" fill="#fffdfd" stroke="#fffdfd"/><path d="M979 377L763 506l177 45z" fill="#fff" stroke="#fff"/><path d="M940 551l-25 191 212-35z" fill="#fff8f8" stroke="#fff8f8"/><path d="M769 715l146 27 25-191z" fill="#fffbfb" stroke="#fffbfb"/><path d="M1343 530l-26-166-186 166z" fill="#fff4f4" stroke="#fff4f4"/><path d="M797 177l-67 217 249-17z" fill="#fffefe" stroke="#fffefe"/><path d="M979 377l-249 17 33 112z" fill="#fff" stroke="#fff"/><path d="M1143 181l-142-15 163 168z" fill="#fffefe" stroke="#fffefe"/><path d="M1164 334l-163-168-22 211z" fill="#fff9f9" stroke="#fff9f9"/><path d="M1326 677l17-147h-212z" fill="#fff7f7" stroke="#fff7f7"/><path d="M1317 364l-174-183 21 153z" fill="#fff4f4" stroke="#fff4f4"/><path d="M763 506l6 209 171-164z" fill="#fff8f8" stroke="#fff8f8"/><path d="M595 583l174 132-6-209z" fill="#fffbfb" stroke="#fffbfb"/><path d="M1326 909V677l-199 30z" fill="#fff5f5" stroke="#fff5f5"/><path d="M1127 707l199-30-195-147zM1001 166l-204 11 182 200z" fill="#fffdfd" stroke="#fffdfd"/><path d="M760 866l177 31-22-155z" fill="#fff7f7" stroke="#fff7f7"/><path d="M915 742l22 155 190-190z" fill="#fff4f4" stroke="#fff4f4"/><path d="M598 205l5 173 127 16z" fill="#fff8f8" stroke="#fff8f8"/><path d="M730 394l-127-16 160 128z" fill="#fffbfb" stroke="#fffbfb"/><path d="M603 378l-8 205 168-77zM769 715l-9 151 155-124z" fill="#fff" stroke="#fff"/><path d="M937 897l190 29V707z" fill="#fffefe" stroke="#fffefe"/><path d="M603 885l157-19 9-151z" fill="#fff4f4" stroke="#fff4f4"/><path d="M1505 358l-155-224-33 230z" fill="#fffdfd" stroke="#fffdfd"/><path d="M1317 364l33-230-207 47z" fill="snow" stroke="snow"/><path d="M1129 0H967l34 166z" fill="#fffdfd" stroke="#fffdfd"/><path d="M1001 166L967 0 797 177z" fill="#fffbfb" stroke="#fffbfb"/><path d="M1129 0l-128 166 142 15z" fill="#fff5f5" stroke="#fff5f5"/><path d="M797 177l-199 28 132 189z" fill="#fffbfb" stroke="#fffbfb"/><path d="M1298 0h-169l14 181zM1545 528l-40-170-162 172z" fill="#fff7f7" stroke="#fff7f7"/><path d="M1343 530l162-172-188 6z" fill="#fff6f6" stroke="#fff6f6"/><path d="M617 0l-19 205 199-28z" fill="#fff8f8" stroke="#fff8f8"/><path d="M362 560l187 127 46-104z" fill="snow" stroke="snow"/><path d="M1326 677l219-149-202 2z" fill="#fffdfd" stroke="#fffdfd"/><path d="M1567 691l-22-163-219 149z" fill="snow" stroke="snow"/><path d="M1127 926l199-17-199-202z" fill="#fff5f5" stroke="#fff5f5"/><path d="M362 560l233 23 8-205z" fill="snow" stroke="snow"/><path d="M595 583l-46 104 220 28z" fill="#fff6f6" stroke="#fff6f6"/><path d="M967 0H761l36 177z" fill="#fffefe" stroke="#fffefe"/><path d="M1557 0h-259l52 134z" fill="#fff4f4" stroke="#fff4f4"/><path d="M1350 134L1298 0l-155 181z" fill="#fff9f9" stroke="#fff9f9"/><path d="M1326 909l241-218-241-14z" fill="#fff" stroke="#fff"/><path d="M549 687l54 198 166-170z" fill="#fff6f6" stroke="#fff6f6"/><path d="M790 1080h146l1-183z" fill="#fff" stroke="#fff"/><path d="M937 897l-1 183 191-154z" fill="#fffbfb" stroke="#fffbfb"/><path d="M1505 358l21-215-176-9z" fill="#fff6f6" stroke="#fff6f6"/><path d="M1713 385l-187-242-21 215z" fill="#fff7f7" stroke="#fff7f7"/><path d="M1713 385l-208-27 40 170z" fill="#fff8f8" stroke="#fff8f8"/><path d="M790 1080l147-183-177-31z" fill="#fffbfb" stroke="#fffbfb"/><path d="M1127 926l32 154 167-171z" fill="#fff" stroke="#fff"/><path d="M936 1080h223l-32-154z" fill="#fff9f9" stroke="#fff9f9"/><path d="M1326 909l227 29 14-247z" fill="#fff4f4" stroke="#fff4f4"/><path d="M761 0H617l180 177z" fill="#fff" stroke="#fff"/><path d="M358 377l4 183 241-182zM615 1080h175l-30-214z" fill="#fff8f8" stroke="#fff8f8"/><path d="M1159 1080h152l15-171z" fill="#fff4f4" stroke="#fff4f4"/><path d="M358 377l245 1-5-173z" fill="snow" stroke="snow"/><path d="M549 687L383 853l220 32z" fill="#fffefe" stroke="#fffefe"/><path d="M402 155l-44 222 240-172zM1727 577l-14-192-168 143z" fill="#fff9f9" stroke="#fff9f9"/><path d="M1311 1080l242-142-227-29z" fill="#fff8f8" stroke="#fff8f8"/><path d="M1567 691l160-114-182-49z" fill="#fff6f6" stroke="#fff6f6"/><path d="M1713 677l14-100-160 114z" fill="#fff7f7" stroke="#fff7f7"/><path d="M617 0L402 155l196 50z" fill="#fffefe" stroke="#fffefe"/><path d="M1688 907l25-230-146 14z" fill="#fff6f6" stroke="#fff6f6"/><path d="M215 723l142-4 5-159z" fill="#fff7f7" stroke="#fff7f7"/><path d="M362 560l-5 159 192-32z" fill="#fff7f7" stroke="#fff7f7"/><path d="M603 885l12 195 145-214z" fill="#fff" stroke="#fff"/><path d="M1733 0h-176l-31 143z" fill="#fff8f8" stroke="#fff8f8"/><path d="M1526 143l31-143-207 134z" fill="#fffdfd" stroke="#fffdfd"/><path d="M345 1080h270l-12-195z" fill="snow" stroke="snow"/><path d="M357 719l26 134 166-166z" fill="#fff4f4" stroke="#fff4f4"/><path d="M1696 1080l-8-173-135 31z" fill="snow" stroke="snow"/><path d="M1553 938l135-31-121-216zM1920 740V493l-193 84z" fill="#fffdfd" stroke="#fffdfd"/><path d="M1713 385l48-211-235-31z" fill="#fff9f9" stroke="#fff9f9"/><path d="M1920 323l-159-149-48 211z" fill="snow" stroke="snow"/><path d="M218 211l16 187 124-21z" fill="#fff5f5" stroke="#fff5f5"/><path d="M358 377l-124 21 128 162z" fill="#fff4f4" stroke="#fff4f4"/><path d="M357 719l-142 4 168 130z" fill="#fff" stroke="#fff"/><path d="M617 0H384l18 155z" fill="#fffbfb" stroke="#fffbfb"/><path d="M402 155l-184 56 140 166zM1311 1080h258l-16-142z" fill="#fff6f6" stroke="#fff6f6"/><path d="M234 398l-47 184 175-22zM187 582l28 141 147-163z" fill="#fff7f7" stroke="#fff7f7"/><path d="M383 853l-38 227 258-195z" fill="#fffdfd" stroke="#fffdfd"/><path d="M1761 174L1733 0l-207 143z" fill="#fff7f7" stroke="#fff7f7"/><path d="M236 0l-18 211 184-56z" fill="#fff9f9" stroke="#fff9f9"/><path d="M234 398L0 524l187 58z" fill="#fff7f7" stroke="#fff7f7"/><path d="M1920 740l-193-163-14 100z" fill="#fff8f8" stroke="#fff8f8"/><path d="M1727 577l193-84-207-108z" fill="#fff7f7" stroke="#fff7f7"/><path d="M1761 174L1920 0h-187z" fill="#fff4f4" stroke="#fff4f4"/><path d="M1569 1080h127l-143-142zM1688 907l232-167-207-63z" fill="#fffdfd" stroke="#fffdfd"/><path d="M1920 493V323l-207 62z" fill="#fff6f6" stroke="#fff6f6"/><path d="M239 1080h106l38-227z" fill="#fffbfb" stroke="#fffbfb"/><path d="M384 0H236l166 155zM1920 899V740l-232 167zM1920 323V177l-159-3z" fill="#fff4f4" stroke="#fff4f4"/><path d="M0 744l146 167 69-188zM215 723l-69 188 237-58z" fill="#fffefe" stroke="#fffefe"/><path d="M0 744l215-21-28-141z" fill="#fff5f5" stroke="#fff5f5"/><path d="M0 524l234-126L0 376z" fill="#fffefe" stroke="#fffefe"/><path d="M1696 1080l224-181-232 8z" fill="snow" stroke="snow"/><path d="M146 911l93 169 144-227z" fill="#fff" stroke="#fff"/><path d="M1920 177V0l-159 174z" fill="#fffbfb" stroke="#fffbfb"/><path d="M0 376l234 22-16-187z" fill="#fff5f5" stroke="#fff5f5"/><path d="M0 181v195l218-165zM0 524v220l187-162z" fill="#fff6f6" stroke="#fff6f6"/><path d="M146 911L0 1080h239z" fill="#fff4f4" stroke="#fff4f4"/><path d="M236 0L0 181l218 30z" fill="#fff5f5" stroke="#fff5f5"/><path d="M1696 1080h224V899z" fill="snow" stroke="snow"/><path d="M0 744v124l146 43z" fill="#fff6f6" stroke="#fff6f6"/><path d="M236 0H0v181z" fill="#fff7f7" stroke="#fff7f7"/><path d="M0 868v212l146-169z" fill="#fff5f5" stroke="#fff5f5"/></g></svg>