<svg width="51" height="59" viewBox="0 0 51 59" fill="none" xmlns="http://www.w3.org/2000/svg"><path d="M28.177.003c-2.95-.05-5.879.49-8.618 1.592a22.199 22.199 0 00-7.335 4.819 22.344 22.344 0 00-4.911 7.297A22.447 22.447 0 005.59 22.35c0 .109 0 .737.004 1.722a4.585 4.585 0 01-1.275 1.755c-.22.222-.583.57-.983.956-1.425 1.382-1.97 1.918-2.2 2.2A5.109 5.109 0 00.2 30.644c-.312.964-.32 2.338 1.42 3.427.463.282.941.535 1.434.759.358.167.72.326 1.083.481l.046.021c.575 3.821 1.487 9.846 1.541 10.231a5.444 5.444 0 001.587 3.511c1.537 1.412 3.591 1.357 5.095 1.311.229-.004.458-.012.67-.012h1.813c.062.863.133 1.965.196 2.937.079 1.194.158 2.404.225 3.351.043.634.324 1.228.785 1.662.462.434 1.07.675 1.701.676.164 0 .328-.017.488-.05l23.983-4.797a3.379 3.379 0 001.946-1.175 3.414 3.414 0 00.77-2.148v-4.382a38.553 38.553 0 013.245-15.25 22.47 22.47 0 00-1.749-20.978 22.282 22.282 0 00-7.88-7.41A22.133 22.133 0 0028.177.003zm7.865 23.319c-.255.466-.672.82-1.17.993-.222.075-6.404 1.655-6.404 1.655l2.904 7.805a2.152 2.152 0 01-.66 2.956 2.12 2.12 0 01-2.94-.664l-7.956-12.632a2.151 2.151 0 01.404-2.764c.255-.222.56-.38.887-.462.163-.042 6.29-1.4 6.29-1.4l-2.978-8.005a2.152 2.152 0 01.658-2.958 2.121 2.121 0 012.941.662l7.957 12.636c.216.341.33.738.33 1.143 0 .362-.091.718-.263 1.035z" fill="#E95C6D"/></svg>