<svg width="38" height="57" viewBox="0 0 38 57" fill="none" xmlns="http://www.w3.org/2000/svg"><path d="M19 23.75c-9.18 0-16.625 7.443-16.625 16.625S9.821 57 19 57c9.18 0 16.625-7.443 16.625-16.625S28.179 23.75 19 23.75zm0 30.875c-7.87 0-14.25-6.382-14.25-14.25s6.38-14.25 14.25-14.25 14.25 6.382 14.25 14.25-6.38 14.25-14.25 14.25zM9.5 0l14.15 19h-9.4L0 0h9.5zm15.684 17.086L38 0h-9.5l-8.018 10.768 4.703 6.318zM19 28.5c-6.557 0-11.875 5.318-11.875 11.875S12.443 52.25 19 52.25s11.875-5.318 11.875-11.875S25.557 28.5 19 28.5zm2.375 19H19V38h-4.75v-2.04c1.04 0 4.194-.112 5.159-2.71h1.966V47.5z" fill="#E95C6D"/></svg>