<svg width="50" height="51" fill="none" xmlns="http://www.w3.org/2000/svg"><path fill-rule="evenodd" clip-rule="evenodd" d="M10.05 45.72l5.7-2.44-6.76-18.43-3.25 9.11 4.3 11.76zm-5.4-8.7L0 50.03l8.13-3.48-3.49-9.51zm13 5.44l6.12-2.62-7.25-19.04-4.62-4.1-1.81 5.09 7.57 20.67zm15.68-6.71L19.89 23.8l5.8 15.22 7.64-3.27zM31.6 25.32l4.58-3a1.04 1.04 0 00-1.14-1.75l-4.59 3.01a1.04 1.04 0 101.15 1.74zm-6.24-8.98l2.32-4.97a1.04 1.04 0 10-1.89-.88l-2.31 4.97c-.25.52-.02 1.14.5 1.39l.44.1c.4 0 .77-.23.94-.6zm-5.47 1.48c3.2-6.17 3.43-11.94.66-17.13a1.04 1.04 0 10-1.84.98c2.43 4.55 2.2 9.66-.67 15.19a1.04 1.04 0 001.85.96zm13.55 12.7c4.2-3 9.3-3.42 15.15-1.28a1.04 1.04 0 00.72-1.96c-6.54-2.39-12.28-1.87-17.08 1.54a1.04 1.04 0 00.6 1.89c.22 0 .43-.07.61-.2zm7.83-14.08l-3.54.03 1.96 2.95-1.07 3.37 3.4-.95 2.89 2.05.15-3.53 2.84-2.1-3.31-1.24-1.12-3.35-2.2 2.77zm-15.22 7.55c.57-.02 1.02-.5 1-1.08-.11-3.39.75-4.03 2.87-4.27 3.52-.4 3.72-2.73 3.84-4.13.1-1.33.15-1.77 1.6-1.88 1.32-.1 2.78-.33 3.68-1.37.96-1.12.97-2.83.83-4.51a1.04 1.04 0 10-2.07.16c.13 1.64.02 2.56-.35 2.99-.3.36-1 .56-2.23.65-3.24.24-3.43 2.46-3.54 3.79-.12 1.39-.17 2.02-1.99 2.23-4.32.48-4.82 3.37-4.72 6.41.02.57.48 1 1.04 1h.04zM42.39 5.92A3.8 3.8 0 1050 5.9a3.8 3.8 0 00-7.6 0zM28.6 0a4.17 4.17 0 110 8.34 4.17 4.17 0 010-8.34z" fill="#E95C6D"/></svg>