<svg width="64" height="41" viewBox="0 0 64 41" fill="none" xmlns="http://www.w3.org/2000/svg"><path d="M53.553 21.882l-6.28-12.59a1.309 1.309 0 00-.284-.378 1.19 1.19 0 00-.395-.238L39.231 6.03a4.694 4.694 0 00-1.634-.278 4.705 4.705 0 00-1.629.31l-5.587 2.131c-.393.15-.783.323-1.168.52-.129.067-.255.139-.381.21-.422-.229-.862-.43-1.322-.601a10.111 10.111 0 00-4.419-.61l-3.758.323a1.148 1.148 0 00-.483.156c-.154.09-.282.213-.382.355l-8.463 12.048a1.353 1.353 0 00-.24.895c.029.334.172.626.384.836l3.681 3.648a2.973 2.973 0 00.376 3.399 2.974 2.974 0 002.056 1.013c.042.003.085.003.129.004a3.001 3.001 0 00.793 3.067c.51.484 1.165.765 1.86.81a3.004 3.004 0 00.71 3.301c.558.53 1.289.82 2.058.82.801 0 1.549-.313 2.113-.878a2.998 2.998 0 002.96 2.538c.365 0 .713-.069 1.038-.19.53.354 1.162.548 1.834.521a3.133 3.133 0 002.121-.97l-2.024-2.02c.005-.046.013-.09.015-.14a2.984 2.984 0 00-.146-1.137l4.144 4.133a4.02 4.02 0 001.684.296c1.186-.049 2.242-.609 2.99-1.475l.415-.481a.665.665 0 00.094-.152l-6.38-6.362a.452.452 0 01-.032-.605.38.38 0 01.563-.012l7.587 7.566c.414.145.857.216 1.316.197 1.043-.042 1.973-.535 2.63-1.298l1.003-1.16a1.49 1.49 0 00.354-1.02l-6.659-6.639a.453.453 0 01-.031-.604.38.38 0 01.563-.012l6.69 6.67c.274.073.562.109.859.097a2.996 2.996 0 002.153-1.063l.269-.311a3.46 3.46 0 00.824-2.387 3.428 3.428 0 00-.988-2.314l-1.786-1.78.452.449 4.828-4.36c.205-.185.354-.443.409-.747a1.379 1.379 0 00-.121-.855zm-37.207 7.212a1.687 1.687 0 01-1.167-.575 1.702 1.702 0 012.556-2.24c.3.34.448.777.419 1.231a1.703 1.703 0 01-1.808 1.584zm2.895 3.888c-.436 0-.851-.164-1.168-.464a1.705 1.705 0 01-.085-2.384c.032-.034.695-.735 1.014-1.07l.167-.177a1.685 1.685 0 011.234-.532c.437 0 .852.166 1.168.466.33.312.519.733.531 1.188.013.453-.153.884-.464 1.213l-.473.5-.32.339-.055.058-.212.223c-.032.035-.065.07-.098.103a1.682 1.682 0 01-1.24.537zm3.794 3.592c-.323.336-.757.52-1.224.52a1.69 1.69 0 01-1.168-.466 1.703 1.703 0 01-.086-2.38l.845-.893.328-.347.825-.873a.284.284 0 00.022-.022l.002-.001.088-.094a1.685 1.685 0 011.235-.532c.437 0 .85.165 1.168.466.33.312.518.734.53 1.187.013.454-.152.886-.465 1.216l-2.1 2.22zm3.736 2.176a1.702 1.702 0 01-1.584-1.807 1.701 1.701 0 011.807-1.585 1.703 1.703 0 011.585 1.807 1.704 1.704 0 01-1.808 1.585zm20.776-11.792L34.32 13.771l.15-.377a.722.722 0 00-.046-.623.622.622 0 00-.501-.319l-.983-.059-1.074-.064-.082 1.273c-.001.027-.214 2.922-1.69 5.537-1.513 2.684-3.518 3.61-3.824 3.669-.341.066-.7.13-.997.13-.204 0-.362-.03-.497-.091l-.502-.233a.887.887 0 01-.456-.505.974.974 0 010-.682l5.031-11.04.855-.564.345-.13L36.37 7.28c.397-.152.814-.231 1.236-.235h.036c.41 0 .816.07 1.205.21l7.364 2.647 6.28 12.59-4.945 4.465zM54.704 1.25L49.733 3.73A3.123 3.123 0 0048.33 7.92l6.508 13.048a3.11 3.11 0 001.806 1.568c.817.274 1.669.19 2.385-.167L64 19.89 54.704 1.25zm4.313 18.647a1.197 1.197 0 110-2.394 1.197 1.197 0 010 2.394zM0 17.044l4.545 3.193a3.11 3.11 0 002.333.521 3.11 3.11 0 002.019-1.281l8.381-11.932c.46-.653.67-1.484.522-2.333a3.118 3.118 0 00-1.281-2.02L11.973 0 0 17.044zm3.92-.612a1.198 1.198 0 112.369.357 1.198 1.198 0 01-2.369-.357z" fill="#E95C6D"/></svg>