<svg width="709" height="536" fill="none" xmlns="http://www.w3.org/2000/svg"><path opacity=".1" d="M7.66 253.3c11.22 43.72 34.96 81.5 72.5 99.82 78.02 38.07 253.89 18.43 385.16-4.1 67.93-11.66 127.58-43.8 170.95-89.1L7.66 253.3zM696.08 47.55h-72.03c-3.43 0-6.23-2.55-6.23-5.67s2.8-5.68 6.23-5.68h12.46c-3.42 0-6.23-2.55-6.23-5.68 0-3.12 2.8-5.67 6.23-5.67h-8.89c-3.43 0-6.23-2.55-6.23-5.67s2.8-5.68 6.23-5.68h37.6c-8.35-3.54-18.08-6.05-29.33-7.36-102.51-12.01-139.12-4.07-152.04 4.1a150.86 150.86 0 01-52.7 21.05C367.92 43.2 249.64 57.5 142.43 26.7 89.13 11.4 49.53 37.3 25.79 80.5h682.8c-.9-12.56-3.57-24.17-8.46-34.32a6.53 6.53 0 01-4.05 1.38zM1.55 162.07a264.17 264.17 0 002.8 76.26l632.4 21.09a269.93 269.93 0 0043.94-61.07L1.55 162.07zm250.1 54.4H239.2c3.42 0 6.23 2.56 6.23 5.68 0 3.12-2.8 5.67-6.23 5.67h-72c-3.42 0-6.23-2.55-6.23-5.67s2.8-5.68 6.23-5.68h12.47c-3.42 0-6.23-2.55-6.23-5.67 0-3.13 2.8-5.68 6.23-5.68h-8.9c-3.43 0-6.24-2.55-6.24-5.67s2.8-5.68 6.23-5.68h72.03c3.43 0 6.23 2.56 6.23 5.68 0 3.12-2.8 5.67-6.23 5.67h8.87c3.43 0 6.23 2.56 6.23 5.68 0 3.12-2.78 5.67-6.23 5.67zM708.62 80.88L18.17 96.19c-8.4 19.69-13.97 41.94-16.54 65h694.87a248.57 248.57 0 0010.04-41.43c2.07-13.56 2.9-26.67 2.07-38.88zm-566.8 50.17h-12.46c3.42 0 6.23 2.55 6.23 5.67 0 3.13-2.8 5.68-6.23 5.68H57.34c-3.42 0-6.23-2.55-6.23-5.68 0-3.12 2.8-5.67 6.23-5.67h12.47c-3.43 0-6.24-2.55-6.24-5.67s2.8-5.68 6.24-5.68H60.9c-3.42 0-6.23-2.55-6.23-5.68 0-3.12 2.8-5.67 6.23-5.67h72.03c3.42 0 6.23 2.55 6.23 5.67 0 3.13-2.8 5.68-6.23 5.68h8.9c3.42 0 6.23 2.56 6.23 5.68 0 3.12-2.81 5.67-6.23 5.67zM413.98 477.83c25.89 0 46.88-4.7 46.88-10.52 0-5.81-21-10.53-46.88-10.53-25.9 0-46.88 4.72-46.88 10.53s20.99 10.52 46.88 10.52zM522.9 507.68c46.72 0 84.58-3.11 84.58-6.95 0-3.83-37.86-6.94-84.57-6.94-46.7 0-84.57 3.11-84.57 6.94 0 3.84 37.86 6.94 84.57 6.94zM183.35 500.73c46.7 0 84.57-4.7 84.57-10.52 0-5.81-37.87-10.53-84.57-10.53-46.71 0-84.58 4.72-84.58 10.53s37.87 10.52 84.58 10.52zM312.29 448.05c35.14 0 63.63-4.71 63.63-10.53 0-5.8-28.49-10.52-63.63-10.52s-63.63 4.71-63.63 10.52c0 5.82 28.49 10.53 63.63 10.53zM330.06 535.71c28.13 0 50.94-4.71 50.94-10.53 0-5.8-22.81-10.52-50.94-10.52-28.14 0-50.94 4.71-50.94 10.52 0 5.82 22.8 10.53 50.94 10.53z" fill="#E95C6D"/><path d="M359.84 187.14c-1.34-9.06-9.58-30.2-9.58-30.2a33.8 33.8 0 00-.48-1.87c-5.84-20.06-13.92-21.81-13.92-21.81l-28.95-6.23c.24.15.45.35.62.58-.15.01-.3.04-.45.07a11.34 11.34 0 01-2.54-5.49c-.06-.3-.1-.62-.15-.92a20.36 20.36 0 00-2.58-31.3c1.36-1.46 1.4-3.48.39-5.5-2.28-4.73-7.25-7.73-12.34-9.2-3.9-1.1-8.1-1.47-11.98-.25-2.2.7-4.2 1.87-6.27 2.91-3.84 1.92-8.1 3.44-10.97 6.6-.67.74-1.3 1.68-1.1 2.65.15.72.72 1.28 1.1 1.93.82 1.43.62 3.25.05 4.82-.57 1.57-1.4 3.03-1.79 4.63-.4 1.61-.24 3.5.97 4.66.58.45 1.18.86 1.8 1.25a9.43 9.43 0 011.73 1.93l3.43 4.63a47.66 47.66 0 014.29 6.53c.85 1.68 1.51 3.47 2.65 4.98.34.44.72.84 1.15 1.2l-.34-.13a5.19 5.19 0 003.8 1.55h.18c.26 0 .5-.1.7-.29v.63c.07 2.22.05 4.59-.1 6.81l-.27-.13a2.34 2.34 0 00-2.5.26l-26.64 21.38s-5.8 7.93-4.99 21.61l-4.67 20.52s-5.84 17.41-1.35 29.85c4.5 12.43 7.1 19.54 7.1 19.54s1.8 14.12 4.5 15.28c2.7 1.15 3.86 1.77 3.86 1.77l.53 3.38.5.88c1.96 3.42 9.23 15.47 13.46 14.18.53 3.27.76 6.59.69 9.9l4.18 28.07s2.91 7.64 2.73 11.64c-.18 4 3.4 9.7 3.4 9.7a18.54 18.54 0 00-1.79 13.06c1.7 7.47 3.86 41.92 3.86 41.92l3.12 8.35-.09 9.79a9.35 9.35 0 01-1.93 4.36c-2.02 2.2-1.87 4.73-6.74 7.73-4.86 3-7.95 4.13-7.95 8.1 0 .55-.05 1.1-.15 1.65-.44 2.91-1.32 4.5 7.63 5.35 10.51 1 17.52-5.86 17.52-5.86s1.55-2.8 8.83-3.94c0 0 2.49-.13 2.62-2.33.05-.76.04-2.21 0-3.81-.12-3.05-.41-6.6-.8-6.78-.48-.22-1.33-3.29-1.62-4.4h2.02s1.87-14.12 0-23.27-.18-15.63-.18-15.63l-.36-24.16s-2.5-2.67-.54-7.38 0-27.98 0-27.98.73-8.35 2.79-10.3c2.06-1.96.1-12.24 0-12.78l3.68 12.34s1.6 24.51 5.03 28.95l.98 11.1s7 10.22 5.66 15.72c-1.34 5.5 1.44 25.4 1.44 25.4v20.35s-3.15 8.17 1.25 11.1l1.87-.07c-.63.58-1.1 1.45-1.83 2.2-.85.88-1.33 4.17-1.6 7-.22 2.4-.3 4.47-.3 4.47s1.88 2.99 5.4 3.2c3.52.2 15.12 9.02 15.12 9.02s11.46 0 14.43-.62l.17-.04a3.9 3.9 0 002.24-1.83c.6-1.01.78-2.21.53-3.36-.36-1.75-1.75-3.67-4.83-5.3-7.66-4.04-8.8-7.82-8.8-7.82l-5.03-7.55h.72s-.44-8 5.03-16.96l-.36-39.53s2.24-13.59-1.61-20.97c0 0-.32-7.81 2.26-10.21 2.58-2.4-3.43-26.65-3.43-26.65s-1.25-13.01-2.71-24.89c6.06 5.75 12.34-14.95 13.4-18.64h.16l-.07-.27.07-.26s-1.35-4.78-.36-3.81c.98.97 3.41-2.67 3.41-2.67s-.36-19.8 3.87-29.79c4.22-9.98-1.88-34.3-1.88-34.3zm-18.07 12.6l.03-.05c.63 12.1-.12 37.9-.12 37.9s-.83 3.32-1.72 7.21l-.63-24.52-.62-23.1 3.06 2.57zm-77.34-8.33s3.06 38.2 0 43.7c-.86 1.57-1.6 4.36-2.2 7.55-1-2.65-3.14-8.87-2.38-12.17 1-4.26-1.97-15.46-1.97-15.72 0-.26-.27-6.23 1.87-10.79 2.13-4.56.73-6.54.73-6.54s1.8-7.47 3.95-6.03z" fill="url(#paint0_linear)"/><path d="M271.87 277.43c-2.66 11.7-13.24-5.99-15.65-10.23l-.49-.88 1.15-5.38 6.06-2.5c.96.5 1.88 1.1 2.72 1.78 3.32 2.6 8.26 8.15 6.21 17.2zM353.96 258.3s0 .08-.07.25c0 .08-.05.18-.08.28-1.04 3.66-7.21 24.21-13.17 18.5-6.51-6.23-3.35-20.63-3.35-20.63h.04l13.71-1.4 2.72 2.79.2.2z" fill="#D38884"/><path d="M346.03 359.46l.35 39.25c-5.38 8.92-4.94 16.83-4.94 16.83l-17.72.7c-4.33-2.91-1.25-11.02-1.25-11.02v-20.21s-2.73-19.75-1.41-25.22c1.32-5.47-5.55-15.58-5.55-15.58l-.98-11.02c-3.35-4.4-4.94-28.74-4.94-28.74l-3.6-12.3c.1.54 1.98 10.8 0 12.68-1.96 1.9-2.73 10.23-2.73 10.23s1.94 23.1 0 27.77c-1.94 4.67.53 7.32.53 7.32l.35 23.99s-1.68 6.44.17 15.51c1.86 9.08 0 23.11 0 23.11h-19l.08-9.79-3.08-8.29s-2.12-34.2-3.8-41.62c-1-4.39-.37-9 1.76-12.96 0 0-3.52-5.64-3.34-9.6.17-3.98-2.72-11.55-2.72-11.55l-4.1-27.86a54.12 54.12 0 00-2.03-15.87 662.26 662.26 0 00-5.9-18.34l3.97.35 20.1 1.8s48.84-3.3 51.03-.56c.46.89.77 1.85.92 2.84 2.2 9.86 5.1 40.72 5.1 40.72s5.9 24.07 3.36 26.45c-2.53 2.38-2.22 10.13-2.22 10.13 3.8 7.32 1.59 20.85 1.59 20.85z" fill="#444053"/><path d="M304.73 427.65c-.13 2.18-2.57 2.31-2.57 2.31-7.14 1.13-8.66 3.9-8.66 3.9s-6.86 6.82-17.2 5.82c-8.78-.84-7.93-2.4-7.47-5.3.09-.54.13-1.09.14-1.64 0-3.97 3.04-5.1 7.8-8.1s4.63-5.49 6.61-7.67c1.99-2.18 2.2-6.41 2.2-6.41 2.23-3.9 7.92.62 7.92.62.27 1.39 8.73 1.2 8.73 1.2s1.12 4.5 1.7 4.75c.38.18.67 3.7.78 6.73.06 1.6.07 3.03.02 3.79z" fill="#B07473"/><path opacity=".1" d="M304.73 427.65c-.13 2.18-2.57 2.31-2.57 2.31-7.14 1.13-8.66 3.9-8.66 3.9s-6.86 6.82-17.2 5.82c-8.78-.84-7.93-2.4-7.47-5.3 3.92.97 11.43 2.33 15.8-.05 6.1-3.3 10.46-5.61 10.46-5.61l9.62-4.84c.06 1.57.07 3.01.02 3.77z" fill="#000"/><path d="M358.55 439.42a3.8 3.8 0 01-2.2 1.81l-.16.04c-2.91.63-14.16.63-14.16.63s-11.37-8.8-14.8-9c-3.45-.2-5.3-3.17-5.3-3.17s.07-2.05.29-4.43c.26-2.81.73-6.08 1.56-6.94 1.52-1.6 1.87-3.74 5.3-2.38 0 0 4.88-8.62 10.63-1.96l5.96 9.03s1.12 3.74 8.67 7.8c3.02 1.62 4.36 3.53 4.74 5.26.24 1.13.05 2.31-.53 3.3z" fill="#B07473"/><path opacity=".1" d="M358.55 439.42c-.67.56-1.41 1.18-2.2 1.81l-.16.04c-2.91.63-14.16.63-14.16.63s-11.37-8.8-14.8-9c-3.45-.2-5.3-3.17-5.3-3.17s.07-2.05.29-4.43c3.5 1.05 8.8 2.9 10.22 4.9 2.18 3.03 8.8 7.27 8.8 7.27s12.36-1.2 17.84-1.36c.24 1.13.05 2.31-.53 3.3z" fill="#000"/><path d="M310.49 131.72l-16.26 17.2s-19.71-1.46-16.27-7.28c1.75-2.96 2.02-9.17 1.87-14.57-.15-5.2-.68-9.63-.68-9.63s27.64-13.76 25.54-.93a21.1 21.1 0 00-.07 7.32c1.18 6.48 5.87 7.9 5.87 7.9z" fill="#D38884"/><path opacity=".1" d="M304.67 116.51c-.45 2.42-.48 4.9-.07 7.32a20.28 20.28 0 01-14.47 6.04c-3.74 0-7.79-3.07-10.8-4.85-.15-5.2-.18-7.58-.18-7.58s27.64-13.76 25.52-.93z" fill="#000"/><path d="M310.49 108.44a20.38 20.38 0 11-40.76 0 20.38 20.38 0 0140.76 0z" fill="#D38884"/><path opacity=".1" d="M338.2 261.31c-5.07 12.07-37.7 12.32-37.7 12.32v-13.16l-1.98-.13c.86 3.77-1.2 12.96-1.2 12.96-25.78 3.64-32.06-11.05-32.06-11.05l.9-5.03 20.08 1.79s48.85-3.29 51.04-.56c.46.9.77 1.87.92 2.86z" fill="#000"/><path d="M300.5 272.04v-13.16l-1.98-.12c.86 3.74-1.2 12.96-1.2 12.96-19.4 2.74-27.76-4.9-30.7-8.85-.54-.69-.99-1.42-1.36-2.2l7.87-44.3 1.87-65.2 2.82-11.45.66-5.49v-.06h.07l2 .86 12.01 5.2 13.64-10.3.2-.15.68-.52 1.13.9 2.8 2.25 9 58.07s15.57 44.71 18.49 62.76c.12.72.21 1.4.29 2.02 1.92 16.48-38.29 16.78-38.29 16.78z" fill="#E95C6D"/><path d="M294.02 142.66a1.16 1.16 0 100-2.31 1.16 1.16 0 000 2.31zM294.56 153.24a1.16 1.16 0 100-2.31 1.16 1.16 0 000 2.31zM295.71 170.37a1.16 1.16 0 100-2.31 1.16 1.16 0 000 2.31zM297.63 188.82a1.16 1.16 0 100-2.31 1.16 1.16 0 000 2.31zM298.79 206.15a1.16 1.16 0 100-2.32 1.16 1.16 0 000 2.32zM299.95 224.6a1.16 1.16 0 100-2.32 1.16 1.16 0 000 2.32zM299.49 242.85a1.16 1.16 0 100-2.32 1.16 1.16 0 000 2.32z" fill="#67647E"/><path opacity=".1" d="M279.25 222.81s-1.3 16.97-3.67 21.9c-2.38 4.94-3.44 18.78-3.44 18.78l-5.53-.62c-.53-.68-.99-1.41-1.36-2.2l7.88-44.3 1.87-65.2 2.82-11.45.66-5.49.07-.03a2.22 2.22 0 011.97.03l.27.14a14 14 0 00-.23.7c-2.16 6.74-2.96 19.18-2.96 19.18s3.12 22.75 3.44 33.33c.32 10.58-1.79 35.23-1.79 35.23z" fill="#000"/><path opacity=".1" d="M265.66 260.24c-.06.14-.13.27-.21.4-2.14 3.63-7.58 5.93-9.23 6.56l-.49-.88 1.15-5.38 6.06-2.5c.97.51 1.88 1.11 2.72 1.8z" fill="#000"/><path d="M250.97 173.65l-5.02 3-4.58 20.36s-5.74 17.28-1.33 29.63c4.4 12.34 6.97 19.4 6.97 19.4s1.76 14.03 4.4 15.17c2.66 1.15 3.8 1.77 3.8 1.77l.53 3.35s7.17-2.44 9.71-6.73c2.54-4.3-1.87-14.96-1.87-14.96s-3.79-9.08-2.82-13.31c.98-4.23-1.94-15.34-1.94-15.58 0-.24-.26-6.18 1.87-10.72 2.13-4.54.7-6.48.7-6.48l-1.32-12.96-9.1-11.94z" fill="#67647E"/><path opacity=".1" d="M338.62 257.5s-13.32 5.02-17.55.62c-4.23-4.4-3.8-25.04-3.8-25.04s-4.04-38.1-6.6-44.35c-2.57-6.25-1.25-51.4-1.25-51.4s-1.72-5.84-3.22-7.37c-.1-.1-.2-.19-.32-.26l.52.12 1.8.38 2.8 2.25 9 58.07s15.58 44.71 18.5 62.76l.12 4.22z" fill="#000"/><path opacity=".1" d="M353.96 258.82h-.15c-1.68.22-16.47 2-16.53-1.07 0-.36.01-.71.05-1.07l13.71-1.4 2.72 2.8.12.46.08.28z" fill="#000"/><path d="M339.76 153.24l9.73 5.08s8.1 20.97 9.4 29.96c0 0 6 24.1 1.86 34-4.13 9.9-3.79 29.57-3.79 29.57s-2.38 3.62-3.35 2.65c-.97-.96.35 3.8.35 3.8s-16.61 2.2-16.68-1.07c-.07-3.26 3.81-18.87 3.81-18.87s1.06-37.12-.44-42.94-.89-42.18-.89-42.18z" fill="#67647E"/><path opacity=".1" d="M310.76 192.78s-5.47 13.4-7.24 14.28c-1.76.89.36 4.41.36 4.41s9.96-13.93 6.88-18.69zM307.5 145.78c.06-.25-6.53 6.47-8.3 7.48-1.76 1.02 6.44-.06 8.3-7.47zM289.15 191.72s-10.05 6.5-8.72 9.07c1.33 2.58 8.72-9.07 8.72-9.07zM307.4 286.6s8.56 5.5 21.87 6.85l-21.87-6.86zM286.86 299.82s7.93 9.97 11.55 10.23c3.62.25-11.55-10.23-11.55-10.23zM297.97 338.9c-.35.17-4.5 8.99-8.72 9.25-4.23.27 8.72-9.26 8.72-9.26zM334.74 358.21s7.86-1.76 9.61 3.88c0-.02-.53-1.78-9.61-3.88zM329.44 390.46s9.53-1.94 11.56.7c2.02 2.66-11.56-.7-11.56-.7zM302.5 394.98c0 .08-9.7 1.94-9.35 3.17.35 1.24 10.34 1.06 10.7-.88a1.86 1.86 0 00-1.36-2.3zM326.27 403.34s15.94-1.95 14.96 1.4c-.98 3.36-14.96-1.4-14.96-1.4zM242.86 207.06c.09.27 10.5 1.68 11.9 5.03 0 0-10.22-4.76-11.84-4.76M257.5 234.3s-8.64 2.74-8.03 6.86c.62 4.12-.88-1.9 8.03-6.85zM253.47 255.3s3.15-4.32 6.15-3.53c3 .79-6.15 3.52-6.15 3.52zM302.82 92.53c-.3.29-.64.54-1 .75-2.5 1.45-3.18 3.69-4.37 6.27-1.1 2.36-2.31 4.86-4.54 6.2-2.87 1.73-6.65 1.1-9.64 2.6a7.48 7.48 0 00-3.99 7.38c.2 1.14.48 2.27.85 3.37a24.1 24.1 0 01.91 7.56 20.37 20.37 0 1121.81-34.13h-.03z" fill="#000"/><path d="M302.3 86.4c-2.24-4.7-7.1-7.68-12.11-9.13-3.82-1.1-7.97-1.47-11.76-.25-2.16.68-4.13 1.87-6.15 2.88-3.78 1.9-7.93 3.42-10.77 6.55-.66.73-1.25 1.66-1.08 2.63.15.72.7 1.25 1.07 1.9.81 1.44.62 3.24.06 4.8-.57 1.56-1.38 3-1.76 4.6-.39 1.6-.24 3.48.94 4.62.53.5 1.21.82 1.79 1.25.65.56 1.21 1.2 1.69 1.92l3.36 4.6a46.72 46.72 0 014.21 6.47c.84 1.67 1.49 3.45 2.6 4.94 1.13 1.5 2.87 2.69 4.73 2.52a.92.92 0 00.75-.35c.07-.15.1-.3.1-.47a23.9 23.9 0 00-.9-7.3 21.1 21.1 0 01-.85-3.38 7.5 7.5 0 014-7.38c2.98-1.5 6.76-.87 9.63-2.6 2.23-1.34 3.45-3.84 4.54-6.23 1.2-2.58 1.87-4.81 4.37-6.26 2.49-1.46 2.78-3.86 1.54-6.34z" fill="#585268"/><path opacity=".1" d="M293.17 419.31s3.12 3.98 2.3 6.24c-.8 2.26-2.3-6.24-2.3-6.24zM335.33 429.25s.69-5.32 3.46-5.37c2.77-.05 2.91-.29 5.03.53 2.12.81 4.1 2.08 3.47 2.26-.63.2-3.64-3.04-6.73-1.38a22.23 22.23 0 00-5.23 3.96zM283.88 146.9l8.72-6.12s-12.76-7.54-14.28-6.48c-1.52 1.06-2.57 10.6-2.57 10.6l8.13 2z" fill="#000"/><path d="M283.84 146.5l8.72-6.23s-12.76-7.54-14.28-6.48c-1.52 1.06-2.57 11.12-2.57 11.12l8.13 1.6z" fill="#E1E7EF"/><path d="M283.84 146.5l8.72-6.23s-12.76-7.54-14.28-6.48c-1.52 1.06-2.57 11.12-2.57 11.12l8.13 1.6z" fill="#E95C6D"/><path d="M279.73 133.84l-.27-.13a2.27 2.27 0 00-2.44.25l-26.18 21.23s-5.69 7.88-4.9 21.45l15.44 21.87s1.76-7.4 3.88-6c0 0 3 37.92 0 43.39-3 5.46-4.32 25.92-4.32 25.92l10.14 1.14s1.06-13.84 3.44-18.78c2.38-4.93 3.67-21.9 3.67-21.9s2.15-24.65 1.8-35.23c-.36-10.58-3.45-33.33-3.45-33.33s.87-13.34 3.19-19.88z" fill="#67647E"/><path opacity=".1" d="M305.8 143.03l-10.88-4.02s13.85-15.17 15.58-6.76l-4.7 10.78z" fill="#000"/><path d="M305.8 142.5l-10.88-4.02s13.85-15.17 15.58-6.76l-4.7 10.78z" fill="#E1E7EF"/><path d="M305.8 142.5l-10.88-4.02s13.85-15.17 15.58-6.76l-4.7 10.78z" fill="#E95C6D"/><path opacity=".1" d="M305.44 129.6c.16-.03.32 0 .45.1l-.45-.1z" fill="#000"/><path d="M306.49 128.54l28.85 6.24s7.94 1.76 13.67 21.69c5.73 19.92-7.85 44.34-7.85 44.34l-3-2.55 1.5 58.2s-13.31 5.02-17.54.62c-4.23-4.4-3.8-25.07-3.8-25.07s-4.05-38.08-6.6-44.34c-2.57-6.27-1.26-51.4-1.26-51.4s-2.35-8.08-3.97-7.73z" fill="#67647E"/><path opacity=".1" d="M332.88 165.63c-.4.37-.87 17.98.89 31.38a171.06 171.06 0 004.99 24.16l-2.62-53.7s-2.02-3-3.25-1.84zM329.36 150.46c.7.44 3.8 7.76 2.38 10.75-1.42 3-2.38-10.75-2.38-10.75zM302.13 86.4a15.92 15.92 0 00-6.35-6.65 15.08 15.08 0 014.76 5.61c1.24 2.5.88 4.99-1.55 6.35-2.42 1.36-3.18 3.69-4.36 6.27-1.1 2.36-2.32 4.86-4.55 6.23-2.86 1.73-6.65 1.1-9.64 2.6a7.53 7.53 0 00-3.99 7.38c.2 1.14.48 2.27.86 3.37.68 2.38.98 4.86.9 7.33a1 1 0 01-.1.47.88.88 0 01-.73.35c-.75.06-1.5-.08-2.18-.4a5.05 5.05 0 004.07 1.44.74.74 0 00.5-.8c.09-2.48-.22-4.95-.9-7.33-.38-1.1-.66-2.23-.85-3.38a7.51 7.51 0 013.99-7.37c2.99-1.51 6.77-.87 9.64-2.6 2.23-1.35 3.44-3.84 4.54-6.23 1.2-2.58 1.87-4.82 4.36-6.27 2.5-1.45 2.82-3.9 1.58-6.38z" fill="#000"/><path d="M479.64 164.65c-8.59-.17-16.16-6.23-20.46-13.64a13.72 13.72 0 01-2.07-5.84c.03-.47.11-.94.24-1.4.26-.7.47-1.4.62-2.14.04-.28.04-.58 0-.87v-.05c.2-1.57-.72-3.11-1.87-4.2-1.14-1.07-2.58-1.86-3.78-2.93-3.69-3.24-4.81-8.44-4.88-13.39v-.26c.05-2.12.21-4.24.2-6.36.02-1.2-.03-2.4-.16-3.6-.36-3-1.5-6.05-3.85-7.97-6.15-4.98-16.48.21-22.84-4.5-1.55-1.15-2.8-2.86-4.67-3.3-1.42-.35-2.89.11-4.27.58-4.69 1.54-9.92 3.57-11.75 8.1-1.05 2.6-.75 5.56-1.71 8.2-.63 1.75-1.81 3.27-2.68 4.94a7.75 7.75 0 00-1 4.13c-.07.75.03 1.5.3 2.2.33.84.86 1.6 1.53 2.19-.24.52-.55 1-.9 1.45-1.2 1.47-3.04 2.5-4.29 3.95-2.3 2.68-2.22 6.31-1.08 9.45 1.13 3.14 3.18 6 4.6 9.06.62 1.33 1.1 2.81.46 4.13-.44.92-1.35 1.62-2.06 2.4a7.56 7.56 0 00-1.87 4.18c-14.03 3.2-14.04 14.48-14.04 14.48l-7.58 19.06s-1.21 3.2-2.64 7.44l-8.97-1.6 6.23 10.43c-1.17 4.24-2.01 8.18-1.74 10.16 0 0-2.78 13.09 2.17 15.38l10.93 4.91c.48.3.99.52 1.52.68l.44.2a1.18 1.18 0 001.02 0h.15c.21.02.43-.02.62-.1.25-.12.44-.33.55-.58v-.07l3.27-.94 2.78 3.28c1.24.88 2.49 1.64 3.67 2.33l-4.3 42.63s-.69 56.7-2.78 69.63c-.77 4.78-.78 8.05-.49 10.27l-.08.13c.52 3.65 1.87 4.37 1.87 4.37v-.05a.4.4 0 00.08.05 36.76 36.76 0 012.25-4.81v.93c-.05 4.81-.2 11.55-.7 15.93-.84 7.48 2.17 32.12 2.17 32.12l1.04 22.43c.17 3.81-.71 7.6-2.55 10.93-2.5 4.48-5.68 10.79-5.91 13.59v.45l-5.35 6.43s-2.08 3.23 2.63 4.53c2.54.7 6.91 0 10.43-.83a6.96 6.96 0 005.4-6.77 23.98 23.98 0 014.41-8.47l.88 5.16 5.88 1.46.76-14.16c.3-.8.44-1.64.4-2.49 1.16-10.07-2.73-9.17-2.73-9.17.1.1.17.22.19.35l-.19-.34c-2.38-4.71-1.24-12.46-1.24-12.46s3.11-22.44 4.18-28.36c.77-4.19.45-17.9.2-25.55 0-.32 0-.62-.04-.93 9.12-.12 20.3-.42 28.15-1.18v.92l-1.45 53c-.1 3.38-.78 6.71-2.03 9.86 0 .06-.04.11-.07.18a43.02 43.02 0 00-2.87 13.89l-.67 16.82v.47c-1.18.45-3.03 1.75-3.08 5.52-.08 5.54 9.68 3.7 9.68 3.7 9.74 0 9.82-10.15 9.82-10.15s.3-9.3.77-15.53c.47-6.22-1.47-4.85-1.47-4.85l-.15 17.7v.14-15.52l.15-2.25v-.54l1.23-18.26s8.98-30.44 10.37-36.28c1-4.15.58-16.65.26-23.56 0-.32 0-.62-.05-.91 2.78-.25 5.24-.28 6.23-.28h.45s-.46-48.88-1.62-67.3c-1.17-18.42-3.02-35.27-7.66-40.34-2.8-3.07-6.71-12.54-9.35-19.55a97.84 97.84 0 0017.18 5.61c14.7 3.08 12.69-9.68 12.69-9.68l-1.5-24.13h.1c-.05-6.33-.59-12.63-1.61-18.87-.78-4.79-1.97-9.74-3.8-13.71 1.6-.63 3.18-1.3 4.73-1.98 3.99-1.76 8.49-4.26 9.06-8.56h-.2c.09-.32.14-.63.16-.95zm-91.12 34.9c.03 2.49-.06 6.81-.21 11.59l-4.67-6.23 4.68-7.6.2 2.23zM453 221.62l-7.78-2.5a34.9 34.9 0 014.8-5.94l.68-.62-.24.05.37-.35.23-.05-.36.35.42-.1a13.28 13.28 0 002.65 5.34c2.8 3.04-.76 3.82-.76 3.82H453z" fill="url(#paint1_linear)"/><path d="M405.76 445.95l-.91 17.25-5.8-1.46-1.22-7.17 7.93-8.62z" fill="#A27772"/><path opacity=".1" d="M405.76 445.95l-.91 17.25-5.8-1.46-1.22-7.17 7.93-8.62z" fill="#000"/><path d="M427.05 465.48l8.85 1.83 6.56-5.79v-16.33l.15-2.23v-.54l1.22-18.16s8.86-30.21 10.24-36.01c.97-4.12.56-16.53.24-23.39-.13-2.81-.25-4.7-.25-4.7l-19.53-4.72-.41 15.01-1.43 52.62c-.1 3.36-.77 6.67-2 9.8l-.07.17a42.8 42.8 0 00-2.83 13.79l-.66 16.73v.46l-.08 1.46z" fill="#CC818C"/><path opacity=".1" d="M427.05 465.48l8.85 1.83 6.56-5.79v-1.39a1.88 1.88 0 01-.94 1.5l-.1.05a17.63 17.63 0 01-9.92 1.96l-3.46-.29c-.31.03-.62.1-.91.23v.46l-.08 1.44z" fill="#000"/><path d="M441.43 462.14l.1-.05a1.87 1.87 0 00.95-1.62l.14-17.58s1.9-1.37 1.44 4.81a462.8 462.8 0 00-.76 15.42s-.07 10.07-9.69 10.07c0 0-9.61 1.83-9.54-3.66.08-5.5 3.97-5.72 3.97-5.72l3.46.3c3.43.33 6.88-.36 9.93-1.97z" fill="#B07473"/><path d="M380.97 461.74c.22 3.97 11.9 1.68 11.9 1.68l7.86-15.25s6.56-5.05 3.27-9.47c-.17-.24-.33-.5-.48-.75l-.03-.04a4.6 4.6 0 01-.2-.36c-2.35-4.67-1.19-12.33-1.19-12.33s3.05-22.29 4.12-28.16c.75-4.15.44-17.77.2-25.38-.1-3.17-.2-5.3-.2-5.3l-19.38-5.18v5.78c-.05 4.78-.2 11.46-.69 15.81-.83 7.4 2.14 31.9 2.14 31.9l1.03 22.29c.17 3.77-.69 7.52-2.5 10.84-2.43 4.45-5.6 10.72-5.82 13.5a2.7 2.7 0 00-.03.42z" fill="#CC818C"/><path opacity=".1" d="M380.97 461.74c.22 3.97 11.9 1.68 11.9 1.68l7.86-15.25s6.56-5.05 3.27-9.47c-.17-.24-.33-.5-.48-.75-.1 2.3-2.64 8.1-2.64 8.1s-6.49 12.98-8.55 15.95c-2.06 2.97-11.02-.56-11.36-.68v.42z" fill="#000"/><path d="M403.3 437.54s3.84-.9 2.7 9.1a6.44 6.44 0 01-3.04 5.71c-2.75 1.73-6.99 5.44-9.13 12.67a6.9 6.9 0 01-5.33 6.73c-3.46.8-7.78 1.52-10.28.82-4.66-1.3-2.6-4.5-2.6-4.5l5.35-6.34s9.3 3.67 11.36.69c2.06-2.98 8.55-15.95 8.55-15.95s3.56-8.1 2.42-8.93z" fill="#B07473"/><path opacity=".1" d="M434.53 357.29l-.41 15.02c5.2-.5 8.93-1.21 9.56-2.2 1.38-2.13 6.38-3.03 10.63-3.4-.13-2.81-.25-4.7-.25-4.7l-19.53-4.72zM386.84 368.8a7.13 7.13 0 012.13-2.58c2.06-1.14 1.83 7.33 1.83 7.33s6.86.06 15.61-.05c-.1-3.16-.19-5.3-.19-5.3l-19.38-5.18s.03 2.4 0 5.78z" fill="#000"/><path d="M384.62 370.81s2.3-6.23 4.37-7.34c2.06-1.1 1.83 7.32 1.83 7.32s50.36.46 52.88-3.43c2.51-3.9 17.16-3.67 17.16-3.67s-.45-48.52-1.6-66.83c-1.14-18.31-2.97-35.03-7.55-40.06-2.96-3.26-7.17-13.8-9.78-20.84a270.08 270.08 0 01-2.35-6.63l-48.07 2.74-.4 3.9-5.1 51.04s-.68 56.31-2.75 69.13c-2.06 12.82 1.36 14.67 1.36 14.67z" fill="#444053"/><g opacity=".1" fill="#000"><path opacity=".1" d="M439.78 367.36c2.5-3.89 17.17-3.67 17.17-3.67s-.45-48.52-1.6-66.83c-1.15-18.31-2.97-35.03-7.55-40.06-2.98-3.28-7.18-13.8-9.78-20.84a252.5 252.5 0 01-2.28-6.42l3.74-.21s.94 2.8 2.36 6.63c2.6 7.03 6.81 17.58 9.77 20.84 4.58 5.03 6.41 21.74 7.55 40.06 1.14 18.31 1.61 66.83 1.61 66.83s-14.65-.22-17.17 3.67c-2.15 3.32-39.21 3.48-49.97 3.44 13.8-.03 44.2-.44 46.15-3.44zM385.07 363.47c.93-.52 1.4.92 1.62 2.65a36 36 0 00-2.16 4.7s-1.33-.73-1.87-4.37c.76-1.3 1.6-2.53 2.41-2.98z"/></g><path d="M399.48 111.91c-3.33 4.54.04 10.99-3.53 15.4-1.18 1.46-3 2.5-4.22 3.93-2.28 2.65-2.19 6.26-1.08 9.37 1.12 3.12 3.12 5.96 4.54 9 .63 1.32 1.09 2.8.46 4.1-.43.91-1.34 1.6-2.04 2.39-2.3 2.56-2.36 6.12-1.12 9.13 1.23 3.02 3.59 5.61 5.91 8.17.92 1 2.08 2.1 3.6 2.08.8-.06 1.58-.32 2.26-.74a23.05 23.05 0 0010.5-30.1c-1.93-4.63-5.15-9.06-5.19-13.95 0-3.88 2-7.6 2.35-11.46.43-4.7-2.35-12.15-8.02-14.2.38 3.01-2.73 4.55-4.42 6.88z" fill="#585268"/><path opacity=".1" d="M399.48 111.91c-3.33 4.54.04 10.99-3.53 15.4-1.18 1.46-3 2.5-4.22 3.93-2.28 2.65-2.19 6.26-1.08 9.37 1.12 3.12 3.12 5.96 4.54 9 .63 1.32 1.09 2.8.46 4.1-.43.91-1.34 1.6-2.04 2.39-2.3 2.56-2.36 6.12-1.12 9.13 1.23 3.02 3.59 5.61 5.91 8.17.92 1 2.08 2.1 3.6 2.08.8-.06 1.58-.32 2.26-.74a23.05 23.05 0 0010.5-30.1c-1.93-4.63-5.15-9.06-5.19-13.95 0-3.88 2-7.6 2.35-11.46.43-4.7-2.35-12.15-8.02-14.2.38 3.01-2.73 4.55-4.42 6.88zM436.38 276.92c-6.66.35-12.93 3.22-18.76 6.46-5.83 3.24-11.48 6.91-17.75 9.2M432.24 292.62a27.47 27.47 0 00-17.29 8.41c-1.62 1.72-3.01 3.64-4.7 5.28a20.9 20.9 0 01-9.27 5.25M433.6 304.57a30.23 30.23 0 00-13.9 8.38c-1.02 1.1-1.95 2.28-2.97 3.39-5.52 5.92-13.3 9.06-20.83 12.03" fill="#000"/><path d="M433.04 138.9c.15 5.33.6 10.64 1.37 15.9.63 3.75 1.5 7.11 2.75 8.6 3.66 4.36-17.85 10.19-17.85 10.19l-12.7-9.85s10.06-9.27 5.37-18.31c-4.7-9.04 21.06-6.52 21.06-6.52z" fill="#CC818C"/><path opacity=".1" d="M391.1 235.97h50.82c-1.41-3.84-2.36-6.64-2.36-6.64l-48.06 2.74-.4 3.9z" fill="#000"/><path d="M387.83 235.05h54.33c-1.52-5.47 0-10.52 2.18-14.4a31.88 31.88 0 015.69-7.39l.37-.34 18.97-4.2 1.02-.22s.16-34.5-12.06-39.23c-12.21-4.73-19.53-11.13-19.53-11.13l-16.78 5.18-12.37-6.23c-3.96 4.27-14.5 2.6-14.5 2.6-17.24 1.97-17.24 14.95-17.24 14.95s10.07 23.5 10.84 23.5c.76 0-.92 36.9-.92 36.9z" fill="#E95C6D"/><path opacity=".1" d="M406.59 213.12s-11.08-2.45-14.85-6.75l14.85 6.75zM462.45 200.25l-12.85 10.53c.1.84.24 1.68.43 2.5l.37-.35 18.97-4.2-6.92-8.48zM427.66 231.38s2.81 1.59 7.12 3.67h7.38c-1.52-5.47 0-10.52 2.18-14.4l-13.02-4.22c4.43 4.12-3.66 14.95-3.66 14.95z" fill="#000"/><path d="M385.54 170.5l-7.63 4.12-7.48 18.92s-7.78 20.75-7.02 26.25c0 0-2.74 12.97 2.14 15.26l12.71 5.76a1.18 1.18 0 001.34-.28 1.18 1.18 0 00.19-1.36c-1.81-3.43-3.8-8.8-.63-11.75l-3.66-7.63 13.24-21.67 4.43-7.48-7.63-20.14z" fill="#E95C6D"/><path opacity=".1" d="M402.5 208.79c.67 2.7 2.9 6.86 10.28 8.4l8.1 6.64 8.62 3.91 3.52 1.59 1.49-10.76-3.39-1.87-3.94-2.16s-8.9-16.12-22.99-9.34a3.11 3.11 0 00-1.68 3.59z" fill="#000"/><path d="M402.97 207.87c.66 2.7 2.88 6.86 10.27 8.41l8.1 6.64 8.62 3.9 3.51 1.6 1.49-10.77-3.38-1.87-3.92-2.14s-8.9-16.12-22.99-9.31a3.11 3.11 0 00-1.7 3.54z" fill="#CC818C"/><path opacity=".1" d="M418.85 152.86a19.68 19.68 0 100-39.37 19.68 19.68 0 000 39.37z" fill="#000"/><path d="M418.85 152.4a19.68 19.68 0 100-39.36 19.68 19.68 0 000 39.37z" fill="#CC818C"/><path opacity=".1" d="M431.04 174.79l-5.92-11.5s8.66-3.5 9.3-7.57c.62-4.05 8.3 4.76 6.63 7.68-1.65 2.92-10 11.39-10 11.39z" fill="#000"/><path d="M431.04 173.87l-5.92-11.5s8.66-3.5 9.3-7.56c.62-4.06 8.3 4.76 6.63 7.68-1.65 2.91-10 11.38-10 11.38z" fill="#E95C6D"/><path d="M382.6 203.59l32.7 43.97s-12.06 6.56-28.66-5.18l-7.18-8.55L359 199.3l23.6 4.28z" fill="#F6F8FB"/><path d="M376.15 227.5l2.98-.08s18.2-17.66 22.67-8.73c4.46 8.94-11.34 17.29-11.34 17.29l-4.8 2.59-6.26 1.87-4.01-5.38.76-7.56z" fill="#CC818C"/><path opacity=".1" d="M380.55 237.04c.27 1.01.53 2.13.07 3.08-.1.25-.3.45-.54.59-.2.07-.41.1-.62.08a6.27 6.27 0 01-4.1-2.03 18.74 18.74 0 01-2.67-3.85c-.8-1.41-1.65-2.98-1.36-4.58.32-1.76 1.87-2.97 3.38-3.96 3.02-1.99 3.12.34 3.78 2.9.66 2.57 1.37 5.17 2.06 7.77z" fill="#000"/><path d="M380.1 237.04c.26 1.01.53 2.13.07 3.08-.11.25-.3.45-.54.59-.2.07-.42.1-.63.08a6.23 6.23 0 01-4.1-2.03 18.58 18.58 0 01-2.67-3.85c-.81-1.41-1.65-2.98-1.36-4.58.32-1.76 1.87-2.97 3.38-3.96 3.02-1.99 3.11.34 3.78 2.9.67 2.57 1.37 5.17 2.06 7.77z" fill="#E95C6D"/><path opacity=".1" d="M388.75 198.12l1.52-2.58-1.33 4.78-.2-2.2zM429.99 226.82l3.5 1.6 1.5-10.77-3.39-1.87c2.34 2.68.3 7.63-1.61 11.04zM444.07 214.33s-11.33.7-16.14-2.4l16.14 2.4z" fill="#000"/><g opacity=".1" fill="#000"><path opacity=".1" d="M442.66 221.56a31.93 31.93 0 015.7-7.39c.53-.33 1.09-.64 1.67-.9l17.66-3.63 1.02-.23s.16-34.49-12.05-39.22a73.3 73.3 0 01-19.05-10.73l1.34-.4s7.33 6.4 19.54 11.13c12.21 4.73 12.05 39.22 12.05 39.22h-1.83l-18.07 3.46s-.78.76-1.02.97a35.02 35.02 0 00-5.77 7.64 19.16 19.16 0 00-1.52 14.49h-1.87c-1.5-5.47.05-10.52 2.2-14.41zM394.43 160.68c.3-.05.57-.09.88-.12 1.24.18 2.49.28 3.74.3a33.9 33.9 0 01-4.62-.18zM420.33 164.24l-11.17-5.66c.22-.18.43-.38.62-.6l11.66 5.9-1.1.36z"/></g><path d="M462.9 199.31l7.47 9.16 1.53 24.88s1.98 12.66-12.51 9.6c-14.5-3.05-31.27-12.48-31.27-12.48s8.1-10.84 3.66-14.96l20.76 6.72s3.5-.76.76-3.81c-2.75-3.05-3.24-8.55-3.24-8.55l12.83-10.56z" fill="#E95C6D"/><path opacity=".1" d="M466.27 225.59l4.12 4.73a5.93 5.93 0 01-4.12-4.73zM459.25 224.82l6.41 8.24-3.2.77-3.21-9zM395.33 123.69c-.7-1.73-.16-3.74.7-5.37.84-1.62 2-3.16 2.64-4.91.94-2.6.65-5.55 1.68-8.1 1.81-4.52 6.97-6.54 11.58-8.1 1.37-.46 2.82-.91 4.22-.58 1.87.45 3.08 2.14 4.6 3.28 6.28 4.67 16.47-.47 22.54 4.48 2.31 1.86 3.44 4.92 3.79 7.9.35 2.97 0 5.98-.04 8.98-.1 5.25.89 10.99 4.81 14.46 1.19 1.05 2.58 1.84 3.74 2.92 1.16 1.09 2.07 2.6 1.87 4.17-.15.72-.36 1.43-.62 2.12-.78 2.73.39 5.6 1.8 8.1 4.24 7.33 11.71 13.38 20.18 13.55-.56 4.27-4.98 6.75-8.94 8.5-4.99 2.24-10.3 4.43-15.78 4.15-5.5-.28-11.22-3.8-12.18-9.2-.33-1.87-.29-4.12-1.87-5.1-.97-.59-2.23-.44-3.28-.88-1.51-.62-2.26-2.32-2.76-3.89a35.02 35.02 0 01-1.62-9.97c-.07-4.01.46-8.39-1.82-11.7-2.1-3.05-5.84-4.6-8.27-7.41-2.25-2.6-4.68-5.75-8.36-6.24-5.08-.71-15.6 6.2-18.6-1.16z" fill="#000"/><path d="M395.33 122.77c-.7-1.72-.16-3.74.7-5.36.84-1.63 2-3.17 2.64-4.92.94-2.6.65-5.55 1.68-8.1 1.81-4.52 6.97-6.54 11.58-8.1 1.37-.45 2.82-.91 4.22-.57 1.87.44 3.08 2.13 4.6 3.27 6.28 4.68 16.47-.47 22.54 4.48 2.31 1.87 3.44 4.93 3.79 7.9.35 2.98 0 5.99-.04 8.98-.1 5.25.89 11 4.81 14.47 1.19 1.05 2.58 1.83 3.74 2.92 1.16 1.08 2.07 2.6 1.87 4.16-.15.72-.36 1.43-.62 2.12-.78 2.74.39 5.61 1.8 8.1 4.25 7.31 11.7 13.38 20.16 13.54-.56 4.28-4.98 6.76-8.94 8.52-4.98 2.23-10.3 4.42-15.78 4.14-5.5-.28-11.22-3.8-12.18-9.2-.33-1.87-.28-4.12-1.87-5.1-.97-.59-2.23-.44-3.27-.88-1.52-.62-2.27-2.32-2.77-3.89a34.93 34.93 0 01-1.62-9.97c-.07-4.01.46-8.4-1.81-11.7-2.11-3.06-5.85-4.6-8.28-7.42-2.24-2.6-4.68-5.74-8.36-6.23-5.06-.7-15.58 6.22-18.59-1.16z" fill="#585268"/><path opacity=".1" d="M409.3 173.36l11.3-9.16s-7.74-4.19-8.66-7.76c-.92-3.57-7.1 1.7-6.47 4.9.63 3.2 3.84 12.02 3.84 12.02z" fill="#000"/><path d="M409.75 171.98l11.28-9.15s-7.72-4.19-8.6-7.76c-.9-3.57-7.11 1.7-6.48 4.9.63 3.2 3.8 12.01 3.8 12.01z" fill="#E95C6D"/><path opacity=".1" d="M421.48 171.39a.9.9 0 100-1.8.9.9 0 000 1.8zM421.48 176.38a.9.9 0 100-1.8.9.9 0 000 1.8zM421.48 181.35a.9.9 0 100-1.8.9.9 0 000 1.8z" fill="#000"/><g opacity=".1" fill="#000"><path opacity=".1" d="M399.89 110.05c.9-2.45.7-5.2 1.53-7.67-.38.55-.7 1.14-.95 1.76-1.04 2.58-.74 5.52-1.69 8.1l-.06.15c.46-.74.85-1.53 1.17-2.34zM471.08 171.73c-4.98 2.23-10.3 4.43-15.78 4.15-5.5-.28-11.22-3.8-12.18-9.2-.33-1.87-.28-4.13-1.87-5.1-.97-.59-2.23-.44-3.27-.88-1.52-.63-2.27-2.33-2.76-3.9a34.98 34.98 0 01-1.63-9.96c-.07-4 .47-8.39-1.8-11.7-2.12-3.06-5.86-4.6-8.29-7.42-2.24-2.6-4.68-5.75-8.36-6.23-5.04-.69-15.57 6.23-18.55-1.13a5.79 5.79 0 01.2-4.26c-.23.37-.44.73-.63 1.1-.85 1.67-1.39 3.65-.68 5.38 3 7.35 13.51.44 18.56 1.13 3.67.5 6.1 3.65 8.35 6.23 2.43 2.82 6.17 4.37 8.28 7.43 2.28 3.3 1.74 7.69 1.81 11.7.06 3.38.6 6.74 1.63 9.96.5 1.57 1.24 3.26 2.76 3.9 1.04.43 2.3.3 3.27.88 1.61.97 1.57 3.24 1.87 5.1.98 5.4 6.7 8.91 12.18 9.2 5.48.27 10.77-1.92 15.78-4.15 3.62-1.61 7.64-3.84 8.73-7.48-1.74 2.37-4.8 4-7.62 5.25z"/></g><path d="M581.2 206.9c-13.18-7.59-18.17-9.46-18.2-9.46l-.27-.19a10.97 10.97 0 01-3.32-4.2 8.52 8.52 0 010-.82c.2-4.01 3.07-7.67 5.78-10.86l6.93-8.16c.8-.8 1.4-1.77 1.8-2.83.13-.57.2-1.15.18-1.74v-.7c-.04-2.03-.1-4.06-.17-6.09-.06-1.77-.52-4-2.29-4.36-.92-.19-2.14.14-2.63-.63-.16-.32-.2-.7-.11-1.05v.09-.1c.34-1.37.56-2.76.65-4.17a5.67 5.67 0 00-.29-2.11c-1.02-2.94-4.55-4.15-7.67-4.7-3.13-.56-6.63-1.03-8.58-3.47-.53-.82-1.1-1.6-1.71-2.35-.9-.8-2-1.35-3.2-1.58-3.87-.95-7.95-.6-11.6 1.01-1.5.68-3.02 1.58-4.68 1.49-1.66-.1-3.2-1.3-4.89-1.59-2.74-.47-5.36 1.55-6.71 3.93a9.6 9.6 0 00-1.25 4.64v.28a6.78 6.78 0 001.78 4.73c1.19 1.25 2.94 2.07 3.44 3.68.2.66.15 1.37.33 2.03l.07.25-.09.12a20.56 20.56 0 00-.22 25.05 21.04 21.04 0 0010.64 7.56v.62c0 2.5-.71 5.1-2.86 6.98l-18.7 7.47s-11.26-1.34-15.32 15.12a28.05 28.05 0 00-.7 8.35c.15 2.5-.2 6.86-3.11 12.5-4.62 9.06-3.57 29.82 5.88 31.88 8.92 1.94 12.4 1.13 12.77 1.04v.36c-.15 3.9-1.56 37.52-6.7 41.58-1.42 1.13-1.16 1.87 0 2.4 0 0 0 .22-.03.62-.16 2.5-.95 11.84-4.36 17.15-4 6.17-3.58 41.75-3.58 41.75l-2.72 20.97s1.67 12.96 0 15.22c-1.5 2.01-3.5 49.94-3.92 60.33h-.17a5.06 5.06 0 00-4.04 2.5c-2.2 3.58-9.93 10.2-9.93 10.2-1.68 2.38-7.88 4.66-11.16 5.74a6.94 6.94 0 00-4.06 3.5 3.2 3.2 0 00-.3 2.5c.84 2.05 18.26 3.5 22.68 1.44 3.46-1.62 17.2-3.74 22.9-4.58a4.7 4.7 0 004.07-4.07 2.7 2.7 0 00-.52-2.04c-1.1-1.35-1.65-5.05-1.87-7.48.46-.19.9-.44 1.28-.76a54.74 54.74 0 013.12-22c4.2-11.1 5.46-31.67 4.41-45.04 0 0 12.8-55.1 22.89-60.25.15.2 5.04 6.48 5.67 25.91.62 19.74 7.76 32.7 7.76 32.7s-3.15 33.52 0 46.06l-4.12 19.79c-.3-.26-.5-.46-.5-.46s.13.55.3 1.43l-.09.42.18.04c.47 2.5 1.16 6.78.87 9.34-.16 1.44-.56 3.42-.84 5.36-.43 3.05-.55 6 1.05 6.65 2.63 1.06 18.07 2.49 20.69-.9a4.85 4.85 0 00.76-5.08 5.1 5.1 0 00-.76-1.3s-4.1-6.7-2.94-11.42a3.49 3.49 0 00-.5-2.7c.18-2.33 1.12-13.06 3.54-22.17 2.63-9.9 8.17-31.59 4.1-45.85a61.59 61.59 0 01-2.83-25.7 49.03 49.03 0 01-.01-20.98c2.52-11.52 4.28-22.83 4.28-22.83s1.4-15.21.18-24.54c0-.2-.06-.4-.08-.63l.66-.14s-3.57-15.84-4.83-25.91l-1.11-8.61c1.16-.2 2.3-.48 3.42-.85 11.33-3.91 14.9-39.26 14.9-39.26v-11.22s3.82-17.24-9.41-24.85zm-84.46 273.08l-.56-.29.56.3z" fill="url(#paint2_linear)"/><path d="M574.37 411c4.91 14.13-.83 37.08-3.5 47.36-2.66 10.26-3.48 22.54-3.48 22.54-10.45 1.64-18.03-.41-18.03-.41l4.3-21.1c-3.07-12.5 0-45.91 0-45.91s-6.96-12.92-7.58-32.59c-.62-19.36-5.37-25.62-5.52-25.81-9.84 5.12-22.34 60.04-22.34 60.04 1.02 13.32-.2 33.81-4.3 44.87a55.46 55.46 0 00-3.07 21.92c-1.44 1.24-3.43 1.42-5.61 1.07-5.85-.95-12.87-5.99-12.87-5.99s2.25-59.82 3.9-62.09c1.64-2.26 0-15.16 0-15.16l2.66-20.9s-.42-35.46 3.48-41.6c3.36-5.31 4.13-14.65 4.28-17.1v-.62l5.94-7.1s57.38-4.3 61.69 0c1.05 1.05 1.7 3.45 2.1 6.48 1.18 9.3-.18 24.46-.18 24.46s-1.72 11.27-4.19 22.74a49.94 49.94 0 000 20.9c-.79 8.08 0 16.23 2.32 24z" fill="#65617D"/><path d="M570.78 500.85c-2.56 3.39-17.62 1.95-20.2.9-1.56-.62-1.44-3.6-1.01-6.63.26-1.93.66-3.9.82-5.33.4-3.69-1.25-11.17-1.25-11.17s3.38 3.59 4.2 0c.36-1.57 1.62-2.38 2.92-2.78a7.65 7.65 0 015.33.33c2.66 1.16 7.1 3.62 6.3 6.95-1.13 4.7 2.87 11.38 2.87 11.38a5.16 5.16 0 011.1 3.92c-.13.9-.5 1.74-1.08 2.43z" fill="#A27772"/><path opacity=".1" d="M570.78 500.85c-2.56 3.39-17.62 1.95-20.2.9-1.56-.62-1.44-3.6-1.01-6.63 1.62.76 4.36 1.39 8.95.96 1.07-.1 2.15-.13 3.22-.1a75 75 0 009.79-.2 4.92 4.92 0 01-.75 5.07zM518.22 415.1c1.02 13.31-.22 33.8-4.3 44.86a55.45 55.45 0 00-3.08 21.92c-1.43 1.25-3.43 1.43-5.6 1.08 1.24-8.65 6.5-45.89 9.87-75.31 3.84-33.5 21.8-56.55 21.8-56.55l3.59 3.94c-9.78 5.13-22.28 60.06-22.28 60.06z" fill="#000"/><path d="M564.63 199.72l-2.5 12.3-12.25 20.59-15.11-6.46s-20.57-21.52-7.64-24.59c1.55-.33 3-.98 4.3-1.9 2.53-1.92 3.33-4.7 3.34-7.42-.1-3.05-.8-6.04-2.08-8.81l26.43-8.3a42.41 42.41 0 00-1.87 10.7c-.2 7.2 2.5 10.75 4.67 12.47.8.64 1.72 1.12 2.7 1.42z" fill="#FBBEBE"/><path opacity=".1" d="M559.1 175.13a42.41 42.41 0 00-1.88 10.7 20.92 20.92 0 01-22.44 6.4c-.1-3.04-.81-6.03-2.1-8.8l26.41-8.3z" fill="#000"/><path d="M562.13 171.75a20.91 20.91 0 11-12.9-19.34 20.82 20.82 0 0112.9 19.34z" fill="#FBBEBE"/><path opacity=".1" d="M564.63 199.72l-2.5 12.3-12.25 20.59-15.11-6.46s-20.57-21.52-7.64-24.59c1.55-.33 3-.98 4.3-1.9-2.34 6.4 7.28 19.73 7.28 19.73 1.12 1.65 3.69.62 3.69.62 6.2-.94 17.61-18.77 19.47-21.73a7.95 7.95 0 002.76 1.44zM576.46 318.91c-3.64.83-23.77 5.28-31.4 4.17-8.4-1.25-24.74-2.04-24.74-2.04s-10.4.56-13.6-.9v-.63l5.93-7.1s57.38-4.31 61.7 0c1.07 1.07 1.73 3.48 2.11 6.5z" fill="#000"/><path d="M538.7 220s-10.8-14.95-6.73-20.8l-18.26 7.47s-11-1.33-14.96 15.08a28.56 28.56 0 00-.68 8.32c.15 2.5-.19 6.86-3 12.46-4.51 9.02-3.5 29.72 5.73 31.78 9.22 2.06 12.5 1.02 12.5 1.02s-1.25 37.5-6.56 41.81c-5.31 4.3 13.58 3.28 13.58 3.28s16.33.82 24.74 2.05c8.4 1.23 31.97-4.3 31.97-4.3s-3.49-15.79-4.72-25.82c-1.23-10.04-4.1-31.43-4.1-31.43l20.9-28.31s3.68-17.12-9.23-24.7c-12.91-7.58-17.76-9.44-17.76-9.44s-12.98 21.13-19.74 22.15c.01 0-2.55 1.03-3.67-.61z" fill="#E95C6D"/><path opacity=".1" d="M514.73 225.94s-.2 6.77 1.02 9.43c1.23 2.66 5.74 17.45 5.74 17.45h-10.25s5.54-5.94 5.13-8.82a756.6 756.6 0 01-1.64-18.06z" fill="#000"/><path d="M545.06 276.97s-22.63-5.53-24.74-10.24c-2.1-4.71-7.92-15.26-7.92-15.26l2.39-3.22 11 8.64s13.09 10.45 19.27 11.48c6.18 1.03 0 8.6 0 8.6z" fill="#FBBEBE"/><path opacity=".05" d="M545.06 276.97s-22.63-5.53-24.74-10.24c-2.1-4.71-7.92-15.26-7.92-15.26l2.39-3.22 11 8.64s13.09 10.45 19.27 11.48c6.18 1.03 0 8.6 0 8.6z" fill="#000"/><path d="M564.63 250.33v12.28h-1.97a57.37 57.37 0 00-27.87 7.22l-3.7 2.05-.99.55-6.36-14.33 5.95-5.33h.3c1.46.14 7.74.67 10.41-.23 2.53-.86 5.67-3.58 13.12-1.68 3.67.94 6.81 5.05 10.37 3.77l.74-4.3z" fill="#FBBEBE"/><path opacity=".1" d="M584.4 227.98l4.1 4.6v11.18s-3.48 35.25-14.54 39.14c-11.07 3.9-30.82-2.26-30.82-2.26s-5.1-13.52-2.72-14.33c2.38-.8 21.1-5.76 21.1-5.76s-.27-20.67 3.82-26.82c0 0-2.66-19.26 6.57-19.67 9.22-.41 12.5 13.92 12.5 13.92z" fill="#000"/><path d="M585.03 227.98l4.1 4.6v11.18s-3.48 35.25-14.55 39.14c-11.07 3.9-30.82-2.26-30.82-2.26s-5.1-13.52-2.71-14.33c2.4-.8 21.1-5.76 21.1-5.76s-.28-20.67 3.82-26.82c0 0-2.66-19.26 6.56-19.67 9.22-.41 12.5 13.92 12.5 13.92z" fill="#E95C6D"/><path opacity=".1" d="M556.4 180.62a8.24 8.24 0 00-.47-4c-.58-1.24-1.93-2.18-3.25-1.87-1.75.42-2.5 2.7-4.23 3.25-1.45.46-3.03-.57-3.74-1.92-.7-1.36-.7-2.95-.7-4.47v-5.13c0-1.87-.07-3.88-1.22-5.34-1.42-1.82-4.78-2.62-7.03-2.54-1.49.01-2.92.59-4 1.61-1.2 1.02-2.6 1.77-4.23 1.5a3.64 3.64 0 01-2.94-2.54v-.06a20.9 20.9 0 1131.07 27.74c.36-2.06.6-4.14.74-6.23z" fill="#000"/><path d="M527.53 161.1a3.65 3.65 0 01-2.94-2.54c-.17-.66-.13-1.37-.32-2.02-.48-1.61-2.2-2.45-3.36-3.68-2.3-2.45-2.15-6.47-.52-9.42 1.32-2.37 3.88-4.36 6.56-3.91 1.65.29 3.11 1.46 4.77 1.58 1.66.1 3.12-.8 4.57-1.48a17.22 17.22 0 0111.35-1.01c1.16.23 2.24.78 3.12 1.58.6.75 1.15 1.53 1.66 2.33 1.9 2.43 5.33 2.91 8.38 3.46 3.04.55 6.49 1.76 7.47 4.69.67 1.94 0 4.05-.36 6.07-.12.4-.09.85.08 1.24.48.79 1.67.46 2.57.63 1.73.36 2.17 2.59 2.24 4.36.07 2.02.12 4.04.16 6.06a7.7 7.7 0 01-.18 2.24 7.93 7.93 0 01-1.74 2.83l-6.77 8.13c-3 3.6-6.18 7.8-5.6 12.46-1.43.62-3.12-.6-3.58-2.08-.46-1.49-.1-3.12.22-4.62.55-2.64.92-5.31 1.09-8a8.21 8.21 0 00-.47-4c-.58-1.24-1.93-2.18-3.25-1.86-1.76.4-2.5 2.69-4.23 3.24-1.45.46-3.03-.57-3.74-1.92-.7-1.35-.7-2.94-.7-4.46v-5.14c0-1.87-.07-3.87-1.22-5.34-1.42-1.82-4.78-2.62-7.03-2.54-1.49.02-2.92.6-4 1.61-1.2 1.03-2.6 1.79-4.23 1.52z" fill="#7C5C5C"/><path opacity=".1" d="M532.25 225.43l6.42 26.37s5.06-.03-6.42-26.37zM554.18 221.03s-8.4 13.76-5.12 27.99l1.56.11s-2.8-6.59 3.56-28.1zM559.48 298.9s10.32-3.41 11.07 4.5c.02 0-1.92-5.42-11.07-4.5zM529.69 253.4s-2.05 14.34 1.64 20.09c0 0-7.48 3.07-18.04 2.46l-1.24-22.54h17.64z" fill="#000"/><path opacity=".1" d="M531.1 271.88l-1 .55-6.36-14.33 5.95-5.33h.3c-.09.71-1.75 13.03 1.1 19.1z" fill="#000"/><path d="M529.69 252.8s-2.05 14.33 1.64 20.07c0 0-7.48 3.08-18.04 2.46l-7.17-22.53h23.57z" fill="#E95C6D"/><path d="M511.97 492.13a4.64 4.64 0 01-3.99 4.06c-5.56.83-18.96 2.95-22.35 4.56-4.3 2.05-21.3.63-22.13-1.43a3.27 3.27 0 01.3-2.5 6.57 6.57 0 013.99-3.5c3.2-1.06 9.25-3.33 10.88-5.7 0 0 7.55-6.6 9.7-10.17a4.92 4.92 0 013.94-2.46c1.8-.08 3.8.82 4.61 4.76 0 0 9.83 5.6 12.47.69 0 0 .4 7.55 2.04 9.62a2.74 2.74 0 01.54 2.07z" fill="#A27772"/><path opacity=".1" d="M511.97 492.13a4.64 4.64 0 01-3.99 4.06c-5.56.83-18.96 2.95-22.35 4.56-4.3 2.05-21.3.63-22.13-1.43a3.27 3.27 0 01.3-2.5 6.57 6.57 0 012.74-2.95c2.77 1.87 8.93 3.64 22.47 1.53 12.92-2.02 19.32-4 22.43-5.34a2.75 2.75 0 01.53 2.07z" fill="#000"/><g opacity=".1" fill="#000"><path opacity=".1" d="M567.88 157.03v-.1c.3-1.53.74-3.11.62-4.65a30.5 30.5 0 01-.62 3.74 2.3 2.3 0 000 1.01zM555.92 176.21c.33.74.5 1.54.5 2.35a7.07 7.07 0 00-.5-3.27c-.57-1.25-1.92-2.19-3.24-1.87-1.76.41-2.5 2.7-4.23 3.24-1.45.46-3.03-.57-3.74-1.92-.71-1.35-.71-2.94-.71-4.46v-5.13c0-1.87-.07-3.88-1.21-5.34-1.44-1.83-4.79-2.62-7.03-2.55-1.5.02-2.93.6-4.01 1.62-1.2 1.02-2.6 1.77-4.23 1.5a3.65 3.65 0 01-2.94-2.54c-.17-.66-.13-1.37-.32-2.03-.48-1.6-2.2-2.45-3.35-3.67a6.7 6.7 0 01-1.73-4.36 6.98 6.98 0 001.73 5.25c1.15 1.25 2.87 2.06 3.35 3.67.2.63.15 1.37.32 2.03a3.66 3.66 0 002.94 2.54c1.64.27 3.02-.48 4.23-1.5a5.97 5.97 0 014-1.62c2.25-.07 5.62.72 7.04 2.55 1.14 1.46 1.2 3.47 1.2 5.34v5.13c0 1.52 0 3.12.72 4.46.7 1.34 2.27 2.38 3.74 1.92 1.71-.55 2.49-2.83 4.23-3.24 1.32-.28 2.67.7 3.24 1.9zM572.77 170.57a7.88 7.88 0 01-1.75 2.82l-6.77 8.13c-2.84 3.42-5.85 7.39-5.6 11.75.2-4 3-7.65 5.6-10.83l6.77-8.13a7.88 7.88 0 001.75-2.81c.16-.74.23-1.5.18-2.25-.01.44-.07.89-.18 1.32zM555.12 191.9a4.8 4.8 0 01-.2-1.1c-.06.69 0 1.37.2 2.03.46 1.48 2.15 2.7 3.58 2.07-.05-.3-.07-.6-.08-.9-1.42.57-3.07-.64-3.5-2.1z"/></g><path opacity=".1" d="M487 479.32s2.15 3.74 9.91.45l-9.9-.45zM552.63 480.23s6.69 7.88 15.13 2.59l-15.13-2.59zM572.1 387.02s-4.72 2.95-4.87 4.64c-.15 1.69 2.44-1.25 2.44-1.25l2.44-3.4zM573.98 409.68a9.89 9.89 0 01-5.83 2.27c-3.54.16-3.24 4.77-.93 3.38 2.31-1.38 6.75-5.65 6.75-5.65zM574.87 412.63s-2.27 11.15-4.11 9l4.11-9z" fill="#000"/><path d="M136.67 496.19s14.24 3.9 21.1-1.3c6.85-5.2 9.82-3.52 9.82-3.52s16.35-.9 17.7-4.77c1.34-3.86-6.28-17.9-6.28-17.9-.54-1.24-1.33-2.82-1.68-2.82l.07-5.92 2.37-24.77c5.46-14.02.1-32.13.1-32.13l-.98-4.49c-.55-2.52-.22-5.16.93-7.48l9.93-19.94c.53-1.31 1.15-2.6 1.87-3.82a98.22 98.22 0 012.49-4.24 147.06 147.06 0 015.4-7.95c4.39-6.09 6.7-13.71 7.9-19.32l.53 1.76h.11l.15.03h.23l.26.04h.1l3.05 38.86c.18 15.16 5.75 23.54 5.75 23.54l-.77 33.46c1.05 8.06-1.25 18.8-2.3 23.09l-2.4 5.42a6.52 6.52 0 00-3.55 4.94c-.47 4-4.7 12.64-4.7 12.64-1.63 2.07-5.17 7.66-5.17 7.66s-1.67 5.4-.64 7.42c1.04 2.02 9.69 1.81 9.69 1.81 9.87 2.19 17.44-3.12 16.97-6.77-.48-3.65 1.53-4.58 1.53-4.58 3.93-1.24 3.55-3.9 3.55-3.9.84-5.5-.2-11.1-2.97-15.92l-.63 1.44a21.9 21.9 0 011.19-8.5l-.36.26-.12.06h-.03c.62-5.46 6.36-15.57 6.36-15.57 10.54-18.5 6.71-43.56 6.71-43.56l-1.63-7.81-.1-2.95c-.22-7.04.31-14.08 1.6-21 .56-3.07 1.15-6.77 1.6-10.85.94-8.62 4-17.52 5.4-21.3l.42-.07h.05l1.74-.3h.11s.34-1.83.63-4.93c.16-1.97.3-4.48.3-7.35a82.8 82.8 0 00-3.93-25.62l.32-.46s.75-1.02 2.13-2.79c2.53-3.21 6.47-8.1 11.32-13.6 8.7-9.92 6.14-19.95 6.14-19.95s-6.3-23.06-9.1-36.9c-1.6-7.9-4.6-13.26-6.9-16.42.51-2.19.8-4.42.87-6.66.19-4.1.04-8.38-1.8-12.06-1.85-3.68-5.77-6.59-9.87-6.1-.59.14-1.2.14-1.77 0a2.69 2.69 0 01-1.17-1.01c-2.4-3.31-2.55-7.76-1.8-11.78.74-4 2.28-7.85 2.96-11.87.69-4.03.38-8.5-2.19-11.68-3-3.74-8.25-4.8-12.17-7.6-2.74-1.98-4.8-4.82-7.7-6.57-2.9-1.75-5.61-1.08-8.76-.42-5.29 1.11-10.32 1.62-15.32 3.9a40.81 40.81 0 00-13.36 9.71 12.68 12.68 0 00-2.97 4.7c-1.25 4.12 1.19 8.5.68 12.77-.37 3.02-2.15 5.65-3.56 8.35-1.42 2.7-2.5 5.9-1.39 8.72 1.75 4.41 7.44 5.35 11.58 7.7.55.27 1.02.68 1.37 1.19 1.02 1.78-1.07 3.63-2.38 5.21-.76.93-1.29 2.01-1.56 3.17a11.3 11.3 0 00-6.78 8.18c-1.4 6.27.76 14.19 2.66 19.43-2.08 11.65.62 16.25 2.61 18.02a10 10 0 013.47 6.81v.22c.13 2.12.35 4.23.65 6.34l-.18-1.25c-1.62 3.01-4.72 10.7-6.46 23.64a71.05 71.05 0 01-1.58 8.23 45 45 0 00-1.32 14.72l.31 4.2c-.3 0-.6-.1-.85-.29l2.19 4v6.77A24.92 24.92 0 01172.3 326a7.26 7.26 0 00-.74 3.67c-4.7 7.21-15.49 47.62-15.49 47.62-5.85 13.24.48 21.8.48 21.8s3.07 36.89 3.64 38.8c.57 1.9 1.84 24.38 1.84 24.38v1.8a4.2 4.2 0 00-1.06-.31c-5.13-.29-6.52 7.81-6.52 7.81l-10.5 10.02s-4.78-.8-11.83 4.48c-7.05 5.3 4.55 10.12 4.55 10.12zm104.78-213.17l-.03-.11-.28.16-.12.07-.06.04-4.84-17.07a28.35 28.35 0 01-.35-14.04l3.74-16.37v-3.94l11.88 31.67c.76 4.26-6.3 14.6-9.94 19.59z" fill="url(#paint3_linear)"/><path d="M246.67 334.53s-4.8 11.67-6.02 22.87c-.44 4.04-1.02 7.69-1.58 10.72a98 98 0 00-1.53 20.73l.1 2.91 1.55 7.7s3.74 24.77-6.59 43c0 0-6.11 10.93-6.3 16.1l-4.15 1.6-8.37-2.35s4.04-14.5 2.73-24.66l.75-33.03s-5.44-8.26-5.62-23.22l-3.2-41.03 38.23-1.34zM208.44 328.69s-1.03 16-8.94 27.03c-7.92 11.03-9.6 15.81-9.6 15.81l-9.75 19.7a11.29 11.29 0 00-.91 7.38l.96 4.44s5.27 17.88-.1 31.72l-2.54 26.73H162.7s-1.24-22.21-1.78-24.1c-.54-1.88-3.58-38.3-3.58-38.3s-6.23-8.48-.47-21.56c0 0 12.99-48.95 16.47-48.1 3.47.85 35.1-.75 35.1-.75z" fill="#FDC2CC"/><path opacity=".1" d="M178.7 403.08l-.96-4.44c-.55-2.5-.23-5.11.9-7.4l9.75-19.73s1.7-4.8 9.6-15.81c7.6-10.6 8.85-25.77 8.94-26.94l1.5-.07s-1.02 16-8.93 27.03c-7.92 11.03-9.6 15.81-9.6 15.81l-9.75 19.7a11.29 11.29 0 00-.91 7.38l.96 4.44s5.27 17.88-.1 31.72l-2.54 26.73h-1.5l2.54-26.73c5.36-13.84.1-31.7.1-31.7zM224.81 458.58c.2-5.17 6.31-16.1 6.31-16.1 10.36-18.25 6.59-43 6.59-43l-1.6-7.7-.1-2.92c-.22-6.94.3-13.9 1.54-20.73.56-3.03 1.13-6.68 1.57-10.72 1.18-10.78 5.67-22 6-22.82l1.55-.06s-4.8 11.67-6.02 22.87c-.44 4.04-1.02 7.69-1.58 10.72a97.93 97.93 0 00-1.53 20.73l.1 2.91 1.55 7.7s3.74 24.77-6.59 43c0 0-6.11 10.93-6.3 16.1l-4.15 1.6-.87-.24 3.53-1.34z" fill="#000"/><path d="M220.02 458.4a7.2 7.2 0 006.85-.86c-1.37 4-1.56 8.32-.56 12.43 1.7 6.78-15.81-5.46-15.81-5.46l3.74-8.54s1.45 2.7 5.78 2.42z" fill="#D39999"/><path opacity=".1" d="M221.32 458.77a6.99 6.99 0 005.56-1.24c-1.37 4-1.56 8.31-.56 12.42 1.7 6.78-15.81-5.46-15.81-5.46l3.74-8.54s1.08 2.08 4.26 2.4c.97.12 1.9.25 2.8.42z" fill="#000"/><path d="M180.3 300.04h7.3v-41.51l-5.48-.99-1.83 42.5z" fill="#FDC2CC"/><path opacity=".05" d="M180.3 300.04h7.3v-41.51l-5.48-.99-1.83 42.5z" fill="#000"/><path d="M215.87 461.6s4.61-.3 6.68 3.85l2.55 1.98 1.24-2.92a24.3 24.3 0 012.88 15.72s.38 2.63-3.48 3.86c0 0-1.98.94-1.51 4.52.47 3.57-6.96 8.85-16.66 6.68 0 0-8.47.2-9.5-1.8-1.04-1.97.66-7.24.66-7.24s3.48-5.52 5.07-7.56c0 0 4.15-8.53 4.62-12.46.47-3.93 5-6.8 7.45-4.63z" fill="#7E5659"/><path d="M177.7 465.08l.08-5.85s-8.42 2.42-15.23-.32c0 0 .57 5.88-.38 6.69-.94.8 3.16 8.37 3.16 8.37l4.57 4.8 7.88-2.87 2.14-6.73s-1.65-4.1-2.21-4.1z" fill="#D39999"/><path opacity=".1" d="M177.7 465.08l.08-5.85s-8.42 2.42-15.23-.32c0 0 .57 5.88-.38 6.69-.94.8 3.16 8.37 3.16 8.37l4.57 4.8 7.88-2.87 2.14-6.73s-1.65-4.1-2.21-4.1z" fill="#000"/><path d="M161.66 462.96s4.47.52 3.9 6.23c-.56 5.71.24 0 .24 0s4.75 1.93 6.45 4.61c1.7 2.69 4.75-2.4 4.98-3.86.23-1.45 2.14-2.06 2.14-2.06s7.48 13.87 6.16 17.68c-1.32 3.81-17.38 4.7-17.38 4.7s-2.92-1.65-9.65 3.48c-6.73 5.12-20.7 1.24-20.7 1.24s-11.4-4.75-4.47-9.97c6.92-5.21 11.62-4.42 11.62-4.42l10.3-9.94s1.37-7.98 6.4-7.7z" fill="#7E5659"/><path d="M215.09 135.19c2.85 1.72 4.87 4.53 7.57 6.48 3.84 2.77 9 3.8 11.94 7.5 2.5 3.16 2.82 7.56 2.15 11.54-.68 3.97-2.18 7.77-2.91 11.73-.73 3.97-.58 8.36 1.77 11.62.28.44.67.8 1.14 1 .58.14 1.17.14 1.74 0 4.03-.48 7.9 2.4 9.7 6.03 1.8 3.64 1.95 7.86 1.76 11.91-.15 3.32-.53 6.71-1.98 9.7-2.5 5.09-7.68 8.23-12.8 10.63a98.89 98.89 0 01-10.21 4.13c-2.4.8-4.92 1.54-7.4 1.11-4.26-.73-7.28-4.6-11.31-6.11-3.31-1.25-6.98-.8-10.5-.49-3 .26-6.44.25-8.51-1.94-2.65-2.81-1.46-7.36-.1-10.98a7.81 7.81 0 01-5.53-12.8c1.28-1.56 3.33-3.38 2.33-5.14-.34-.5-.8-.91-1.35-1.18-4.06-2.31-9.64-3.24-11.35-7.6-1.1-2.79-.04-5.96 1.35-8.62 1.39-2.66 3.12-5.26 3.5-8.24.5-4.21-1.87-8.54-.67-12.6a12.62 12.62 0 012.92-4.65 40.09 40.09 0 0113.09-9.6c4.91-2.24 9.84-2.75 15.04-3.84 3.12-.67 5.7-1.36 8.62.4z" fill="#865A61"/><path d="M187.6 197.92s-11.92-.63-14.17 9.54c-2.26 10.16 4.89 24.72 4.89 24.72l9.28-34.26z" fill="#FDC2CC"/><path opacity=".05" d="M187.6 197.92s-11.92-.63-14.17 9.54c-2.26 10.16 4.89 24.72 4.89 24.72l9.28-34.26z" fill="#000"/><path d="M180 228.16l4.51 3.58 21.08.94 13.16-9.03 13.39-22.97c-8.18-2.09-11.5-7.74-12.73-13.03a28.52 28.52 0 01-.26-10.88s-21.46-11.1-18.82 6.23c.36 2.13.42 4.3.2 6.45-1.25 10.16-11.1 8.24-11.1 8.24l-3.8 5.84-4.32 14.33-1.32 10.3z" fill="#FDC2CC"/><path opacity=".1" d="M200.34 182.98c.37 2.13.43 4.3.2 6.44a19.02 19.02 0 0018.9-1.77 28.52 28.52 0 01-.27-10.88s-21.46-11.1-18.82 6.21z" fill="#000"/><path d="M208.45 190.39a19.01 19.01 0 100-38.03 19.01 19.01 0 000 38.03z" fill="#FDC2CC"/><path d="M195 224.54c.47 0 .92.06 1.38.1 2.49.26 12.9.82 18.83-6.27a758.29 758.29 0 0115.84-18.11l8.99 2.72s-7.12-2.53-11.84 10.7a13.7 13.7 0 004.63 15.77 14.24 14.24 0 005.88 2.51V237.78l-3.68 16.2a28.08 28.08 0 00.35 13.87l5.61 19.82c-.85.59-35.64 24.25-58.88 7.91.08-.71 2.96-23.97.96-35.36a78.56 78.56 0 01-1.04-8.8v-.21a9.92 9.92 0 00-3.4-6.73c-2.1-1.87-4.94-6.86-2.13-20.03.7-3.26 1.75-6.44 3.11-9.5l7.8-17.6 7.18.14v.05c-.62.77-8.95 11.18-9.85 17.88-.89 6.38-1.98 8.33 10.26 9.12z" fill="#E95C6D"/><path d="M246.09 206.07s7.03 6.03 9.79 19.7c2.76 13.69 8.9 36.4 8.9 36.4s2.5 9.92-6.02 19.7c-8.51 9.8-14.18 17.45-14.18 17.45l-5.6 8.27a7.04 7.04 0 01-4.04 2.85c-2.56.68-6.49 1.16-9.89-.7a5.76 5.76 0 01-2.49-7.27l1.25-2.89s-11.55 7.28-12.55 3.26c-1-4.02 13.42-8.03 13.42-8.03s11.92-2 14.34-7.66c0 0 12.8-16.44 11.8-22.08l-12.37-33.14s-15.46-2.04-10.19-19.4c5.27-17.37 17.83-6.46 17.83-6.46z" fill="#FDC2CC"/><path d="M172.17 331.07s28.24 5.65 34.9 4.9l.7 2.38s10.73 2.4 34.96-1.44c1.58-.25 3.23-.53 4.93-.85l.57-.1s.33-1.79.59-4.85c.58-6.95.78-20.4-4.1-34.17l-4.08-12.55s-25.19 15.1-41.86 13.7a90.12 90.12 0 00-4.46-.29c-3.42-.13-8.72 0-12.17-2.76l-7.23 1.25v20.56a24.61 24.61 0 01-2.13 10.05 6.55 6.55 0 00-.62 4.17z" fill="#65617D"/><path opacity=".1" d="M207.77 331.95v6.4s12.34 2.76 40.45-2.39c0 0 .33-1.79.6-4.85-8.63 1.38-32.42 4.71-41.05.84zM172.17 331.07s28.24 5.65 34.9 4.9l.7 2.38v-6.4c-3.2 1.34-26.16-4.2-34.48-6.27l-.5 1.24a6.54 6.54 0 00-.62 4.15z" fill="#000"/><path d="M240.63 323.94l2.1 12.99c1.58-.25 3.22-.54 4.92-.85-.65-3.8-2.08-12.46-1.69-13.9l-2.63-2.25-2.7 4z" fill="#65617D"/><path opacity=".1" d="M240.92 323.66l2.1 13c1.58-.26 3.22-.54 4.93-.85-.66-3.8-2.08-12.46-1.7-13.9l-2.63-2.27-2.7 4.02z" fill="#000"/><g opacity=".05" fill="#000"><path opacity=".05" d="M197.26 298.1a89.52 89.52 0 00-4.45-.3c-3.33-.13-8.41 0-11.88-2.55l1.21-.21c3.47 2.75 8.73 2.63 12.17 2.76a90 90 0 014.46.3c.48.03.98.06 1.49.07-1 .03-2 0-3-.08zM241.22 336.9c1.58-.24 3.22-.52 4.93-.83l.57-.1s.33-1.8.58-4.86c.59-6.95.8-20.4-4.1-34.17l-3.84-11.84c.81-.46 1.24-.73 1.24-.73l4.08 12.55c4.9 13.77 4.69 27.22 4.1 34.17-.25 3.06-.59 4.86-.59 4.86l-.56.1c-1.7.31-3.34.59-4.93.84-11.32 1.8-19.69 2.23-25.4 2.18 8.02-.12 16.01-.85 23.92-2.16zM205.54 335.96v.07h-.8l.8-.06z"/></g><path d="M244.14 326.36c.59 0 1.06-.98 1.06-2.2 0-1.2-.47-2.18-1.06-2.18-.59 0-1.07.98-1.07 2.19s.48 2.2 1.07 2.2z" fill="#D39999"/><path d="M176.13 279.75c1.72-12.77 4.75-20.36 6.36-23.33.06.4.22 1.72.3 2.12.32 1.87.03 4.23.13 6.6l-1.6 28.89 2.14 9.03c2.01 7.16-5.42 1.5-5.42 1.5-1.54 3.4-4.36 3.02-4.36 3.02l-.4-5.18c-.36-4.89.08-9.8 1.3-14.54.68-2.67 1.2-5.38 1.55-8.1z" fill="#FDC2CC"/><path opacity=".05" d="M176.13 279.75c1.72-12.77 4.75-20.36 6.36-23.33.06.4.22 1.72.3 2.12.32 1.87.03 4.23.13 6.6l-1.6 28.89 2.14 9.03c2.01 7.16-5.42 1.5-5.42 1.5-1.54 3.4-4.36 3.02-4.36 3.02l-.4-5.18c-.36-4.89.08-9.8 1.3-14.54.68-2.67 1.2-5.38 1.55-8.1z" fill="#000"/><path d="M247.65 295.34c-1.35 1.75-2.1 2.75-2.1 2.75l-5.6 8.26a7 7 0 01-4.04 2.85c-2.55.68-6.48 1.17-9.88-.7a5.74 5.74 0 01-2.5-7.27l1.25-2.89s-11.54 7.28-12.55 3.27c-1-4.02 13.43-8.04 13.43-8.04s11.92-2 14.34-7.65c0 0 1.03-1.34 2.49-3.38" fill="#FDC2CC"/><path d="M240.63 309.18s-13.65-1.33-17.98-9.14l-1.98 6.45s14.33 9.9 17.6 8.61l2.36-5.92z" fill="#65617D"/><path opacity=".1" d="M240.14 309.11s-13.64-1.32-17.97-9.14l-1.98 6.43s14.33 9.9 17.6 8.62l2.35-5.9z" fill="#000"/><path d="M178.49 305.53s-4.78 1.7-5.73.76l2.16 3.95 4.06-3.11-.5-1.6z" fill="#65617D"/><path opacity=".1" d="M178.49 305.53s-4.78 1.7-5.73.76l2.16 3.95 4.06-3.11-.5-1.6zM207.77 331.95v-8.25l-1.96 8.45 1.96-.2zM227.13 161.34c-1.15 1.62-3.15 2.44-5.12 2.7-1.97.25-3.96.03-5.95 0-3.12-.05-6.43.43-8.98 2.26-1.63 1.16-2.85 2.8-4.12 4.36-3.85 4.7-9.2 9.11-15.27 8.62a3.95 3.95 0 01-2.83-1.2 4.55 4.55 0 01-.72-2.58c-.26-3.88-.14-7.77.37-11.63a24.5 24.5 0 011.75-6.93 23.69 23.69 0 014.23-6.03c2.07-2.4 4.57-4.41 7.37-5.91 2.83-1.5 6.1-1.92 9.22-1.19 3.63 1 6.46 3.83 9.93 5.3 3.95 1.66 14.46 6.1 10.12 12.23z" fill="#000"/><path d="M227.13 160.59c-1.15 1.62-3.15 2.44-5.12 2.7-1.97.25-3.96.03-5.95 0-3.12-.06-6.43.42-8.98 2.25-1.63 1.16-2.85 2.8-4.12 4.36-3.85 4.7-9.2 9.11-15.27 8.62a3.91 3.91 0 01-2.83-1.2 4.54 4.54 0 01-.72-2.58c-.26-3.88-.14-7.77.37-11.63a24.5 24.5 0 011.75-6.93 23.49 23.49 0 014.23-6.03 25.76 25.76 0 017.37-5.91c2.83-1.5 6.1-1.92 9.22-1.19 3.63 1 6.46 3.83 9.93 5.3 3.95 1.67 14.46 6.1 10.12 12.24z" fill="#865A61"/><path d="M182.15 295.03l-.05 2.28-.51-2.18.56-.1z" fill="#FDC2CC"/><path opacity=".05" d="M182.15 295.03l-.05 2.28-.51-2.18.56-.1zM230.2 211.33c-5.27 17.37 10.11 19.4 10.11 19.4l12.37 33.14c1 5.64-11.8 22.09-11.8 22.09-.9 2.1-3.12 3.7-5.55 4.89a8.7 8.7 0 003.29-3.61s12.8-16.44 11.8-22.09l-12.37-33.14s-15.38-2.03-10.1-19.4c1.76-5.8 4.36-8.44 6.99-9.4-1.82 1.47-3.48 4-4.73 8.12z" fill="#000"/><g opacity=".1" fill="#000"><path opacity=".1" d="M230.47 227.11c.72.9 1.56 1.69 2.49 2.36a14.16 14.16 0 005.88 2.5v.65a14.13 14.13 0 01-5.33-2.36 12.93 12.93 0 01-3.04-3.15zM182.66 251.95v.22c.2 2.96.55 5.91 1.07 8.83 1.87 10.75-.58 32.07-.93 35.02l-.62-.4c.1-.7 2.97-23.97.97-35.35a78.8 78.8 0 01-1.04-8.8v-.21a9.62 9.62 0 00-1.67-4.77 9.69 9.69 0 012.22 5.46zM194.13 198.2l-6.1-.13H188l-7.8 17.61a48.6 48.6 0 00-3.1 9.5c-2.28 10.65-.85 15.96.88 18.58-1.95-2.3-3.96-7.54-1.45-19.32.7-3.26 1.73-6.44 3.09-9.5l7.84-17.6 7.19.14v.04l-.53.67zM240.06 202.97l.1.03-.1-.03z"/><path opacity=".1" d="M237.82 202.87l-6.1-1.84h-.04c-.36.4-9.19 10.2-15.83 18.12-5.93 7.08-16.33 6.53-18.83 6.28l-1.37-.12c-6.81-.44-9.5-1.25-10.4-2.97 1.29 1.25 4.1 1.87 9.83 2.22.46 0 .91.07 1.37.11 2.5.25 12.9.8 18.84-6.27a757.37 757.37 0 0115.83-18.12l8.89 2.69a5.54 5.54 0 00-2.19-.1z"/></g><path opacity=".1" d="M165.52 472.01s-8.6 2.35-10.27-1.34l10.27 1.34zM220.11 470.25s-9.97 2.57-12.28-1.4l12.28 1.4z" fill="#000"/><path d="M363.88 464.67c.14-1.24.35-2.49.57-3.74.99-5.38-.51-10.51-1.24-12.63-.23-.66-.4-1.03-.4-1.03-3.97-1.08-19.62 11.06-25.32 15.63-1.98 0-4.12.1-6.46.25-1.02.07-2.05.1-3.07.08h-3.74c-5.29-4.27-21.66-17.08-25.74-15.97 0 0-.17.36-.4 1.02-.76 2.12-2.26 7.25-1.27 12.64.22 1.24.43 2.49.57 3.73.3 2.74 1.45 8 5.6 11.54.9 6.48 4.23 15 6.8 20.17.2.98.48 1.93.87 2.85-1.06 4.09-2.28 9.42-1.93 11.21 0 0-5.53-1.34-6.1 5.32v.21c-2 .92-4.5 3.02-1.68 7.42.33.54.84.95 1.44 1.17.5.18.99.18.94-.52l3.46 3.9s6.26.72 6.34-2.92l.37.05c.84.13 1.72.24 2.62.33l.44 1.44s-4.7-.1-3.43 2.8c0 0 1.19 1.1 1.6.7 0 0-.63 1.9 1.83 1.9 0 0 2.63 1.39 3.66.4 1.03-1 3.16-2.5 3.36-3.12.06-.17.08-1.65.1-3.7h.4c5.25.13 10.83-.03 15.9-.3h.41c0 2.2.03 3.84.09 4.01.2.62 2.34 2.1 3.36 3.12 1.03 1.01 3.66-.4 3.66-.4 2.44 0 1.83-1.9 1.83-1.9.41.4 1.6-.7 1.6-.7 1.28-2.9-3.43-2.8-3.43-2.8l.56-1.87 2.6-.22.41-.03c-.25 3.95 6.34 3.2 6.34 3.2l3.46-3.9c-.05.7.43.7.93.52a2.86 2.86 0 001.4-1.19c4.25-6.64-3.6-8.04-3.6-8.04-.23-.07-.48-.1-.73-.12 0-.11 0-.23.03-.34.1-.88.12-1.76.05-2.63-.3-1.2-2.23-3.12-4.67-3.4-1.6-.2-1.63-7.53-1.46-12.6.18-.96.26-1.93.25-2.9.03-1.56-.18-3.13-.63-4.63 3.12-5.28 5.61-10.82 5.9-12.46 4.1-3.58 5.24-8.81 5.55-11.55z" fill="url(#paint4_linear)"/><path d="M357.85 515.18c-.25 3.45-.92 8.99-.92 8.99s-2.77.34-7.06.72l-2.9.25c-2.24.18-4.74.36-7.4.5-4.88.27-10.26.44-15.32.32a96.68 96.68 0 01-7.26-.41c-1.02-.1-2-.22-2.94-.36-5.8-.87-9.97-2.52-10.32-5.43-.18-1.24-.23-2.5-.13-3.74.54-6.54 5.87-5.22 5.87-5.22-.35-1.81.94-7.42 2-11.49.65-2.56 1.24-4.5 1.24-4.5l37.46-2.5h.13a1.84 1.84 0 011.83 1.93c-.23 4.5-.55 14.78 1.3 15.01 2.35.3 4.21 2.16 4.5 3.34.05.86.02 1.73-.08 2.59zM326.03 465.86s-14.13 17-20.93 12.3l-.47-.35c-4.57-3.46-5.77-9.04-6.1-11.88a54.04 54.04 0 00-.55-3.66c-.94-5.3.5-10.33 1.25-12.4.22-.63.38-1.01.38-1.01 4.7-1.31 26.42 17 26.42 17z" fill="#E95C6D"/><path d="M318.44 467.43s-4.45 3.12-10.72 8.24c-.98.8-2.02 1.52-3.12 2.14-4.57-3.46-5.78-9.04-6.1-11.88a53.95 53.95 0 00-.55-3.66c-.94-5.3.5-10.33 1.25-12.4 8.8.6 19.24 17.56 19.24 17.56z" fill="#E95C6D"/><path opacity=".5" d="M318.44 467.43s-4.45 3.12-10.72 8.24c-.98.8-2.02 1.52-3.12 2.14-4.57-3.46-5.78-9.04-6.1-11.88a53.95 53.95 0 00-.55-3.66c-.94-5.3.5-10.33 1.25-12.4 8.8.6 19.24 17.56 19.24 17.56z" fill="#fff"/><path opacity=".1" d="M313.6 465.76s-2.38 1.67-5.73 4.4c-.51.42-1.06.8-1.64 1.14-2.44-1.87-3.12-4.83-3.25-6.34-.07-.66-.18-1.3-.3-1.96-.32-2.23-.08-4.5.7-6.62 4.65.32 10.22 9.38 10.22 9.38z" fill="#000"/><path d="M335.18 465.86s14.13 17 20.94 12.3l.46-.35c4.58-3.46 5.78-9.04 6.1-11.88.13-1.24.33-2.45.55-3.66.94-5.3-.5-10.33-1.25-12.4-.23-.63-.39-1.01-.39-1.01-4.69-1.31-26.4 17-26.4 17z" fill="#E95C6D"/><path d="M342.77 467.43s4.45 3.12 10.73 8.24c.96.8 2 1.52 3.08 2.14 4.58-3.46 5.78-9.04 6.1-11.88a58 58 0 01.55-3.66c.94-5.3-.5-10.33-1.25-12.4-8.76.6-19.21 17.56-19.21 17.56z" fill="#E95C6D"/><path opacity=".5" d="M342.77 467.43s4.45 3.12 10.73 8.24c.96.8 2 1.52 3.08 2.14 4.58-3.46 5.78-9.04 6.1-11.88a58 58 0 01.55-3.66c.94-5.3-.5-10.33-1.25-12.4-8.76.6-19.21 17.56-19.21 17.56z" fill="#fff"/><path opacity=".1" d="M347.65 465.75s2.36 1.67 5.69 4.36c.5.42 1.06.8 1.64 1.13 2.42-1.84 3.06-4.8 3.23-6.3a29 29 0 01.3-1.95c.32-2.21.1-4.47-.66-6.58-4.66.34-10.2 9.33-10.2 9.33zM350.15 492.33c-1.79 2.81-3.68 5.36-5.41 6.89-5.61 4.98-29.83 3-31.4 2.75-.33-.06-1.01-1.04-1.87-2.63.66-2.56 1.25-4.5 1.25-4.5l37.43-2.51z" fill="#000"/><path d="M330.98 464.44c-.99.06-1.97.09-2.96.07-5.06-.09-22.08.14-23.97 7.01-2.22 8.1 7.72 29.8 9.29 30.06 1.56.26 25.77 2.22 31.4-2.75 5.62-4.98 12.95-20.57 12.55-21.98 0 0 6.98-14.72-26.31-12.41z" fill="#E95C6D"/><path opacity=".1" d="M330.44 477.57s-12.46-1.92-18.3 10.35a14.95 14.95 0 001.1 15.07c1.94 2.74 4.8 4.77 8.76 3.12 8.83-3.64 8.44-28.54 8.44-28.54z" fill="#000"/><path opacity=".1" d="M330.05 476.79s-12.46-1.92-18.3 10.34a14.96 14.96 0 001.1 15.07c1.94 2.74 4.8 4.78 8.76 3.12 8.83-3.63 8.44-28.53 8.44-28.53z" fill="#000"/><path d="M330.05 477.18s-12.46-1.92-18.3 10.34a14.96 14.96 0 001.1 15.08c1.94 2.73 4.8 4.77 8.76 3.11 8.83-3.63 8.44-28.53 8.44-28.53z" fill="#E95C6D"/><path opacity=".5" d="M330.05 477.18s-12.46-1.92-18.3 10.34a14.96 14.96 0 001.1 15.08c1.94 2.73 4.8 4.77 8.76 3.11 8.83-3.63 8.44-28.53 8.44-28.53z" fill="#fff"/><path d="M316.6 487.9s-1.7 1.57-1.04 1.97c.66.39 1.05-1.97 1.05-1.97zM318.44 489.91s-.93 2.05-.27 2.27c.66.23 1.06-1.47 1.06-1.47l-.79-.8zM314.33 493s-.9 2.43 0 2.43c.91 0 0-2.42 0-2.42z" fill="#3F2B3B"/><path d="M313.2 499.48s1.83 4.65 6.56 4.32M317.46 500.85s1.87 1.83 3.92.52" stroke="#3F2B3B" stroke-miterlimit="10"/><path opacity=".1" d="M332.04 477.57s12.46-1.92 18.3 10.35a14.95 14.95 0 01-1.1 15.07c-1.94 2.74-4.8 4.77-8.76 3.12-8.85-3.64-8.44-28.54-8.44-28.54z" fill="#000"/><path opacity=".1" d="M332.4 476.79s12.47-1.92 18.31 10.34a14.97 14.97 0 01-1.1 15.07c-1.94 2.74-4.8 4.78-8.77 3.12-8.8-3.63-8.44-28.53-8.44-28.53z" fill="#000"/><path d="M332.4 477.18s12.47-1.92 18.31 10.34a14.97 14.97 0 01-1.1 15.08c-1.94 2.73-4.8 4.77-8.77 3.11-8.8-3.63-8.44-28.53-8.44-28.53z" fill="#E95C6D"/><path opacity=".5" d="M332.4 477.18s12.47-1.92 18.31 10.34a14.97 14.97 0 01-1.1 15.08c-1.94 2.73-4.8 4.77-8.77 3.11-8.8-3.63-8.44-28.53-8.44-28.53z" fill="#fff"/><path d="M345.85 487.9s1.7 1.57 1.04 1.97c-.65.39-1.04-1.97-1.04-1.97zM344.01 489.91s.93 2.05.27 2.27c-.66.23-1.05-1.47-1.05-1.47l.78-.8zM348.13 493s.9 2.43 0 2.43 0-2.42 0-2.42z" fill="#3F2B3B"/><path d="M349.25 499.48s-1.82 4.65-6.56 4.32M345 500.85s-1.87 1.83-3.93.52" stroke="#3F2B3B" stroke-miterlimit="10"/><path d="M325.3 512.7c.34-.07 6.55-2.76 12.96 0H325.3z" fill="#3F2B3B"/><path opacity=".1" d="M314.05 525.21c-5.8-.87-9.97-2.52-10.32-5.43-.18-1.24-.23-2.5-.13-3.74.7-.38 1.44-.65 2.22-.81 1.05-.3 2.35-.1 5.1.69 2.75.79 2.55 4.02 3.12 8.24.06.35.06.7.01 1.05z" fill="#000"/><path d="M305.42 515.63s-7.55 1.39-3.46 7.9c.32.53.81.94 1.4 1.16.47.16.94.16.89-.52l3.34 3.83s6.66.78 6.08-3.44c-.59-4.22-.4-7.47-3.12-8.24-2.72-.76-4.06-.98-5.13-.69z" fill="#E95C6D"/><path d="M307.22 520.02s1.6 3.66 3.83.59M303.55 521.47s.83 3.47 3.97.89" stroke="#3F2B3B" stroke-miterlimit="10"/><path opacity=".1" d="M357.85 515.18c-.25 3.45-.92 8.99-.92 8.99s-2.77.34-7.06.72a3.63 3.63 0 010-.72c.59-4.22.4-7.48 3.12-8.24 2.55-.69 3.85-.94 4.86-.75z" fill="#000"/><path d="M358.53 515.63s7.56 1.39 3.47 7.9a2.8 2.8 0 01-1.4 1.16c-.47.16-.94.16-.89-.52l-3.33 3.83s-6.68.78-6.08-3.44c.59-4.22.39-7.47 3.11-8.24 2.72-.76 4.08-.98 5.12-.69z" fill="#E95C6D"/><path d="M356.74 520.02s-1.6 3.66-3.83.59M360.42 521.47s-.84 3.47-3.98.89" stroke="#3F2B3B" stroke-miterlimit="10"/><path opacity=".1" d="M324.25 525.96a96.68 96.68 0 01-7.26-.41l-2.26-7.62c-.14-.45-.2-.92-.2-1.39a4.85 4.85 0 019.68-.03c.03 2.97.05 6.73.04 9.45z" fill="#000"/><path d="M314.33 517.93l2.67 8.99s-4.54-.1-3.3 2.75c0 0 1.15 1.07 1.54.68 0 0-.6 1.87 1.76 1.87 0 0 2.54 1.38 3.53.4.98-1 3.05-2.46 3.25-3.05.12-.38.08-7.9.04-13.08a4.84 4.84 0 10-9.49 1.44z" fill="#E95C6D"/><path d="M317.94 529.24s-1.99 1.87-.94 2.97M317.08 528.05s-1.83.63-1.83 2.3" stroke="#3F2B3B" stroke-miterlimit="10"/><path opacity=".1" d="M349.3 516.54c0 .47-.06.94-.2 1.4l-2.1 7.2c-2.24.18-4.74.36-7.4.5 0-2.69 0-6.27.05-9.13a4.84 4.84 0 119.69.03h-.04z" fill="#000"/><path d="M349.49 517.93l-2.67 8.99s4.54-.1 3.3 2.75c0 0-1.14 1.07-1.53.68 0 0 .58 1.87-1.77 1.87 0 0-2.54 1.38-3.53.4-.98-1-3.04-2.46-3.24-3.05-.12-.38-.09-7.9-.04-13.08a4.84 4.84 0 119.48 1.44z" fill="#E95C6D"/><path d="M345.89 529.24s1.98 1.87.93 2.97M346.76 528.05s1.83.63 1.83 2.3" stroke="#3F2B3B" stroke-miterlimit="10"/><path opacity=".1" d="M330.06 475.22s-9.23-.3-9.53 6.85c-.29 7.15 14.42 4.12 14.42 4.12s6.19-.83 5.1-5.17c-1.07-4.34-3.32-5.41-10-5.8z" fill="#000"/><path opacity=".1" d="M330.06 474.43s-9.23-.3-9.53 6.86c-.29 7.14 14.42 4.11 14.42 4.11s6.19-.82 5.1-5.17c-1.07-4.34-3.32-5.4-10-5.8z" fill="#000"/><path d="M330.06 474.82s-9.23-.29-9.53 6.86c-.29 7.15 14.42 4.12 14.42 4.12s6.19-.83 5.1-5.18c-1.07-4.34-3.32-5.4-10-5.8z" fill="#3F2B3B"/><path opacity=".1" d="M309.47 510.83s3.11 1.1 3.74 3.23l-3.74-3.23zM353.4 509.26s-2.21.93-2.06 4.8l2.06-4.8z" fill="#000"/><path d="M311.97 529.1c.7-.4.72-1.64.06-2.8-.66-1.14-1.75-1.75-2.44-1.35-.7.4-.72 1.65-.06 2.8.66 1.14 1.75 1.75 2.44 1.35zM355.88 525.6c.65-1.13.63-2.38-.06-2.78-.69-.4-1.78.2-2.44 1.35-.66 1.14-.63 2.39.06 2.79.68.4 1.78-.21 2.44-1.35z" fill="#E95C6D"/><path opacity=".5" d="M311.97 529.1c.7-.4.72-1.64.06-2.8-.66-1.14-1.75-1.75-2.44-1.35-.7.4-.72 1.65-.06 2.8.66 1.14 1.75 1.75 2.44 1.35zM355.88 525.6c.65-1.13.63-2.38-.06-2.78-.69-.4-1.78.2-2.44 1.35-.66 1.14-.63 2.39.06 2.79.68.4 1.78-.21 2.44-1.35z" fill="#fff"/><path opacity=".1" d="M120.02 449.03c9.27 0 16.78-1.27 16.78-2.83 0-1.57-7.5-2.84-16.78-2.84-9.27 0-16.78 1.27-16.78 2.84 0 1.56 7.52 2.83 16.78 2.83zM53.92 489.24c9.26 0 16.78-1.27 16.78-2.83 0-1.57-7.52-2.84-16.78-2.84-9.27 0-16.79 1.27-16.79 2.84 0 1.56 7.52 2.83 16.79 2.83z" fill="#E95C6D"/><path d="M36.44 454.67c13.84 0 25.06-1.9 25.06-4.24 0-2.34-11.22-4.23-25.06-4.23-13.84 0-25.05 1.9-25.05 4.24 0 2.33 11.21 4.23 25.05 4.23z" fill="#E95C6D"/><path d="M26.08 443.5a7.24 7.24 0 01-2.4-3.6c-.3-1.43.31-3.14 1.68-3.67 1.53-.58 3.17.48 4.4 1.55 1.25 1.07 2.68 2.3 4.3 2.07a6.54 6.54 0 01-2.02-6.12c.07-.46.26-.89.56-1.24.85-.91 2.4-.52 3.42.2 3.23 2.28 4.14 6.68 4.16 10.64.33-1.43.05-2.92.06-4.36 0-1.45.4-3.12 1.64-3.88a4.98 4.98 0 012.5-.62c1.45-.05 3.07.1 4.07 1.16 1.25 1.32.92 3.54-.16 4.98-1.08 1.44-2.71 2.37-4.21 3.38a9.3 9.3 0 00-3.02 2.87c-.1.17-.17.34-.22.51h-9.1a25.22 25.22 0 01-5.66-3.87z" fill="#E95C6D"/><path opacity=".1" d="M641.73 472.75c9.27 0 16.78-1.27 16.78-2.84 0-1.56-7.51-2.83-16.78-2.83-9.27 0-16.78 1.27-16.78 2.83 0 1.57 7.51 2.84 16.78 2.84z" fill="#E95C6D"/><path d="M630.46 456.73s9.57-.29 12.46-2.35c2.9-2.05 14.72-4.5 15.44-1.2.72 3.3 14.39 16.38 3.58 16.47-10.82.08-25.11-1.69-27.99-3.44-2.88-1.76-3.49-9.48-3.49-9.48z" fill="#A8A8A8"/><path opacity=".2" d="M662.12 468.5c-10.8.1-25.1-1.68-27.98-3.43-2.2-1.34-3.07-6.13-3.36-8.34h-.32s.63 7.72 3.49 9.47c2.85 1.75 17.17 3.53 27.98 3.44 3.12 0 4.2-1.13 4.14-2.78-.43 1.02-1.62 1.64-3.95 1.64z" fill="#000"/><defs><linearGradient id="paint0_linear" x1="300.13" y1="442.61" x2="300.13" y2="74.29" gradientUnits="userSpaceOnUse"><stop stop-color="gray" stop-opacity=".25"/><stop offset=".54" stop-color="gray" stop-opacity=".12"/><stop offset="1" stop-color="gray" stop-opacity=".1"/></linearGradient><linearGradient id="paint1_linear" x1="85827.5" y1="297706" x2="85827.5" y2="65224.3" gradientUnits="userSpaceOnUse"><stop stop-color="gray" stop-opacity=".25"/><stop offset=".54" stop-color="gray" stop-opacity=".12"/><stop offset="1" stop-color="gray" stop-opacity=".1"/></linearGradient><linearGradient id="paint2_linear" x1="113782" y1="303068" x2="113782" y2="87921" gradientUnits="userSpaceOnUse"><stop stop-color="gray" stop-opacity=".25"/><stop offset=".54" stop-color="gray" stop-opacity=".12"/><stop offset="1" stop-color="gray" stop-opacity=".1"/></linearGradient><linearGradient id="paint3_linear" x1="-65169.5" y1="300497" x2="-65169.5" y2="84471.7" gradientUnits="userSpaceOnUse"><stop stop-color="gray" stop-opacity=".25"/><stop offset=".54" stop-color="gray" stop-opacity=".12"/><stop offset="1" stop-color="gray" stop-opacity=".1"/></linearGradient><linearGradient id="paint4_linear" x1="38658.2" y1="75563.3" x2="38658.2" y2="63755" gradientUnits="userSpaceOnUse"><stop stop-color="gray" stop-opacity=".25"/><stop offset=".54" stop-color="gray" stop-opacity=".12"/><stop offset="1" stop-color="gray" stop-opacity=".1"/></linearGradient></defs></svg>