<svg id="Layer_1" data-name="Layer 1" xmlns="http://www.w3.org/2000/svg" viewBox="0 0 100 84.64"><defs><style>.cls-1{fill:none;stroke:#e95c6d;stroke-linecap:round;stroke-linejoin:round;stroke-width:4px}</style></defs><g id="_31.-Photo-camera" data-name="31.-Photo-camera"><path id="Layer-1" class="cls-1" d="M11.6 23.4v-2.88a2.88 2.88 0 012.88-2.88h3.84a2.88 2.88 0 012.88 2.88v2.88" transform="translate(0 -8)"/><path id="Layer-2" class="cls-1" d="M26.88 24.4h-22A2.87 2.87 0 002 27.29v60.46a2.88 2.88 0 002.87 2.89h90.26A2.87 2.87 0 0098 87.75V27.29a2.88 2.88 0 00-2.87-2.89h-22l-7-11.92a5.58 5.58 0 00-4.3-2.48H38.27a5.59 5.59 0 00-4.34 2.48l-7 11.92z" transform="translate(0 -8)"/><circle id="Layer-3" class="cls-1" cx="50" cy="50" r="21.12"/><path id="Layer-4" class="cls-1" d="M45.2 45.52c-2.91 0-7.68 4.55-7.68 7.68" transform="translate(0 -8)"/><path id="Layer-5" class="cls-1" d="M40.4 21.52h19.2" transform="translate(0 -8)"/></g></svg>