<svg data-name="Layer 1" xmlns="http://www.w3.org/2000/svg" viewBox="0 0 123.11 100.03"><path d="M123.11 11.84a52.56 52.56 0 01-14.54 4 25.11 25.11 0 0011.1-13.95 50.39 50.39 0 01-16 6.11A25.24 25.24 0 0060 25.25a25.67 25.67 0 00.6 5.75 71.42 71.42 0 01-52-26.4 25.25 25.25 0 007.76 33.73 24.9 24.9 0 01-11.41-3.1v.27a25.35 25.35 0 0020.2 24.8 25.33 25.33 0 01-6.62.83 22.21 22.21 0 01-4.78-.43 25.48 25.48 0 0023.58 17.59A50.74 50.74 0 016 89.05a46.23 46.23 0 01-6-.35A71.06 71.06 0 0038.72 100c46.44 0 71.84-38.47 71.84-71.82 0-1.12 0-2.19-.1-3.26a50.4 50.4 0 0012.65-13.08z" fill="#5f5f5f"/></svg>