<svg id="Layer_1" data-name="Layer 1" xmlns="http://www.w3.org/2000/svg" viewBox="0 0 50 50"><defs><style>.cls-2{fill:#6d6e71;fill-rule:evenodd}</style></defs><path fill="#a7a9ac" d="M10.21 11.17h29.44v28.01H10.21z"/><path class="cls-2" d="M25 0a25 25 0 1025 25A25 25 0 0025 0zm-5.5 11.75c1.43-.07 1.88-.08 5.5-.08s4.07 0 5.49.08a9.68 9.68 0 013.24.62 6.77 6.77 0 013.9 3.9 9.57 9.57 0 01.62 3.23c.07 1.42.08 1.88.08 5.5s0 4.07-.08 5.5a9.62 9.62 0 01-.62 3.23 6.85 6.85 0 01-3.9 3.9 9.57 9.57 0 01-3.23.62c-1.43.07-1.88.08-5.5.08s-4.08 0-5.5-.08a9.57 9.57 0 01-3.23-.62 6.77 6.77 0 01-3.9-3.9 9.62 9.62 0 01-.62-3.23c-.07-1.43-.08-1.88-.08-5.5s0-4.08.08-5.5a9.57 9.57 0 01.62-3.23 6.77 6.77 0 013.9-3.9 9.62 9.62 0 013.23-.62z"/><path class="cls-2" d="M23.81 14.07H25c3.56 0 4 0 5.39.08a7.16 7.16 0 012.47.46 4.31 4.31 0 012.53 2.53 7.16 7.16 0 01.46 2.47c.07 1.41.08 1.83.08 5.39s0 4-.08 5.38a7.23 7.23 0 01-.46 2.48 4.21 4.21 0 01-1 1.53 4.07 4.07 0 01-1.54 1 7.35 7.35 0 01-2.47.46c-1.41.06-1.83.07-5.39.07s-4 0-5.39-.07a7.41 7.41 0 01-2.47-.46 4.14 4.14 0 01-1.54-1 4.21 4.21 0 01-1-1.53 7.23 7.23 0 01-.46-2.48c-.07-1.4-.08-1.83-.08-5.39s0-4 .08-5.38a7.23 7.23 0 01.46-2.48 4.21 4.21 0 011-1.53 4.14 4.14 0 011.54-1 7.41 7.41 0 012.47-.46c1.23-.05 1.71-.07 4.2-.07zm8.31 2.21a1.6 1.6 0 101.6 1.6 1.6 1.6 0 00-1.6-1.6zM18.15 25A6.85 6.85 0 1125 31.85 6.85 6.85 0 0118.15 25z"/><path d="M25 20.56A4.44 4.44 0 1120.56 25 4.44 4.44 0 0125 20.56z" fill="#6d6e71"/></svg>