<svg data-name="Layer 1" xmlns="http://www.w3.org/2000/svg" viewBox="0 0 50 50"><path d="M25 0a25 25 0 1025 25A25 25 0 0025 0zm10.42 16.41a3.38 3.38 0 012.36 2.42 37 37 0 01.55 6.59 37.06 37.06 0 01-.55 6.58 3.39 3.39 0 01-2.36 2.42C33.34 35 25 35 25 35s-8.34 0-10.42-.57A3.39 3.39 0 0112.22 32a37.06 37.06 0 01-.55-6.59 37 37 0 01.55-6.59 3.38 3.38 0 012.36-2.42c2.08-.58 10.42-.58 10.42-.58s8.34.01 10.42.59z" fill-rule="evenodd" fill="#fff"/><path d="M22.5 30v-8.33l6.67 4.16z" fill="#fff"/></svg>