<svg width="155" height="137" viewBox="0 0 155 137" fill="none" xmlns="http://www.w3.org/2000/svg">
<path d="M150.459 27.3596H109.401V18.3357C109.401 8.22529 101.175 0 91.0649 0H63.9354C53.8253 0 45.5997 8.22529 45.5997 18.3357V27.3596H4.54102C2.03316 27.3596 0 29.3928 0 31.9006V114.396C0 126.728 10.0329 136.76 22.3645 136.76H132.635C144.967 136.76 155 126.728 155 114.396V31.9006C155 29.3928 152.967 27.3596 150.459 27.3596ZM54 88.5L58.1144 80.0239C31.7075 74.2925 11.912 57.1644 9.36509 36.4417H145.635C143.088 57.1644 125.407 74.2922 99 80.0239L102.5 88.5H54ZM54.6814 18.3357C54.6814 13.2331 58.8328 9.08203 63.9351 9.08203H91.0646C96.1669 9.08203 100.318 13.2331 100.318 18.3357V27.3596H54.6811L54.6814 18.3357ZM145.918 114.396C145.918 121.72 139.959 127.678 132.635 127.678H22.3645C15.0408 127.678 9.08203 121.72 9.08203 114.396V59.8594C12.7481 65.1018 17.475 69.9428 23.1855 74.2256C33.081 81.6472 40.8522 85.9579 54 88.5C63.7653 88.5 102.5 88.5 102.5 88.5C115.648 85.9579 121.919 81.6472 131.814 74.2256C137.525 69.9428 142.252 65.1015 145.918 59.8594V114.396Z" fill="#332E2E"/>
<path d="M66.1775 136.917C65.7791 136.918 65.3882 136.809 65.0471 136.603C64.7061 136.397 64.4279 136.102 64.2426 135.749L61.0497 129.667L54.5111 131.757C54.1122 131.885 53.6848 131.896 53.28 131.787C52.8752 131.679 52.51 131.457 52.2279 131.147C51.9459 130.837 51.759 130.453 51.6895 130.04C51.6199 129.627 51.6707 129.202 51.8358 128.817L61.1545 106.993C61.3819 106.46 61.8116 106.04 62.3491 105.824C62.8867 105.608 63.4881 105.614 64.0209 105.841C64.5538 106.069 64.9745 106.498 65.1906 107.036C65.4066 107.573 65.4003 108.175 65.1729 108.708L57.728 126.142L61.4647 124.949C61.954 124.792 62.4832 124.813 62.959 125.007C63.4347 125.202 63.8266 125.558 64.0657 126.013L65.9701 129.64L73.9588 110.859C74.0657 110.587 74.2259 110.34 74.4299 110.132C74.6339 109.923 74.8776 109.757 75.1467 109.645C75.4157 109.532 75.7046 109.474 75.9963 109.475C76.2881 109.476 76.5767 109.535 76.8452 109.649C77.1136 109.763 77.3566 109.93 77.5595 110.139C77.7625 110.349 77.9214 110.597 78.027 110.869C78.1325 111.141 78.1825 111.431 78.1739 111.723C78.1654 112.014 78.0985 112.301 77.9772 112.567L68.1846 135.587C68.0231 135.967 67.7573 136.294 67.4179 136.529C67.0785 136.764 66.6795 136.898 66.2671 136.915L66.1775 136.917Z" fill="#332E2E"/>
<path d="M90.7971 136.918H90.7075C90.2944 136.902 89.8944 136.768 89.5542 136.533C89.214 136.298 88.9475 135.971 88.7857 135.59L79.0214 112.561C78.7949 112.028 78.7897 111.426 79.0067 110.889C79.2238 110.351 79.6454 109.922 80.1789 109.696C80.7123 109.469 81.3139 109.464 81.8513 109.681C82.3886 109.898 82.8177 110.32 83.0442 110.853L91.0133 129.635L92.9155 126.012C93.1545 125.557 93.546 125.201 94.0213 125.007C94.4966 124.812 95.0252 124.792 95.5143 124.948L99.2467 126.141L91.8104 108.754C91.6893 108.49 91.6223 108.203 91.6135 107.912C91.6047 107.621 91.6543 107.331 91.7592 107.059C91.8642 106.787 92.0224 106.539 92.2247 106.33C92.4269 106.12 92.669 105.953 92.9368 105.838C93.2046 105.724 93.4926 105.664 93.7839 105.662C94.0752 105.66 94.3638 105.717 94.6329 105.829C94.902 105.94 95.146 106.104 95.3507 106.312C95.5553 106.519 95.7164 106.765 95.8245 107.036L105.134 128.818C105.299 129.203 105.35 129.627 105.28 130.039C105.211 130.452 105.024 130.836 104.743 131.145C104.461 131.455 104.097 131.677 103.693 131.786C103.289 131.894 102.862 131.885 102.464 131.758L95.9249 129.668L92.732 135.75C92.5468 136.103 92.2685 136.398 91.9275 136.604C91.5864 136.81 91.1955 136.919 90.7971 136.918Z" fill="#332E2E"/>
<path d="M78.4969 115.028C77.3099 115.028 76.1569 114.631 75.2211 113.901L71.7377 111.191C71.5301 111.039 71.2729 110.97 71.017 110.999L66.6492 111.606C65.4727 111.774 64.2738 111.542 63.2444 110.948C62.215 110.354 61.4145 109.432 60.971 108.33L59.3178 104.248C59.2699 104.126 59.1981 104.015 59.1066 103.921C59.0151 103.827 58.9057 103.753 58.7849 103.702L54.7032 102.049C53.6015 101.604 52.6804 100.803 52.0868 99.7743C51.4931 98.7452 51.2609 97.5471 51.4273 96.3707L52.0322 92.0029C52.0506 91.8755 52.0429 91.7457 52.0094 91.6215C51.976 91.4972 51.9176 91.381 51.8379 91.28L49.1276 87.7858C48.3969 86.8501 48 85.697 48 84.5099C48 83.3227 48.3969 82.1696 49.1276 81.234L51.8335 77.7397C51.9132 77.6382 51.9716 77.5217 52.0054 77.3972C52.0391 77.2726 52.0475 77.1425 52.03 77.0147L51.4251 72.6468C51.2587 71.4705 51.4909 70.2723 52.0846 69.2432C52.6783 68.2142 53.5993 67.4134 54.701 66.9687L58.7849 65.3133C58.9047 65.2654 59.0135 65.1936 59.1047 65.1024C59.196 65.0112 59.2677 64.9024 59.3156 64.7826L60.971 60.6986C61.4152 59.5965 62.2158 58.675 63.245 58.0812C64.2742 57.4874 65.4728 57.2556 66.6492 57.4228L71.017 58.0299C71.1449 58.0478 71.275 58.0396 71.3997 58.0058C71.5243 57.972 71.6407 57.9133 71.7421 57.8333L75.2232 55.1253C76.1595 54.396 77.3123 54 78.4991 54C79.6859 54 80.8387 54.396 81.775 55.1253L85.2583 57.8355C85.3598 57.9151 85.4764 57.9734 85.601 58.0068C85.7256 58.0402 85.8557 58.0481 85.9834 58.0299L90.3512 57.4228C91.5276 57.2564 92.7258 57.4885 93.7548 58.0822C94.7839 58.6759 95.5846 59.597 96.0294 60.6986L97.6826 64.7826C97.7317 64.9027 97.8043 65.0117 97.8962 65.1032C97.9881 65.1948 98.0974 65.2669 98.2177 65.3154L102.299 66.9687C103.4 67.4144 104.321 68.2153 104.914 69.2441C105.508 70.2729 105.741 71.4706 105.575 72.6468L104.968 77.0147C104.935 77.2719 105.005 77.5319 105.163 77.7376L107.871 81.2318C108.602 82.167 109 83.3202 109 84.5077C109 85.6951 108.602 86.8484 107.871 87.7836L105.16 91.2669C105.004 91.4731 104.934 91.7329 104.968 91.9898L105.575 96.3576C105.741 97.5338 105.508 98.7315 104.914 99.7603C104.321 100.789 103.4 101.59 102.299 102.036L98.2068 103.702C98.0867 103.751 97.9776 103.823 97.8858 103.915C97.7939 104.006 97.7212 104.115 97.6717 104.235L96.0207 108.317C95.5749 109.418 94.774 110.338 93.7452 110.932C92.7164 111.525 91.5187 111.758 90.3425 111.593L85.9747 110.985C85.7168 110.952 85.4563 111.022 85.2496 111.18L81.7684 113.888C80.8358 114.622 79.6841 115.024 78.4969 115.028ZM71.1393 106.622C72.3249 106.624 73.4766 107.018 74.4152 107.742L77.9095 110.455C78.0789 110.586 78.2871 110.657 78.5013 110.657C78.7155 110.657 78.9237 110.586 79.0931 110.455L82.5743 107.745C83.1379 107.308 83.7828 106.989 84.4712 106.805C85.1597 106.621 85.8779 106.576 86.584 106.672L90.9518 107.277C91.1649 107.312 91.3837 107.273 91.5708 107.165C91.7579 107.057 91.9019 106.887 91.9783 106.685L93.6315 102.601C93.9012 101.94 94.3007 101.338 94.8062 100.833C95.3118 100.328 95.9133 99.929 96.5754 99.6597L100.659 98.0065C100.858 97.9258 101.025 97.781 101.132 97.595C101.239 97.4091 101.281 97.1926 101.251 96.98L100.646 92.6122C100.549 91.9075 100.594 91.1905 100.777 90.5032C100.961 89.8159 101.279 89.172 101.714 88.6091L104.427 85.1148C104.558 84.946 104.63 84.7381 104.63 84.5241C104.63 84.31 104.558 84.1021 104.427 83.9333L101.719 80.4391C101.283 79.8782 100.964 79.2364 100.779 78.5511C100.594 77.8657 100.548 77.1504 100.642 76.4469L101.247 72.079C101.277 71.8664 101.235 71.65 101.127 71.464C101.02 71.2781 100.854 71.1332 100.655 71.0526L96.571 69.3972C95.9094 69.1282 95.3082 68.7296 94.803 68.2248C94.2978 67.7199 93.8987 67.1191 93.6293 66.4576L91.9739 62.3737C91.8949 62.1734 91.7505 62.0057 91.5641 61.8979C91.3778 61.7901 91.1605 61.7484 90.9474 61.7797L86.5796 62.3868C85.8742 62.4835 85.1566 62.4385 84.4689 62.2544C83.7811 62.0703 83.137 61.7507 82.5743 61.3145L79.08 58.6043C78.911 58.4721 78.7027 58.4004 78.4882 58.4004C78.2737 58.4004 78.0653 58.4721 77.8964 58.6043L74.4021 61.3123C73.8383 61.7467 73.1942 62.0652 72.5068 62.2497C71.8194 62.4341 71.1023 62.4807 70.3968 62.3868L66.029 61.7797C65.8162 61.7508 65.5999 61.7934 65.414 61.901C65.2282 62.0085 65.0834 62.1748 65.0025 62.3737L63.3471 66.4576C63.0778 67.1188 62.679 67.7195 62.1742 68.2243C61.6694 68.7291 61.0687 69.1279 60.4076 69.3972L56.3236 71.0504C56.1248 71.1313 55.9584 71.2761 55.8509 71.4619C55.7434 71.6478 55.7007 71.8641 55.7296 72.0768L56.3367 76.4447C56.4333 77.1507 56.3878 77.8689 56.2029 78.5571C56.018 79.2453 55.6974 79.8896 55.2601 80.4522L52.5738 83.9377C52.4417 84.1067 52.37 84.315 52.37 84.5295C52.37 84.744 52.4417 84.9524 52.5738 85.1214L55.2841 88.6156C55.72 89.1785 56.0393 89.8226 56.2235 90.5103C56.4076 91.1981 56.4528 91.9156 56.3564 92.6209L55.7493 96.9888C55.7196 97.2016 55.7619 97.4183 55.8695 97.6043C55.9772 97.7903 56.1439 97.9349 56.3433 98.0152L60.4272 99.6706C61.0882 99.9402 61.6887 100.339 62.1935 100.844C62.6983 101.349 63.0972 101.949 63.3668 102.61L65.0222 106.696C65.1034 106.894 65.248 107.06 65.4333 107.167C65.6187 107.274 65.8343 107.317 66.0464 107.288L70.4143 106.683C70.6543 106.647 70.8965 106.626 71.1393 106.622Z" fill="#332E2E"/>
<path d="M78.4969 115.028C77.3099 115.028 76.1569 114.631 75.2211 113.901L71.7377 111.191C71.5301 111.039 71.2729 110.97 71.017 110.999L66.6492 111.606C65.4727 111.774 64.2738 111.542 63.2444 110.948C62.215 110.354 61.4145 109.432 60.971 108.33L59.3178 104.248C59.2699 104.126 59.1981 104.015 59.1066 103.921C59.0151 103.827 58.9057 103.753 58.7849 103.702L54.7032 102.049C53.6015 101.604 52.6804 100.803 52.0868 99.7743C51.4931 98.7452 51.2609 97.5471 51.4273 96.3707L52.0322 92.0029C52.0506 91.8755 52.0429 91.7457 52.0094 91.6215C51.976 91.4972 51.9176 91.381 51.8379 91.28L49.1276 87.7858C48.3969 86.8501 48 85.697 48 84.5099C48 83.3227 48.3969 82.1696 49.1276 81.234L51.8335 77.7397C51.9132 77.6382 51.9716 77.5217 52.0054 77.3972C52.0391 77.2726 52.0475 77.1425 52.03 77.0147L51.4251 72.6468C51.2587 71.4705 51.4909 70.2723 52.0846 69.2432C52.6783 68.2142 53.5993 67.4134 54.701 66.9687L58.7849 65.3133C58.9047 65.2654 59.0135 65.1936 59.1047 65.1024C59.196 65.0112 59.2677 64.9024 59.3156 64.7826L60.971 60.6986C61.4152 59.5965 62.2158 58.675 63.245 58.0812C64.2742 57.4874 65.4728 57.2556 66.6492 57.4228L71.017 58.0299C71.1449 58.0478 71.275 58.0396 71.3997 58.0058C71.5243 57.972 71.6407 57.9133 71.7421 57.8333L75.2232 55.1253C76.1595 54.396 77.3123 54 78.4991 54C79.6859 54 80.8387 54.396 81.775 55.1253L85.2583 57.8355C85.3598 57.9151 85.4764 57.9734 85.601 58.0068C85.7256 58.0402 85.8557 58.0481 85.9834 58.0299L90.3512 57.4228C91.5276 57.2564 92.7258 57.4885 93.7548 58.0822C94.7839 58.6759 95.5846 59.597 96.0294 60.6986L97.6826 64.7826C97.7317 64.9027 97.8043 65.0117 97.8962 65.1032C97.9881 65.1948 98.0974 65.2669 98.2177 65.3154L102.299 66.9687C103.4 67.4144 104.321 68.2153 104.914 69.2441C105.508 70.2729 105.741 71.4706 105.575 72.6468L104.968 77.0147C104.935 77.2719 105.005 77.5319 105.163 77.7376L107.871 81.2318C108.602 82.167 109 83.3202 109 84.5077C109 85.6951 108.602 86.8484 107.871 87.7836L105.16 91.2669C105.004 91.4731 104.934 91.7329 104.968 91.9898L105.575 96.3576C105.741 97.5338 105.508 98.7315 104.914 99.7603C104.321 100.789 103.4 101.59 102.299 102.036L98.2068 103.702C98.0867 103.751 97.9776 103.823 97.8858 103.915C97.7939 104.006 97.7212 104.115 97.6717 104.235L96.0207 108.317C95.5749 109.418 94.774 110.338 93.7452 110.932C92.7164 111.525 91.5187 111.758 90.3425 111.593L85.9747 110.985C85.7168 110.952 85.4563 111.022 85.2496 111.18L81.7684 113.888C80.8358 114.622 79.6841 115.024 78.4969 115.028ZM71.1393 106.622C72.3249 106.624 73.4766 107.018 74.4152 107.742L77.9095 110.455C78.0789 110.586 78.2871 110.657 78.5013 110.657C78.7155 110.657 78.9237 110.586 79.0931 110.455L82.5743 107.745C83.1379 107.308 83.7828 106.989 84.4712 106.805C85.1597 106.621 85.8779 106.576 86.584 106.672L90.9518 107.277C91.1649 107.312 91.3837 107.273 91.5708 107.165C91.7579 107.057 91.9019 106.887 91.9783 106.685L93.6315 102.601C93.9012 101.94 94.3007 101.338 94.8062 100.833C95.3118 100.328 95.9133 99.929 96.5754 99.6597L100.659 98.0065C100.858 97.9258 101.025 97.781 101.132 97.595C101.239 97.4091 101.281 97.1926 101.251 96.98L100.646 92.6122C100.549 91.9075 100.594 91.1905 100.777 90.5032C100.961 89.8159 101.279 89.172 101.714 88.6091L104.427 85.1148C104.558 84.946 104.63 84.7381 104.63 84.5241C104.63 84.31 104.558 84.1021 104.427 83.9333L101.719 80.4391C101.283 79.8782 100.964 79.2364 100.779 78.5511C100.594 77.8657 100.548 77.1504 100.642 76.4469L101.247 72.079C101.277 71.8664 101.235 71.65 101.127 71.464C101.02 71.2781 100.854 71.1332 100.655 71.0526L96.571 69.3972C95.9094 69.1282 95.3082 68.7296 94.803 68.2248C94.2978 67.7199 93.8987 67.1191 93.6293 66.4576L91.9739 62.3737C91.8949 62.1734 91.7505 62.0057 91.5641 61.8979C91.3778 61.7901 91.1605 61.7484 90.9474 61.7797L86.5796 62.3868C85.8742 62.4835 85.1566 62.4385 84.4689 62.2544C83.7811 62.0703 83.137 61.7507 82.5743 61.3145L79.08 58.6043C78.911 58.4721 78.7027 58.4004 78.4882 58.4004C78.2737 58.4004 78.0653 58.4721 77.8964 58.6043L74.4021 61.3123C73.8383 61.7467 73.1942 62.0652 72.5068 62.2497C71.8194 62.4341 71.1023 62.4807 70.3968 62.3868L66.029 61.7797C65.8162 61.7508 65.5999 61.7934 65.414 61.901C65.2282 62.0085 65.0834 62.1748 65.0025 62.3737L63.3471 66.4576C63.0778 67.1188 62.679 67.7195 62.1742 68.2243C61.6694 68.7291 61.0687 69.1279 60.4076 69.3972L56.3236 71.0504C56.1248 71.1313 55.9584 71.2761 55.8509 71.4619C55.7434 71.6478 55.7007 71.8641 55.7296 72.0768L56.3367 76.4447C56.4333 77.1507 56.3878 77.8689 56.2029 78.5571C56.018 79.2453 55.6974 79.8896 55.2601 80.4522L52.5738 83.9377C52.4417 84.1067 52.37 84.315 52.37 84.5295C52.37 84.744 52.4417 84.9524 52.5738 85.1214L55.2841 88.6156C55.72 89.1785 56.0393 89.8226 56.2235 90.5103C56.4076 91.1981 56.4528 91.9156 56.3564 92.6209L55.7493 96.9888C55.7196 97.2016 55.7619 97.4183 55.8695 97.6043C55.9772 97.7903 56.1439 97.9349 56.3433 98.0152L60.4272 99.6706C61.0882 99.9402 61.6887 100.339 62.1935 100.844C62.6983 101.349 63.0972 101.949 63.3668 102.61L65.0222 106.696C65.1034 106.894 65.248 107.06 65.4333 107.167C65.6187 107.274 65.8343 107.317 66.0464 107.288L70.4143 106.683C70.6543 106.647 70.8965 106.626 71.1393 106.622Z" fill="#332E2E"/>
<path d="M70.7487 98.6361C70.4307 98.6359 70.1167 98.5663 69.8285 98.4321C69.5402 98.298 69.2848 98.1025 69.0799 97.8594C68.8751 97.6163 68.7258 97.3314 68.6424 97.0245C68.5591 96.7177 68.5438 96.3964 68.5975 96.0831L69.8816 88.5879L64.4371 83.2788C64.149 82.9939 63.9457 82.6345 63.8502 82.2407C63.7546 81.8469 63.7705 81.4343 63.8961 81.049C64.0216 80.6637 64.2519 80.321 64.5611 80.0591C64.8703 79.7972 65.2463 79.6265 65.647 79.5661L73.1728 78.4742L76.5382 71.656C76.7392 71.3155 77.0255 71.0333 77.3688 70.8372C77.7122 70.6412 78.1007 70.5381 78.4961 70.5381C78.8915 70.5381 79.28 70.6412 79.6234 70.8372C79.9667 71.0333 80.253 71.3155 80.454 71.656L83.826 78.4611L91.3495 79.553C91.7531 79.6113 92.1323 79.7813 92.4442 80.0439C92.7561 80.3065 92.9882 80.6512 93.1144 81.0389C93.2405 81.4267 93.2556 81.842 93.1579 82.2378C93.0602 82.6337 92.8537 82.9943 92.5616 83.2788L87.1018 88.5879L88.386 96.0831C88.4545 96.4844 88.4095 96.8969 88.256 97.274C88.1025 97.6511 87.8466 97.9778 87.5173 98.2172C87.188 98.4566 86.7983 98.5991 86.3922 98.6288C85.9862 98.6584 85.5799 98.574 85.2193 98.3849L78.4863 94.847L71.7576 98.3849C71.4464 98.5487 71.1003 98.6348 70.7487 98.6361ZM78.495 90.1953C78.8489 90.1955 79.1974 90.2817 79.5105 90.4464L83.3433 92.4622L82.6117 88.197C82.5517 87.8481 82.5774 87.4899 82.6866 87.1533C82.7958 86.8166 82.9852 86.5115 83.2385 86.2642L86.3396 83.2438L82.057 82.6214C81.7066 82.5705 81.3738 82.4352 81.0873 82.2271C80.8008 82.019 80.5692 81.7443 80.4125 81.4268L78.495 77.5438L76.5797 81.4268C76.4233 81.7448 76.1918 82.0198 75.9053 82.2283C75.6188 82.4368 75.2859 82.5725 74.9352 82.6236L70.6526 83.246L73.7515 86.2664C74.0048 86.5136 74.1942 86.8187 74.3034 87.1554C74.4126 87.4921 74.4383 87.8503 74.3783 88.1992L73.6489 92.4665L77.4773 90.4508C77.7911 90.2852 78.1402 90.1976 78.495 90.1953Z" fill="#332E2E"/>
</svg>
