<svg id="Layer_1" data-name="Layer 1" xmlns="http://www.w3.org/2000/svg" viewBox="0 0 128 106"><defs><style>.cls-1{fill:#332e2e;}</style></defs><path class="cls-1" d="M112.53,21.11H15.93C7.23,21.11.23,27,.23,34.33V51.62A3.09,3.09,0,0,0,2,54.26,134.72,134.72,0,0,0,32.13,65.1a31.79,31.79,0,0,0,.45-6.21,125.12,125.12,0,0,1-25.11-9V34.33c0-4,3.75-7.12,8.46-7.12h96.6c4.71,0,8.45,3.15,8.45,7.12V49.89a124.53,124.53,0,0,1-22.52,8.34c0,2.11.08,4.22.13,6.33a134.88,134.88,0,0,0,27.83-10.3,3.11,3.11,0,0,0,1.81-2.64V34.33C128.23,27,121.23,21.11,112.53,21.11Z" transform="translate(-0.23 -0.27)"/><path class="cls-1" d="M42.49,19.59A3.56,3.56,0,0,0,46.12,16a8.4,8.4,0,0,1,8.45-8.45H73.89A8.4,8.4,0,0,1,82.34,16a3.63,3.63,0,1,0,7.25,0A15.67,15.67,0,0,0,73.89.27H54.57A15.66,15.66,0,0,0,38.87,16,3.56,3.56,0,0,0,42.49,19.59Z" transform="translate(-0.23 -0.27)"/><path class="cls-1" d="M124.61,61.21c-2.06,0-3.63,1.33-3.63,3.07V93c0,4-3.74,7.17-8.45,7.17H15.93c-4.71,0-8.46-3.17-8.46-7.17V64.28c0-1.74-1.57-3.07-3.62-3.07S.23,62.54.23,64.28V93c0,7.38,7,13.32,15.7,13.32h96.6c8.7,0,15.7-5.94,15.7-13.32V64.28C128.23,62.54,126.66,61.21,124.61,61.21Z" transform="translate(-0.23 -0.27)"/><path class="cls-1" d="M55,98.84a1.74,1.74,0,0,1-1.54-.93l-2.53-4.83L45.7,94.74a1.73,1.73,0,0,1-2.19-1.12,1.8,1.8,0,0,1,.06-1.21L51,75.08a1.73,1.73,0,0,1,3.19,1.36L48.25,90.29l3-1a1.73,1.73,0,0,1,2.06.84l1.51,2.88,6.35-14.91a1.73,1.73,0,1,1,3.22,1.27l0,.09L56.55,97.79a1.73,1.73,0,0,1-1.52,1Z" transform="translate(-0.23 -0.27)"/><path class="cls-1" d="M74.51,98.84h-.08a1.73,1.73,0,0,1-1.52-1L65.16,79.5a1.73,1.73,0,1,1,3.19-1.35l6.33,14.91,1.51-2.88a1.73,1.73,0,0,1,2.06-.84l3,.94-5.9-13.8A1.73,1.73,0,1,1,78.46,75a.2.2,0,0,1,0,.08l7.39,17.29a1.73,1.73,0,0,1-2.12,2.33l-5.19-1.66L76,97.91a1.73,1.73,0,0,1-1.53.93Z" transform="translate(-0.23 -0.27)"/><path class="cls-1" d="M64.74,81.46a4.22,4.22,0,0,1-2.6-.89l-2.77-2.15a.78.78,0,0,0-.57-.16l-3.47.48a4.21,4.21,0,0,1-4.51-2.6L49.51,72.9a.77.77,0,0,0-.42-.43l-3.24-1.31a4.23,4.23,0,0,1-2.6-4.51l.48-3.47a.74.74,0,0,0-.16-.57l-2.15-2.78a4.23,4.23,0,0,1,0-5.2l2.15-2.77a.81.81,0,0,0,.16-.58l-.48-3.47a4.22,4.22,0,0,1,2.6-4.51L49.09,42a.79.79,0,0,0,.42-.42l1.31-3.24a4.23,4.23,0,0,1,4.51-2.61l3.47.49a.76.76,0,0,0,.58-.16l2.76-2.15a4.23,4.23,0,0,1,5.2,0l2.77,2.15a.74.74,0,0,0,.57.16l3.47-.49a4.24,4.24,0,0,1,4.51,2.61L80,41.57a.77.77,0,0,0,.43.42l3.24,1.31a4.23,4.23,0,0,1,2.6,4.51l-.48,3.47a.78.78,0,0,0,.15.57l2.15,2.78a4.21,4.21,0,0,1,0,5.2L85.91,62.6a.78.78,0,0,0-.15.57l.48,3.47a4.23,4.23,0,0,1-2.6,4.51l-3.25,1.32a.8.8,0,0,0-.43.42l-1.31,3.24a4.22,4.22,0,0,1-4.51,2.6l-3.46-.48a.81.81,0,0,0-.58.16l-2.76,2.15a4.23,4.23,0,0,1-2.6.9ZM58.9,74.79a4.24,4.24,0,0,1,2.6.89l2.77,2.15a.75.75,0,0,0,.94,0L68,75.68a4.22,4.22,0,0,1,3.18-.85l3.47.48a.73.73,0,0,0,.81-.47l1.32-3.24a4.22,4.22,0,0,1,2.33-2.34L82.34,68a.79.79,0,0,0,.47-.82l-.48-3.47a4.24,4.24,0,0,1,.84-3.17l2.16-2.78a.78.78,0,0,0,0-.94L83.18,54a4.25,4.25,0,0,1-.86-3.17l.48-3.47a.75.75,0,0,0-.47-.81l-3.24-1.32a4.28,4.28,0,0,1-2.34-2.33l-1.31-3.24a.76.76,0,0,0-.81-.48l-3.47.49A4.27,4.27,0,0,1,68,38.81L65.2,36.66a.78.78,0,0,0-.94,0l-2.77,2.15a4.28,4.28,0,0,1-3.18.86l-3.47-.49a.77.77,0,0,0-.81.48L52.71,42.9a4.23,4.23,0,0,1-2.33,2.33l-3.25,1.31a.79.79,0,0,0-.47.82l.48,3.47A4.22,4.22,0,0,1,46.29,54l-2.13,2.77a.75.75,0,0,0,0,.94l2.15,2.77a4.22,4.22,0,0,1,.85,3.18l-.48,3.47a.75.75,0,0,0,.47.81l3.24,1.32a4.28,4.28,0,0,1,2.34,2.33L54,74.85a.78.78,0,0,0,.81.47l3.47-.48A3.79,3.79,0,0,1,58.9,74.79Z" transform="translate(-0.23 -0.27)"/><path class="cls-1" d="M64.74,81.46a4.22,4.22,0,0,1-2.6-.89l-2.77-2.15a.78.78,0,0,0-.57-.16l-3.47.48a4.21,4.21,0,0,1-4.51-2.6L49.51,72.9a.77.77,0,0,0-.42-.43l-3.24-1.31a4.23,4.23,0,0,1-2.6-4.51l.48-3.47a.74.74,0,0,0-.16-.57l-2.15-2.78a4.23,4.23,0,0,1,0-5.2l2.15-2.77a.81.81,0,0,0,.16-.58l-.48-3.47a4.22,4.22,0,0,1,2.6-4.51L49.09,42a.79.79,0,0,0,.42-.42l1.31-3.24a4.23,4.23,0,0,1,4.51-2.61l3.47.49a.76.76,0,0,0,.58-.16l2.76-2.15a4.23,4.23,0,0,1,5.2,0l2.77,2.15a.74.74,0,0,0,.57.16l3.47-.49a4.24,4.24,0,0,1,4.51,2.61L80,41.57a.77.77,0,0,0,.43.42l3.24,1.31a4.23,4.23,0,0,1,2.6,4.51l-.48,3.47a.78.78,0,0,0,.15.57l2.15,2.78a4.21,4.21,0,0,1,0,5.2L85.91,62.6a.78.78,0,0,0-.15.57l.48,3.47a4.23,4.23,0,0,1-2.6,4.51l-3.25,1.32a.8.8,0,0,0-.43.42l-1.31,3.24a4.22,4.22,0,0,1-4.51,2.6l-3.46-.48a.81.81,0,0,0-.58.16l-2.76,2.15a4.23,4.23,0,0,1-2.6.9ZM58.9,74.79a4.24,4.24,0,0,1,2.6.89l2.77,2.15a.75.75,0,0,0,.94,0L68,75.68a4.22,4.22,0,0,1,3.18-.85l3.47.48a.73.73,0,0,0,.81-.47l1.32-3.24a4.22,4.22,0,0,1,2.33-2.34L82.34,68a.79.79,0,0,0,.47-.82l-.48-3.47a4.24,4.24,0,0,1,.84-3.17l2.16-2.78a.78.78,0,0,0,0-.94L83.18,54a4.25,4.25,0,0,1-.86-3.17l.48-3.47a.75.75,0,0,0-.47-.81l-3.24-1.32a4.28,4.28,0,0,1-2.34-2.33l-1.31-3.24a.76.76,0,0,0-.81-.48l-3.47.49A4.27,4.27,0,0,1,68,38.81L65.2,36.66a.78.78,0,0,0-.94,0l-2.77,2.15a4.28,4.28,0,0,1-3.18.86l-3.47-.49a.77.77,0,0,0-.81.48L52.71,42.9a4.23,4.23,0,0,1-2.33,2.33l-3.25,1.31a.79.79,0,0,0-.47.82l.48,3.47A4.22,4.22,0,0,1,46.29,54l-2.13,2.77a.75.75,0,0,0,0,.94l2.15,2.77a4.22,4.22,0,0,1,.85,3.18l-.48,3.47a.75.75,0,0,0,.47.81l3.24,1.32a4.28,4.28,0,0,1,2.34,2.33L54,74.85a.78.78,0,0,0,.81.47l3.47-.48A3.79,3.79,0,0,1,58.9,74.79Z" transform="translate(-0.23 -0.27)"/><path class="cls-1" d="M58.59,68.45a1.74,1.74,0,0,1-1.74-1.74,1.43,1.43,0,0,1,0-.29l1-6-4.32-4.22a1.74,1.74,0,0,1,0-2.45,1.76,1.76,0,0,1,1-.49l6-.87L63.18,47a1.81,1.81,0,0,1,2.48-.64,1.68,1.68,0,0,1,.63.64L69,52.43l6,.87a1.72,1.72,0,0,1,1.47,2,1.68,1.68,0,0,1-.5,1l-4.34,4.22,1,6a1.73,1.73,0,0,1-1.42,2,1.78,1.78,0,0,1-1.09-.17l-5.35-2.81-5.34,2.81a1.72,1.72,0,0,1-.8.2Zm6.15-6.71a1.82,1.82,0,0,1,.8.2l3,1.6L68,60.16a1.76,1.76,0,0,1,.49-1.54L71,56.23l-3.4-.5a1.73,1.73,0,0,1-1.31-.95L64.74,51.7l-1.52,3.08a1.71,1.71,0,0,1-1.31.95l-3.4.5L61,58.63a1.71,1.71,0,0,1,.5,1.53l-.58,3.39,3-1.6a1.91,1.91,0,0,1,.81-.21Z" transform="translate(-0.23 -0.27)"/></svg>