<svg width="198" height="144" fill="none" xmlns="http://www.w3.org/2000/svg"><path d="M181.15 84.33l-18.36-5.4a3 3 0 00-.27-.07l-2.88-.58a1.48 1.48 0 01-1.18-1.45v-1.38a29.32 29.32 0 0015.83-18h2.22c3.92 0 7.1-3.2 7.1-7.11v-4.65c0-2.1-.92-4.06-2.47-5.38v-5.13A30.31 30.31 0 00150.87 4.9h-8.95a30.31 30.31 0 00-30.28 30.28v5.13a7.11 7.11 0 00-2.47 5.38v4.65c0 3.92 3.19 7.1 7.1 7.1h2.22a29.33 29.33 0 0015.32 17.77v1.73c0 .7-.5 1.3-1.19 1.44l-2.3.47h-.05l-.27.08-18.36 5.4a23.58 23.58 0 00-14.4 12.14 22.04 22.04 0 00-4.57-5.21l7.08-2.24a9.29 9.29 0 006.46-9.4 125.36 125.36 0 00-9.68-40.48C87.32 17.26 74.13 8.88 64.3 5.74a13.78 13.78 0 00-22.37 0C32.1 8.88 18.9 17.26 9.7 39.14A125.34 125.34 0 00.02 79.62a9.29 9.29 0 006.46 9.4l7.08 2.24a21.86 21.86 0 00-7.93 16.76v32.45c0 1.6 1.3 2.9 2.9 2.9l186.57-.02c1.6 0 2.9-1.3 2.9-2.9v-33.59c0-10.34-6.93-19.6-16.85-22.53zM91.17 41.4a119.38 119.38 0 019.24 38.56c.1 1.6-.9 3.05-2.42 3.53l-12.3 3.9-.7-.22-16.82-4.95a2.82 2.82 0 00-.25-.06l-2.63-.53a1.1 1.1 0 01-.89-1.08V79.2l.33-.15.9-.43.45-.22a28.83 28.83 0 002.21-1.28c.1-.05.18-.11.27-.17.37-.24.72-.48 1.08-.74l.1-.07A28.45 28.45 0 0080.2 61.58h2.14a6.98 6.98 0 006.97-6.97v-4.5a6.98 6.98 0 00-.14-1.4l-.01-.04a7 7 0 00-.4-1.26l-.02-.06a7.01 7.01 0 00-.24-.5l-.06-.12-.31-.5-.05-.07a7 7 0 00-.32-.42l-.08-.1c-.13-.16-.26-.3-.4-.44l-.07-.07a7.21 7.21 0 00-.38-.35l-.1-.08c-.15-.13-.3-.24-.47-.35l-.1-.06-.21-.15c0-.48-.02-.96-.04-1.44l-.03-.52-.07-.9-.06-.68-.03-.23A32.79 32.79 0 0074.7 19.49c-.56-.5-1.13-.96-1.72-1.41l-.08-.07-.55-.4a33.74 33.74 0 00-2.1-1.4c-.05-.04-.1-.08-.17-.11-.42-.26-.84-.5-1.28-.74l-.2-.1-1.13-.59-.26-.13-.32-.15a13.9 13.9 0 00-.01-1.36V13c7.92 3.76 17.26 11.73 24.28 28.4zM64.08 56.84c1.6 0 2.9-1.3 2.9-2.9v-3.25c0-.66-.22-1.26-.59-1.75h9.26v4.26c0 .4 0 .8-.03 1.2v.09l-.1 1.14v.03l-.16 1.17-.01.06a23.3 23.3 0 01-.64 2.74l-.14.46a20.85 20.85 0 01-.56 1.53c-.25.62-.52 1.22-.82 1.81l-.03.05A22.8 22.8 0 0166.9 71l-.08.07a22.17 22.17 0 01-4.92 2.88l-.1.04a22.69 22.69 0 01-1.09.42l-.53.18-.49.16-.5.14c-.28.08-.57.16-.86.22l-.57.14-.47.09-.57.1-.46.07a22.34 22.34 0 01-1.72.17l-.36.02a22.56 22.56 0 01-2.16 0l-.33-.02-.76-.06c-.12 0-.24-.02-.37-.04l-.71-.09-.36-.06a22.4 22.4 0 01-1.82-.37L47.4 75c-.29-.07-.57-.15-.85-.24l-.17-.05a22.4 22.4 0 01-4.9-2.2 21.75 21.75 0 01-1.17-.77l-.15-.1a22.87 22.87 0 01-8-10.17l-.04-.08c-.14-.37-.28-.74-.4-1.11l-.06-.2c-.06-.15-.1-.32-.15-.48a23.6 23.6 0 01-.62-2.7l-.02-.07c-.06-.39-.11-.77-.15-1.16l-.01-.04a22.4 22.4 0 01-.1-1.13v-.1l-.03-1.2v-4.67l.08-.03.31-.15.12-.06.4-.24h.02l.37-.28.1-.08.27-.23.1-.1c.22-.22.43-.46.61-.72l.08-.11.2-.3.06-.13a5.52 5.52 0 00.37-.86l2.14-8.03a1 1 0 01.69-.72 1 1 0 01.98.2c10.4 8.77 18.7 11.54 24.39 12.12a2.9 2.9 0 00-.7 1.88v3.25c0 1.6 1.3 2.9 2.91 2.9zm17.26-1.07l.04-.53.05-.68c.02-.45.03-.9.03-1.36v-4.26h.88c.64 0 1.16.52 1.16 1.16v4.5c0 .65-.52 1.17-1.16 1.17h-1zM45.28 12.25l.14-.6.04-.12.16-.5.07-.16.2-.46.05-.12a8 8 0 0114.35 0l.05.12.2.46.07.17.16.49.03.12.15.6v.05l-1.12-.25-.3-.06c-.44-.09-.89-.17-1.34-.24l-.1-.02c-.49-.07-.97-.13-1.46-.18l-.29-.03a33.3 33.3 0 00-1.44-.11l-.26-.02a33.4 33.4 0 00-3.05 0l-.26.02c-.49.02-.97.06-1.45.1l-.28.04c-.49.05-.97.1-1.45.18l-.11.02-1.35.24-.3.06-1.12.25.01-.05zm-4.88 8.1l.17-.1a26.9 26.9 0 012.19-1.02l.26-.1a26.5 26.5 0 014.43-1.36l.56-.12.71-.12.54-.09.77-.1.5-.05.86-.07.43-.02a27.27 27.27 0 012.6 0l.42.02.86.07.5.06.77.1.54.08a28.15 28.15 0 013.73.89 26.26 26.26 0 011.97.7l.26.1c.75.32 1.48.66 2.19 1.04l.17.09a26.54 26.54 0 011.87 1.1l.28.19a27.54 27.54 0 011.42 1l.34.27.65.52.13.12a27.24 27.24 0 019.44 17.62l.04.4.05.57a26.17 26.17 0 01.06 1H64.3c-8.87 0-18.27-6.83-23.09-10.9a6.86 6.86 0 00-.43-.33l-.13-.08a6.6 6.6 0 00-.36-.23l-.1-.07a6.88 6.88 0 00-.47-.25l-.11-.04a6.76 6.76 0 00-.4-.17l-.14-.05-.47-.15h-.03a6.8 6.8 0 00-.52-.12l-.15-.03a6.92 6.92 0 00-.4-.05l-.14-.02a6.95 6.95 0 00-.52-.02h-.14a7 7 0 00-.34.02l-.17.01-.32.04-.17.02a6.9 6.9 0 00-.33.07l-.15.03-.47.13a6.8 6.8 0 00-4.56 4.76l-1.98 7.42h-2.1a21.94 21.94 0 01.05-.99l.05-.57.05-.4c.78-6.9 4.23-13.2 9.43-17.62l.14-.12a28 28 0 01.64-.52l.34-.26a27.03 27.03 0 011.42-1.01l.28-.18a26.78 26.78 0 011.88-1.11zM8.24 83.48a3.48 3.48 0 01-2.43-3.53 119.4 119.4 0 019.25-38.56C22.07 24.72 31.42 16.75 39.34 13v.04a13.84 13.84 0 000 1.36l-.33.15c-.09.05-.18.1-.27.13l-1.12.58-.2.11c-.44.24-.86.48-1.28.74l-.18.11a32.8 32.8 0 00-2.09 1.4l-.55.4-.06.05a32.83 32.83 0 00-12.75 22.31l-.03.24-.06.68-.07.89-.03.52c-.02.48-.04.96-.04 1.44l-.22.15-.1.06c-.16.1-.31.23-.46.35l-.1.08-.38.35-.08.07-.4.43-.07.1-.32.43-.05.07a6.9 6.9 0 00-.3.5l-.07.13c-.09.16-.17.32-.24.49l-.03.06-.2.56-.05.14-.14.56v.04c-.05.2-.08.4-.1.6l-.02.16-.03.63v4.51a6.98 6.98 0 006.97 6.97h2.14v.02l.19.54a28.16 28.16 0 0014.55 16.58l.11.05.47.23v1.63c0 .53-.37.98-.89 1.08l-2.16.44-.24.06-16.83 4.95h-.01l-.67.22-12.31-3.9zM24.8 54.56l.05.67.03.54h-.99c-.64 0-1.16-.52-1.16-1.16v-4.5c0-.65.52-1.17 1.16-1.17h.88v4.26l.03 1.36zm69.99 83h-8v-27.4c0-1.45-.48-2.89-1.34-4.05a19.71 19.71 0 00-15.76-7.94 19.57 19.57 0 00-15.08 7.07 1.92 1.92 0 01-2.99 0 19.57 19.57 0 00-15.08-7.07 19.71 19.71 0 00-15.77 7.94 6.86 6.86 0 00-1.33 4.06v5.2a2.9 2.9 0 005.8 0v-5.2c0-.22.08-.43.2-.6a13.77 13.77 0 0121.71-.61 7.73 7.73 0 0011.92 0 13.77 13.77 0 0121.72.61c.12.17.19.38.19.6v27.4H25.25v-8.68a2.9 2.9 0 00-5.81 0v8.67h-8v-29.54c0-6.75 4.35-12.83 10.68-15.04l.14-.05.24-.08.38-.12 16.7-4.91 2.03-.41c.2-.04.4-.1.58-.15l.2-.06.36-.13.22-.1.32-.14.22-.12.3-.16.21-.14.26-.18.22-.16.24-.2.2-.18.22-.2.18-.2.2-.23.17-.22.18-.24.16-.23.15-.25.14-.25c.04-.08.1-.17.13-.26l.12-.26a6.6 6.6 0 00.55-2.27l.01-.16.15.03.64.12c.25.04.5.1.75.13l.75.1.65.09.85.07.57.04.9.03.55.01h.15l.77-.01.52-.01.96-.07.48-.03.97-.12.46-.06c.34-.05.67-.1 1.01-.17l.33-.06v.07l.04.26.04.33.05.25.07.32.07.25a6.8 6.8 0 001.56 2.73l.18.2.23.2.19.18.24.2.2.15.28.18.2.14.3.16.22.11.31.14.22.1.37.12.18.07.58.14 2.51.5 16.7 4.92.63.2.07.03a16.03 16.03 0 0110.74 15.06v29.54zm67.96-48.53l3.97 6.99-11.51 17.82 7.54-24.81zM148 97.84h-3.2l-1.14-1.96 2.73-2.5 2.74 2.5-1.13 1.96zm.74 17.32l-1.28 4.22-1.07 3.49-2.34-7.7 1.6-11.52h1.48l1.6 11.5zm-10.1-28.4c1.78.46 3.58.76 5.4.9l-6.02 5.5c-.2.18-.35.38-.48.59l-2.4-7.91 3.5.92zm-.1-6.03c.63-1.03 1.01-2.2 1.07-3.46l.84.19.25.05 1.07.19.26.04c.38.06.77.1 1.15.15l.38.04a29.6 29.6 0 002.69.14h.37c.4 0 .8-.02 1.19-.04l.28-.01 1.15-.09.18-.02c.43-.04.86-.1 1.29-.16l.2-.03c.42-.07.85-.14 1.28-.23l.16-.03.32-.07c.1 1.25.52 2.43 1.18 3.44l-1.19.31a24.72 24.72 0 01-12.54 0l-1.57-.41zm10.2 6.93a30.4 30.4 0 005.4-.9l3.51-.92-2.4 7.9c-.13-.2-.29-.4-.48-.58l-6.02-5.5zm26.74-36.52c.02-.28.05-.55.06-.83.02-.48.04-.95.04-1.42v-4.5H176.53a1.24 1.24 0 01.26.03l.16.06.1.03c.46.2.76.67.76 1.18v4.65c0 .71-.58 1.3-1.3 1.3h-1.06l.03-.5zm-59.2.5a1.3 1.3 0 01-1.3-1.3v-4.65a1.3 1.3 0 011-1.26l.03-.01.25-.03H117.21v4.5c0 .47.01.94.04 1.42.01.28.03.55.06.83 0 .17.02.33.03.5h-1.07zm4.67-22.04l-.33.11-.13.07-.17.08-.15.1-.13.08-.16.12-.1.09-.14.14-.1.1-.12.16-.08.1-.1.18-.07.11-.09.2-.05.1-.01.03v.02l-.02.02v.02c-.15.4-.3.82-.42 1.23l-.01.03v.02c-.53 1.64-.9 3.32-1.12 5.02v-2.55a24.5 24.5 0 0124.47-24.47h8.95a24.5 24.5 0 0124.47 24.47v2.56l-.07-.46v-.04l-.05-.27v-.02c-.06-.4-.13-.8-.21-1.19l-.07-.32v-.02l-.25-1.08v-.03l-.04-.1v-.04l-.02-.05-.06-.18-.1-.26-.1-.18-.13-.23-.13-.17c-.06-.07-.1-.14-.17-.2l-.16-.15-.19-.16-.2-.14-.19-.12-.24-.1-.19-.08-.27-.07-.2-.05-.26-.02-.2-.02H171.72a2.9 2.9 0 00-1.44.4c-3.12 1.86-7.25 2.8-12.28 2.8-5.1 0-10.28-1.63-15.28-3.2-6.33-1.98-12.86-4.02-19.5-2.9-.07 0-.13.02-.2.03l-.06.01c-.68.12-1.35.28-2.02.47zm2.6 24.26c-.08-.38-.15-.75-.21-1.13l-.01-.08c-.07-.4-.12-.8-.17-1.2v-.05c-.05-.39-.08-.78-.1-1.17v-.1c-.03-.4-.04-.83-.04-1.24v-7.36-.04a22.58 22.58 0 01.02-1.02l.02-.24v-.06l.02-.2.05-.73.04-.33.01-.13.08-.65.08-.48a22.46 22.46 0 01.34-1.69l.02-.04.1-.43.17-.6.02-.04.36-.05.64-.1.8-.07.2-.02c3.98-.24 8.14.82 12.46 2.14.84.25 1.69.52 2.54.79 3.73 1.16 7.54 2.36 11.5 3a34.94 34.94 0 008.22.36c.64-.04 1.27-.1 1.9-.16l.13-.02c.32-.03.62-.08.93-.13l.55-.07.55-.1c.3-.06.6-.1.88-.17l.56-.13c.27-.06.55-.12.82-.2.27-.06.53-.14.79-.22l.55-.15.63-.22.64-.22v.04c.04.34.07.69.09 1.03l.01.25v.01l.03 1.04a.7.7 0 000 .05v7.36c0 .41-.01.83-.04 1.25v.09l-.1 1.17v.04c-.05.4-.1.8-.17 1.2l-.01.09-.22 1.13a23.46 23.46 0 01-15.84 17.33l-.21.06c-.28.09-.56.17-.85.24l-.3.08a22.68 22.68 0 01-1.87.38l-.38.06-.74.1-.38.04-.79.06-.34.02a23.54 23.54 0 01-2.3 0l-.39-.03-.75-.05-.48-.06-.64-.08-.54-.1c-.2-.02-.38-.06-.56-.1l-.6-.12-.49-.11a22.9 22.9 0 01-.63-.17l-.44-.13a22.9 22.9 0 01-.65-.2l-.4-.14-.65-.24a23.46 23.46 0 01-14.45-16.84zm6.48 35.17l7.55 24.81-11.5-17.82 3.95-7zM181 137.54v-27.83a2.9 2.9 0 10-5.8 0v27.83h-58.03v-8.65a2.9 2.9 0 00-5.8 0v8.65H100.6v-30.68c0-7.78 5.21-14.76 12.68-16.96l11.5-3.38-4.32 7.63a3.93 3.93 0 00.2 4.2l23.3 36.08v.01l.05.07.04.05.12.15.04.05.1.12h.01l.08.08.06.06.18.14.04.03.03.03.02.01.25.16.06.03.05.02.08.05.1.03.13.06.07.02h.01l.12.04a2.7 2.7 0 00.37.08l.09.02.33.01.34-.01.09-.02.09-.01.15-.03.12-.04.13-.03.07-.03.14-.06.1-.03.08-.05.05-.02.05-.03a2.87 2.87 0 00.27-.17c.02 0 .03-.02.04-.03l.03-.03a2.6 2.6 0 00.44-.4l.04-.05.12-.15.03-.04.05-.07.01-.02 23.3-36.08c.87-1.24.95-2.87.2-4.2l-4.32-7.63 11.5 3.38a17.78 17.78 0 0112.68 16.96v30.68H181z" fill="#332E2E"/></svg>