<svg id="Layer_1" data-name="Layer 1" xmlns="http://www.w3.org/2000/svg" viewBox="0 0 198.04 140.93"><defs><style>.cls-1{fill:none;stroke:#332e2e;stroke-miterlimit:10;stroke-width:5px;}.cls-2{fill:#332e2e;}</style></defs><path class="cls-1" d="M-15.68,58.05a4.07,4.07,0,0,1,2.24-5.29C5.26,44.85,19,39.41,20.94,39.26a3.93,3.93,0,0,1,2,.31,4.35,4.35,0,0,1,2,2.06l3.88,9.85,5,12.37a4.06,4.06,0,0,1-2.25,5.28L24,72.2a6.25,6.25,0,0,0-3.4,3.32l-2.9,6.7-6.64-2.81a6.22,6.22,0,0,0-4.79,0l-7.69,3.11a4.08,4.08,0,0,1-5.29-2.25Z" transform="translate(18.48 -35.11)"/><path class="cls-2" d="M12.87,72.92a3.5,3.5,0,0,0,1.51-.24,3.38,3.38,0,0,0,1.31-.94c2-2.35,8.35-10.54,5.75-17.24A8.63,8.63,0,0,0,6.36,52.77a8.55,8.55,0,0,0-4.92.49A8.75,8.75,0,0,0-3.33,64.42C-.68,71.38,9.74,72.68,12.87,72.92ZM3.39,58.05h0A3.46,3.46,0,0,1,6,58H6a3.38,3.38,0,0,0,4.28-1.73,3.48,3.48,0,0,1,6.37.09c1.23,3.17-1.89,8.31-4.29,11.32-3.82-.42-9.62-1.87-10.85-5.11A3.65,3.65,0,0,1,3.39,58.05Z" transform="translate(18.48 -35.11)"/><path class="cls-2" d="M71.36,45.47C71.23,51.61,79,55.94,81.42,57.11a2.07,2.07,0,0,0,1,.23,2.17,2.17,0,0,0,1-.25c2.33-1.21,10-5.64,10-11.57a6.91,6.91,0,0,0-6.83-6.87,7,7,0,0,0-4.21,1.41,6.88,6.88,0,0,0-4.2-1.41A7,7,0,0,0,71.36,45.47Zm6.86-3.84h0a3.89,3.89,0,0,1,2.65,1.06h0a2.19,2.19,0,0,0,3,0,3.88,3.88,0,0,1,6.55,2.79c0,3.3-4.3,6.74-8.08,8.78-3.83-2-8.11-5.35-8-8.73A4,4,0,0,1,78.22,41.63Z" transform="translate(18.48 -35.11)"/><path class="cls-2" d="M165.13,156.19V118.63A28.05,28.05,0,0,0,124.3,93.68a2.58,2.58,0,0,0,2.36,4.59,22.62,22.62,0,0,1,10.44-2.52A22.91,22.91,0,0,1,160,118.63v33l-.21-.09h0l-13-5.35v-5c5-5,8.78-12.9,8.78-20.22,0-9.41-4.19-16.81-11.21-19.78a2.62,2.62,0,0,0-2,0,2.66,2.66,0,0,0-1.53,1.83,18.61,18.61,0,0,1-14.25,14.18l-5.9,1.26a3,3,0,0,0-2,3c.18,7.24,3.93,14.91,8.78,19.73v5l-10.26,4.23a12.87,12.87,0,0,0-2.94-2.66V118.63a22.79,22.79,0,0,1,4.13-13.12,2.58,2.58,0,1,0-4.22-3,27.84,27.84,0,0,0-5.07,16.08v26.76L95,139.57v-9.79c6.46-5.24,10.29-14.65,11-23.91,3.38-2.43,5.36-7.34,6.45-11.26a9.59,9.59,0,0,0-1.26-7.88,9.39,9.39,0,0,0-3.88-3.33,10,10,0,0,0,.11-2.63,9.79,9.79,0,0,0-14-8,11.33,11.33,0,0,0-15.53-4.7,9.79,9.79,0,0,0-15.37,4.67,12.89,12.89,0,0,0-7.75,20.55A32.32,32.32,0,0,0,55.2,100a12.22,12.22,0,0,0,6,8.45,42.47,42.47,0,0,0,1,5,2.72,2.72,0,0,0,3.15,1.84,2.58,2.58,0,0,0,1.84-3.15,37.2,37.2,0,0,1-1-5.36c-.11-1,.26-1.43,2.52-2.54a10.43,10.43,0,0,0,4.7-3.58A15.09,15.09,0,0,0,87.09,94a11.51,11.51,0,0,0,7.17,1.9,11.94,11.94,0,0,0,4.6,5.07c1.54,1.06,2,1.39,2,3.33-.53,12.06-7.2,24.5-17.46,24.5-5.67,0-9.47-3.6-11.67-6.62a2.58,2.58,0,1,0-4.17,3,23.84,23.84,0,0,0,4.32,4.6v9.77l-17.09,7a13,13,0,0,0-5.16,3.86L39.28,146.2v-7.93a30.1,30.1,0,0,0,8.37-13.12,2.53,2.53,0,0,0,1.8-1.15c2.68-4.19,7.83-16.89-.42-25.25a12.79,12.79,0,0,0-11.58-3.26,9.49,9.49,0,0,0-.54-1c-3.48-5.44-12.48-6.2-20.49-1.74a2.58,2.58,0,0,0,2.51,4.51c6-3.35,11.9-2.7,13.64,0A5.64,5.64,0,0,1,32.7,102a13.85,13.85,0,0,1-8.45,8.16A30.26,30.26,0,0,0,12.6,117.8a23.51,23.51,0,0,1-.2-12.68,2.58,2.58,0,0,0-4.94-1.49c-2.38,7.9,0,16.94,2.28,20.58a2.6,2.6,0,0,0,1.87,1.17,30.08,30.08,0,0,0,8.3,12.87v7.95c-.24.1-12.88,5.29-13.13,5.42A11.13,11.13,0,0,0,0,161.89V170a6,6,0,0,0,6,6H160.67a6,6,0,0,0,6-6v-8.12A11.16,11.16,0,0,0,165.13,156.19ZM98.4,92.24a2.59,2.59,0,0,0-1.26-1.58,2.63,2.63,0,0,0-2-.18,5.8,5.8,0,0,1-1.8.29,5.86,5.86,0,0,1-4.85-2.57,2.57,2.57,0,0,0-4.58.64,9.79,9.79,0,0,1-9.31,6.74,17.56,17.56,0,0,1-2.27-.3,2.58,2.58,0,0,0-3,2c-.22,1-1,1.47-2.81,2.34a10.4,10.4,0,0,0-4.32,3.16,7.06,7.06,0,0,1-1.91-3.7A28.71,28.71,0,0,1,60,92.65a2.57,2.57,0,0,0-.68-2,7.73,7.73,0,0,1,5.45-13,2.58,2.58,0,0,0,2.49-2.34A4.63,4.63,0,0,1,75.52,73a2.56,2.56,0,0,0,1.79,1,2.6,2.6,0,0,0,2-.63,6.19,6.19,0,0,1,10.22,4A2.58,2.58,0,0,0,94,78.7,4.63,4.63,0,0,1,98,77a4.69,4.69,0,0,1,4.2,4.2,4.63,4.63,0,0,1-.56,2.66,2.58,2.58,0,0,0,2,3.8,4.34,4.34,0,0,1,3.17,1.9,4.45,4.45,0,0,1,.58,3.64,24.28,24.28,0,0,1-2.62,6.33,10.14,10.14,0,0,0-3-2.85A6.85,6.85,0,0,1,98.4,92.24Zm29.25,30a23.73,23.73,0,0,0,17.22-14.8c3.51,2.74,5.53,7.59,5.53,13.55,0,9.25-8.05,20-13.3,20-4.87,0-12.14-9.11-13.19-17.9ZM78.84,170.88a50.59,50.59,0,0,0-9.6-24.64l4.63-1.9A14.41,14.41,0,0,0,83.42,148h0A14.43,14.43,0,0,0,93,144.34l4.55,1.87a50.83,50.83,0,0,0-9.68,24.67Zm23.63-22.63,7.6,3.13a7.71,7.71,0,0,1,4.8,7.16v12.34H93.05A45.52,45.52,0,0,1,102.47,148.25Zm-19-14.3a17.72,17.72,0,0,0,6.37-1.17v7.49a9.25,9.25,0,0,1-6.37,2.54h0a9.27,9.27,0,0,1-6.37-2.54v-7.48A17.9,17.9,0,0,0,83.42,134Zm-36.6,36.93h-4.5l4.5-5.22Zm0-13.16L35.52,170.88H23.78L12,155.05,21.9,151a12,12,0,0,0,7.69,2.79h0A12,12,0,0,0,37.28,151l10,4.12A12.9,12.9,0,0,0,46.85,157.72Zm-1.49-55.35c4.49,4.55,3.07,11.44,1.3,15.76a43.35,43.35,0,0,0-7.06-5.71A12.32,12.32,0,0,1,35.36,108a16.84,16.84,0,0,0,2.22-4.32,13.22,13.22,0,0,0,.66-3.06C40.38,100.17,43.35,100.34,45.36,102.37ZM16,121.76A24.94,24.94,0,0,1,26,115a20.46,20.46,0,0,0,5.66-3.16,17.87,17.87,0,0,0,5.14,4.9A39.78,39.78,0,0,1,43.19,122c-2,8.47-8.93,15.52-13.6,15.52S17.88,130.3,16,121.76Zm13.64,20.86a11.65,11.65,0,0,0,4.53-1v5.25a6.83,6.83,0,0,1-4.53,1.72h0a6.82,6.82,0,0,1-4.52-1.72v-5.26A11.48,11.48,0,0,0,29.59,142.62ZM5.16,170v-8.12a6,6,0,0,1,2.07-4.55l10.11,13.54H6A.86.86,0,0,1,5.16,170ZM52,158.54a7.72,7.72,0,0,1,4.79-7.16l7.54-3.1a45.43,45.43,0,0,1,9.34,22.6H52V158.54ZM120,170.88V158.54a12.9,12.9,0,0,0-.5-3.52l7.9-3.25c.11,6.49.71,13.32,4.32,19.11Zm12.54-23v-3a9.7,9.7,0,0,0,9.05,0v3c0,7.74,0,15.72-4.52,21.61-4.53-5.88-4.53-13.87-4.53-21.61Zm29,22.09a.86.86,0,0,1-.86.87H142.44c3.62-5.79,4.22-12.62,4.32-19.11l11,4.55h0a6,6,0,0,1,3.73,5.57Z" transform="translate(18.48 -35.11)"/><path class="cls-1" d="M136.17,40.15a4.07,4.07,0,0,1,5.29-2.25c18.94,7.3,32.64,13,34.11,14.17a4,4,0,0,1,1.25,1.64,4.36,4.36,0,0,1,0,2.86l-4.05,9.78-5,12.37A4.07,4.07,0,0,1,162.48,81l-7.6-3.07a6.25,6.25,0,0,0-4.75,0l-6.74,2.8-2.83-6.63a6.21,6.21,0,0,0-3.41-3.36l-7.7-3.1a4.07,4.07,0,0,1-2.24-5.29Z" transform="translate(18.48 -35.11)"/><path class="cls-2" d="M146.38,70.67a3.35,3.35,0,0,0,1.26.88,3.31,3.31,0,0,0,1.59.24c3.07-.3,13.32-1.79,16.11-8.41a8.63,8.63,0,0,0-9.65-11.72,8.5,8.5,0,0,0-3.88-3.07,8.76,8.76,0,0,0-11.18,4.71C137.7,60.16,144.29,68.33,146.38,70.67Zm3.51-17.28h0a3.43,3.43,0,0,1,1.84,1.77h0A3.38,3.38,0,0,0,156,56.9a3.48,3.48,0,0,1,4.52,4.49c-1.32,3.13-7.13,4.67-10.95,5.17-2.46-3-5.62-8-4.26-11.22A3.65,3.65,0,0,1,149.89,53.39Z" transform="translate(18.48 -35.11)"/></svg>