<svg width="198" height="144" viewBox="0 0 198 144" fill="none" xmlns="http://www.w3.org/2000/svg">
<path d="M181.147 84.3311L162.788 78.9251C162.701 78.8988 162.612 78.876 162.521 78.8574L159.641 78.2785C158.956 78.1408 158.458 77.5337 158.458 76.8349V75.4493C165.998 72.011 171.831 65.4607 174.294 57.4444H176.514C180.431 57.4444 183.618 54.2575 183.618 50.3404V45.6866C183.618 43.5914 182.688 41.6346 181.144 40.305V35.1825C181.144 18.4867 167.561 4.90359 150.866 4.90359H141.922C125.226 4.90359 111.643 18.4867 111.643 35.1825V40.305C110.1 41.6346 109.169 43.5914 109.169 45.6866V50.3404C109.169 54.2575 112.356 57.4444 116.273 57.4444H118.493C120.9 65.2762 126.519 71.7143 133.807 75.213V76.9397C133.807 77.6385 133.31 78.246 132.625 78.3837L130.311 78.8489C130.309 78.8493 130.307 78.8497 130.305 78.8501L130.266 78.8578C130.175 78.876 130.086 78.8992 129.999 78.9255L111.64 84.3311C105.246 86.2136 100.098 90.7328 97.2427 96.4748C96.0059 94.5107 94.4625 92.7453 92.6693 91.2576L99.7459 89.0165C103.799 87.733 106.458 83.8678 106.213 79.6177C105.777 72.0608 103.938 56.7537 96.5268 39.1418C87.3191 17.2616 74.1211 8.881 64.3043 5.74239C61.7971 2.26772 57.7173 0 53.1149 0C48.5126 0 44.4323 2.26772 41.9252 5.74239C32.1083 8.88139 18.9104 17.262 9.70261 39.1418C2.29037 56.7537 0.451904 72.0608 0.0156846 79.6173C-0.229882 83.8674 2.42958 87.7326 6.48279 89.0162L13.559 91.2572C8.67046 95.3127 5.63239 101.429 5.63239 108.019V140.467C5.63239 142.071 6.93293 143.371 8.53665 143.371L195.096 143.352C196.7 143.352 198 142.052 198 140.448V106.861C198 96.5173 191.07 87.2523 181.147 84.3311ZM91.1723 41.3948C98.2466 58.2055 99.9988 72.7682 100.413 79.9522C100.505 81.5478 99.5096 82.998 97.9917 83.4787L85.6832 87.3768C85.4539 87.3007 85.2238 87.2287 84.9937 87.1611L68.1726 82.2076C68.091 82.1832 68.0082 82.1631 67.9243 82.1461L65.2877 81.6159C64.7749 81.513 64.4029 81.0586 64.4029 80.5358V79.2032C64.5146 79.1544 64.6221 79.0984 64.7331 79.0481C65.0371 78.9108 65.3391 78.7716 65.6373 78.6238C65.7846 78.5508 65.93 78.4746 66.0758 78.3988C66.3759 78.2437 66.6729 78.0852 66.9668 77.92C67.0937 77.8485 67.2193 77.7758 67.345 77.7023C67.6648 77.5159 67.9808 77.3229 68.2925 77.1245C68.3834 77.0665 68.4742 77.0093 68.564 76.9501C68.9275 76.7131 69.2848 76.4675 69.6363 76.2142C69.6708 76.1895 69.7059 76.1655 69.7404 76.1403C74.6409 72.5787 78.3646 67.4921 80.1972 61.5784H82.3385C86.1817 61.5784 89.3087 58.4514 89.3087 54.6082V50.1025C89.3087 49.8887 89.2956 49.6779 89.2766 49.4691C89.272 49.4184 89.267 49.3682 89.2616 49.3179C89.2383 49.1122 89.209 48.908 89.1684 48.7076C89.1656 48.6945 89.1618 48.6817 89.1591 48.669C89.1192 48.4791 89.0697 48.2927 89.0148 48.1086C89.0009 48.0622 88.987 48.0158 88.9723 47.9698C88.9108 47.7784 88.8431 47.59 88.7658 47.4063C88.7573 47.3862 88.7476 47.3673 88.7391 47.3472C88.6664 47.1793 88.5867 47.0158 88.5016 46.8549C88.48 46.8139 88.4587 46.7729 88.4359 46.7323C88.34 46.5594 88.2383 46.3904 88.1289 46.2272C88.113 46.2036 88.096 46.1816 88.0797 46.1584C87.9796 46.0134 87.874 45.8726 87.7634 45.7357C87.7356 45.7013 87.7085 45.6665 87.6799 45.6325C87.5538 45.482 87.4227 45.3366 87.2846 45.1978C87.2614 45.1742 87.2367 45.1522 87.2131 45.1289C87.0893 45.0079 86.9613 44.8915 86.8291 44.7797C86.797 44.7527 86.7657 44.7252 86.7332 44.6985C86.5812 44.5748 86.4242 44.4568 86.2618 44.3458C86.2312 44.325 86.1995 44.3056 86.169 44.2855C86.0947 44.2364 86.0212 44.1861 85.9451 44.1397C85.9443 43.6575 85.9292 43.1776 85.9072 42.6984C85.8994 42.5244 85.8882 42.3519 85.8778 42.1787C85.8592 41.8805 85.8364 41.5835 85.8097 41.2869C85.7896 41.0587 85.7706 40.8302 85.7459 40.6036C85.737 40.5251 85.7254 40.4469 85.7161 40.3684C84.7509 32.0749 80.6849 24.7191 74.7085 19.4872C74.7082 19.4868 74.7078 19.4868 74.7078 19.4864C74.1509 18.9987 73.5793 18.5277 72.9903 18.0783C72.9621 18.0567 72.9347 18.0339 72.906 18.0122C72.7254 17.8753 72.541 17.7431 72.3573 17.61C72.1415 17.453 71.9246 17.2976 71.7049 17.1456C71.5552 17.0423 71.4056 16.9398 71.2544 16.8393C70.9295 16.6227 70.6008 16.4116 70.2675 16.2058C70.2083 16.1695 70.1507 16.1312 70.0915 16.0952C69.6719 15.8404 69.245 15.5956 68.8126 15.3589C68.7461 15.3226 68.6788 15.2882 68.6123 15.2522C68.2407 15.0523 67.8648 14.8597 67.4842 14.6737C67.3957 14.6304 67.3071 14.587 67.2182 14.5445C67.1103 14.4931 67.0043 14.4382 66.8957 14.3875C66.9042 14.1891 66.9088 13.9907 66.9088 13.7927C66.9088 13.5371 66.9007 13.2834 66.8868 13.0309C66.886 13.0189 66.8864 13.0069 66.8856 12.9949C74.8052 16.7523 84.1534 24.7156 91.1723 41.3948ZM64.0799 56.8431C65.6841 56.8431 66.9842 55.5425 66.9842 53.9388V50.6904C66.9842 50.0329 66.763 49.4285 66.3949 48.9416H75.6521V53.2025C75.6521 53.6043 75.6409 54.0065 75.6189 54.4094C75.6173 54.4357 75.6142 54.4616 75.6131 54.4879C75.591 54.8685 75.5609 55.249 75.5195 55.6295C75.5183 55.6388 75.5172 55.6477 75.516 55.657C75.4727 56.0499 75.4193 56.4424 75.3555 56.8338C75.3524 56.8535 75.3482 56.8728 75.3451 56.8926C75.2836 57.263 75.2128 57.6324 75.1332 58.0005C75.098 58.1614 75.0605 58.3215 75.0218 58.4816C74.9669 58.7094 74.9085 58.936 74.8466 59.1614C74.8041 59.3169 74.7604 59.472 74.7143 59.6263C74.6679 59.7813 74.6215 59.9364 74.572 60.0899C74.5183 60.2574 74.4607 60.4229 74.403 60.5884C74.3172 60.8344 74.2279 61.0788 74.1335 61.3209C74.0944 61.4218 74.055 61.5224 74.0144 61.6225C73.7649 62.2378 73.4896 62.8414 73.188 63.43C73.1798 63.4455 73.1721 63.4614 73.164 63.4768C71.6511 66.4105 69.5045 68.9884 66.9022 71.0121C66.8748 71.0333 66.8477 71.0554 66.8202 71.0762C66.6613 71.1988 66.5 71.3187 66.3376 71.4371C66.2471 71.5028 66.1555 71.5674 66.0642 71.6316C65.8515 71.782 65.6357 71.9286 65.4176 72.0717C65.268 72.1695 65.1183 72.267 64.9663 72.3613C64.8503 72.4336 64.7331 72.5044 64.6156 72.5748C64.4094 72.6974 64.2018 72.8176 63.9918 72.9341C63.9067 72.9812 63.8216 73.028 63.7362 73.0744C63.4964 73.2032 63.2539 73.3273 63.0091 73.4472C62.9229 73.4898 62.8359 73.5315 62.7489 73.5729C62.4681 73.7063 62.185 73.8363 61.8981 73.9581C61.8652 73.972 61.832 73.9848 61.7987 73.9983C61.5373 74.1077 61.2728 74.2114 61.0067 74.3112C60.9085 74.3479 60.8099 74.3843 60.7109 74.4198C60.5341 74.4833 60.3555 74.5416 60.1768 74.6008C60.0148 74.6542 59.8531 74.7095 59.6903 74.7594C59.5244 74.81 59.3562 74.8553 59.1887 74.9021C58.9053 74.9813 58.6203 75.0556 58.3341 75.1236C58.1427 75.1693 57.952 75.2161 57.759 75.2567C57.6032 75.2896 57.4466 75.3166 57.2899 75.3464C57.1016 75.382 56.9137 75.4172 56.7238 75.4477C56.5706 75.4725 56.4171 75.4941 56.2636 75.5158C56.0629 75.544 55.861 75.5699 55.6588 75.5927C55.5149 75.609 55.371 75.6245 55.2268 75.638C54.9986 75.6593 54.7689 75.6759 54.5384 75.6906C54.4178 75.6983 54.2975 75.7076 54.1765 75.7134C53.8242 75.73 53.4703 75.7405 53.1138 75.7405C52.7475 75.7405 52.3833 75.73 52.0213 75.7126C51.9107 75.7072 51.8005 75.6975 51.6902 75.6906C51.4366 75.6747 51.1829 75.6569 50.9315 75.6326C50.8085 75.6206 50.6859 75.6055 50.5633 75.5916C50.3228 75.5645 50.0834 75.5347 49.8452 75.4999C49.7249 75.4825 49.6051 75.4632 49.4852 75.4439C49.2423 75.4044 49.0002 75.3611 48.7601 75.3139C48.6502 75.2923 48.5404 75.2706 48.431 75.2474C48.1757 75.1933 47.9224 75.1341 47.6707 75.0714C47.5786 75.0486 47.4866 75.0266 47.395 75.0026C47.1107 74.928 46.8292 74.8471 46.5496 74.7621C46.4931 74.7447 46.4359 74.7292 46.3794 74.7114C45.0031 74.2794 43.6836 73.7187 42.4345 73.0435C42.3947 73.0218 42.3552 73.0002 42.3158 72.9785C42.0366 72.8254 41.7608 72.6668 41.4894 72.5029C41.4209 72.4611 41.3536 72.4178 41.2856 72.3756C41.1007 72.2612 40.9182 72.1432 40.7368 72.0233C40.5953 71.9294 40.4541 71.835 40.3149 71.7379C40.2642 71.7031 40.2147 71.6664 40.1645 71.6312C36.5885 69.0982 33.7755 65.5473 32.1524 61.4651C32.142 61.4384 32.1312 61.4118 32.1207 61.3851C31.9772 61.02 31.8446 60.6499 31.7205 60.2771C31.6996 60.2141 31.6768 60.1518 31.6567 60.0884C31.6044 59.926 31.5557 59.7624 31.507 59.5988C31.4633 59.4511 31.4211 59.3022 31.3801 59.1529C31.3241 58.9491 31.2707 58.7446 31.2208 58.5388C31.1767 58.3582 31.1346 58.1772 31.0951 57.9947C31.017 57.6339 30.9478 57.2715 30.8871 56.908C30.8828 56.8813 30.877 56.855 30.8728 56.8284C30.8101 56.444 30.7579 56.0584 30.7154 55.6728C30.7138 55.657 30.7111 55.6415 30.7092 55.6257C30.6686 55.2509 30.6388 54.8758 30.6172 54.5007C30.6152 54.4694 30.6117 54.4388 30.6102 54.4075C30.5885 54.0053 30.5773 53.6031 30.5773 53.2017V48.5329C30.6044 48.5216 30.6299 48.5073 30.6566 48.4961C30.7633 48.4505 30.8681 48.4018 30.9714 48.3495C31.0128 48.3287 31.0541 48.3086 31.0947 48.2869C31.2328 48.213 31.3682 48.1349 31.4993 48.0495C31.5016 48.0479 31.5035 48.0464 31.5058 48.0448C31.6346 47.9605 31.7584 47.8696 31.8798 47.7749C31.9161 47.7467 31.9513 47.7169 31.9869 47.6875C32.077 47.6132 32.1648 47.5363 32.2499 47.4566C32.2831 47.4253 32.3168 47.3947 32.3497 47.3626C32.574 47.1422 32.7801 46.9017 32.9649 46.6426C32.992 46.6047 33.0171 46.566 33.0434 46.5277C33.1099 46.4295 33.1734 46.3289 33.2337 46.2257C33.2573 46.1851 33.2816 46.1453 33.3045 46.1039C33.3822 45.9627 33.4564 45.8189 33.5222 45.6696C33.5829 45.5319 33.6332 45.3896 33.6718 45.2438L35.8131 37.2059C35.9403 36.7283 36.2981 36.5504 36.4999 36.4869C36.7029 36.4235 37.0993 36.3643 37.4791 36.6846C47.8718 45.4619 56.1781 48.2285 61.8679 48.8113C61.4379 49.3179 61.1769 49.9726 61.1769 50.6892V53.9376C61.1757 55.5429 62.4762 56.8431 64.0799 56.8431ZM81.3435 55.7707C81.3597 55.5951 81.3671 55.4195 81.3798 55.2436C81.3961 55.015 81.4162 54.7876 81.427 54.5575C81.4491 54.1055 81.4614 53.6534 81.4614 53.2025V48.9416H81.5751H82.3381C82.9785 48.9416 83.4998 49.4629 83.4998 50.1033V54.609C83.4998 55.2494 82.9785 55.7707 82.3381 55.7707H81.3435ZM45.2812 12.2505C45.3214 12.0459 45.3682 11.844 45.4239 11.6457C45.4347 11.6062 45.449 11.5675 45.4606 11.5281C45.5101 11.3618 45.5638 11.1975 45.6234 11.0358C45.6439 10.9805 45.6656 10.926 45.6872 10.8711C45.7487 10.7156 45.8144 10.5625 45.8852 10.4116C45.9038 10.3714 45.9219 10.3312 45.9413 10.2914C47.241 7.63963 49.9674 5.80813 53.1145 5.80813C56.2613 5.80813 58.9869 7.63886 60.287 10.2902C60.3071 10.3308 60.3253 10.3722 60.3446 10.4132C60.415 10.5628 60.48 10.7152 60.5411 10.8695C60.5627 10.9248 60.5852 10.9801 60.6057 11.0362C60.6652 11.1971 60.7186 11.3606 60.7677 11.5262C60.7797 11.566 60.7936 11.605 60.8048 11.6453C60.8601 11.8437 60.9073 12.0455 60.9471 12.2497C60.9506 12.2671 60.9526 12.2845 60.956 12.3019C60.5825 12.2099 60.2073 12.1267 59.8311 12.0482C59.734 12.0281 59.6366 12.0096 59.5391 11.9902C59.0905 11.9009 58.6408 11.8189 58.1887 11.7485C58.1535 11.7431 58.1187 11.7361 58.0831 11.7307C57.6005 11.6573 57.1155 11.5977 56.6294 11.5455C56.5343 11.5354 56.4395 11.5246 56.3444 11.5153C55.8649 11.4682 55.3842 11.4314 54.9019 11.4051C54.8149 11.4005 54.7279 11.3974 54.6409 11.3935C54.1335 11.3703 53.625 11.3548 53.1145 11.3548C52.6041 11.3548 52.0959 11.3703 51.5882 11.3935C51.5011 11.3974 51.4137 11.4005 51.3267 11.4051C50.8445 11.431 50.3634 11.4682 49.8843 11.5153C49.7887 11.5246 49.694 11.5354 49.5989 11.5455C49.1128 11.5973 48.6282 11.6569 48.1456 11.7307C48.11 11.7361 48.0748 11.7431 48.0392 11.7485C47.5879 11.8189 47.1386 11.9005 46.6907 11.9898C46.5925 12.0092 46.4943 12.0277 46.3965 12.0482C46.0206 12.1267 45.6458 12.2099 45.2726 12.3019C45.2757 12.2853 45.2777 12.2675 45.2812 12.2505ZM40.3992 20.3503C40.4557 20.3202 40.5117 20.2884 40.5686 20.2587C41.2805 19.8839 42.0118 19.5401 42.7594 19.2288C42.8444 19.1936 42.9303 19.1604 43.0158 19.126C43.2776 19.02 43.5421 18.9187 43.8081 18.8208C43.986 18.7555 44.1643 18.6928 44.343 18.6313C44.5561 18.5583 44.7699 18.4871 44.9849 18.419C45.1752 18.3591 45.3658 18.3011 45.5573 18.245C45.7704 18.1828 45.9842 18.1236 46.1996 18.0667C46.3914 18.0157 46.5836 17.9662 46.7766 17.9198C46.9982 17.8664 47.2217 17.8169 47.4452 17.7686C47.6332 17.7284 47.8211 17.6881 48.0095 17.6518C48.245 17.6065 48.4824 17.5667 48.7202 17.5277C48.9001 17.4979 49.0799 17.4673 49.2605 17.4414C49.5142 17.4051 49.7698 17.3753 50.0258 17.3463C50.194 17.3269 50.3615 17.3053 50.5301 17.289C50.8159 17.262 51.104 17.243 51.3925 17.2249C51.5336 17.216 51.674 17.2028 51.8155 17.1962C52.246 17.1757 52.6783 17.1641 53.1138 17.1641C53.5488 17.1641 53.9812 17.1757 54.4116 17.1962C54.5535 17.2028 54.6947 17.216 54.8366 17.2249C55.1243 17.243 55.4116 17.2616 55.6967 17.289C55.866 17.3053 56.0343 17.3273 56.2029 17.3467C56.4581 17.3757 56.713 17.4054 56.9659 17.4418C57.1472 17.4677 57.3274 17.4986 57.5084 17.5284C57.7455 17.5675 57.9822 17.6073 58.2169 17.6522C58.4064 17.6885 58.5947 17.7287 58.7834 17.7694C59.0066 17.8173 59.229 17.8664 59.4498 17.9198C59.6435 17.9666 59.8365 18.0165 60.0291 18.0675C60.2433 18.1244 60.4564 18.1831 60.6687 18.245C60.8609 18.3011 61.0523 18.3595 61.2438 18.4198C61.458 18.4875 61.6711 18.5583 61.883 18.6313C62.0628 18.6932 62.2419 18.7559 62.4205 18.8216C62.6866 18.9198 62.9515 19.0208 63.2137 19.1271C63.2984 19.1612 63.3835 19.194 63.4674 19.2292C64.2157 19.5409 64.947 19.8847 65.6597 20.2598C65.7158 20.2892 65.7707 20.3202 65.8264 20.3499C66.1176 20.5058 66.4053 20.667 66.6899 20.8333C66.7777 20.8848 66.8659 20.9366 66.9529 20.9888C67.2062 21.1404 67.456 21.297 67.7035 21.4567C67.7971 21.517 67.8918 21.5758 67.9847 21.6377C68.2538 21.816 68.5187 22.0004 68.7813 22.188C68.9913 22.3384 69.1974 22.4931 69.4024 22.6494C69.5164 22.736 69.6313 22.8214 69.7438 22.9096C69.9612 23.0806 70.1754 23.2553 70.3873 23.4329C70.4322 23.4704 70.4771 23.5079 70.5219 23.5458C75.7287 27.964 79.1724 34.2745 79.9586 41.1709C79.9737 41.3047 79.9911 41.4377 80.0039 41.5723C80.0224 41.7614 80.0364 41.9513 80.0507 42.1412C80.0689 42.3813 80.0847 42.6226 80.0963 42.8643C80.1006 42.954 80.1048 43.0438 80.1083 43.1339H78.5545H64.3085C55.4372 43.1339 46.0372 36.3141 41.2241 32.2489C41.0837 32.1302 40.9383 32.0199 40.7906 31.914C40.7488 31.8842 40.707 31.8556 40.6649 31.8266C40.5466 31.7454 40.4263 31.6684 40.3041 31.5957C40.2681 31.5741 40.2329 31.5516 40.1966 31.5308C40.0423 31.4426 39.8856 31.3602 39.7263 31.2848C39.6904 31.2678 39.6536 31.2527 39.6177 31.2365C39.4885 31.1781 39.3578 31.1235 39.2259 31.0736C39.178 31.0555 39.1304 31.0373 39.082 31.0203C38.925 30.9646 38.7669 30.9135 38.6064 30.8698C38.5959 30.8671 38.5859 30.8633 38.5754 30.8606C38.4061 30.8153 38.2344 30.7786 38.0619 30.7465C38.0124 30.7372 37.9625 30.7295 37.913 30.7213C37.7773 30.6993 37.6411 30.6811 37.5042 30.6672C37.4605 30.663 37.4168 30.6571 37.3731 30.6537C37.1987 30.6394 37.0239 30.6316 36.8487 30.6305C36.8391 30.6305 36.829 30.6293 36.8194 30.6293C36.7818 30.6293 36.7447 30.6332 36.7072 30.6336C36.5954 30.6355 36.4833 30.639 36.3711 30.6463C36.3131 30.6502 36.2551 30.6556 36.1967 30.661C36.0923 30.6707 35.9883 30.6823 35.8839 30.697C35.8255 30.7051 35.7671 30.7132 35.7087 30.7229C35.5985 30.7411 35.4887 30.7627 35.3792 30.7863C35.3293 30.7971 35.2794 30.8064 35.2295 30.818C35.071 30.8559 34.9128 30.8981 34.7554 30.9476C32.5078 31.6541 30.8039 33.4353 30.1972 35.7127L28.2199 43.1343H27.67H26.1161C26.1196 43.0445 26.1235 42.9548 26.1281 42.8651C26.1397 42.6226 26.156 42.3813 26.1741 42.1408C26.1888 41.9513 26.2024 41.7618 26.2209 41.5731C26.2341 41.4377 26.2515 41.3035 26.2666 41.1689C27.0531 34.273 30.4969 27.9637 35.7033 23.5458C35.7478 23.5083 35.7926 23.4708 35.8375 23.4332C36.0498 23.2557 36.2644 23.0805 36.4821 22.9092C36.5931 22.8222 36.7064 22.7379 36.8186 22.6528C37.027 22.4943 37.2362 22.3373 37.4497 22.1845C37.71 21.9985 37.9729 21.8156 38.2398 21.6389C38.3337 21.5766 38.4297 21.517 38.5244 21.4559C38.7711 21.297 39.0194 21.1412 39.2715 20.9903C39.3597 20.9374 39.4483 20.8851 39.5372 20.8333C39.8226 20.6663 40.1092 20.5058 40.3992 20.3503ZM8.23656 83.4787C6.7183 82.998 5.7225 81.5478 5.81454 79.9522C6.22949 72.7678 7.98132 58.2055 15.0556 41.3948C22.0745 24.716 31.4227 16.7523 39.3439 12.9957C39.3431 13.0077 39.3435 13.0197 39.3427 13.0317C39.3288 13.2838 39.3207 13.5379 39.3207 13.7935C39.3207 13.9915 39.3249 14.1895 39.3338 14.3883C39.2255 14.4385 39.1199 14.4935 39.012 14.5445C38.9223 14.5874 38.833 14.6315 38.7437 14.6748C38.3647 14.8601 37.9896 15.0523 37.6195 15.2514C37.5514 15.2882 37.4826 15.3234 37.4149 15.3605C36.9833 15.5968 36.5572 15.8408 36.1387 16.0952C36.0776 16.1324 36.0181 16.1722 35.957 16.2097C35.6259 16.4139 35.2992 16.6235 34.9762 16.8389C34.8239 16.9402 34.6727 17.0439 34.5219 17.1479C34.3037 17.2987 34.0883 17.4526 33.8745 17.6089C33.6896 17.7431 33.5036 17.8765 33.3215 18.0145C33.301 18.03 33.2813 18.0466 33.2612 18.0621C26.3377 23.3362 21.5691 31.2933 20.513 40.37C20.5037 40.4485 20.4917 40.5262 20.4832 40.6051C20.4584 40.8321 20.4395 41.0603 20.4194 41.2884C20.3927 41.5851 20.3699 41.8821 20.3513 42.1802C20.3409 42.3535 20.3297 42.5263 20.3219 42.7C20.2999 43.1787 20.2848 43.659 20.284 44.1413C20.2078 44.1877 20.1344 44.2379 20.0601 44.2871C20.0292 44.3076 19.9978 44.3265 19.9673 44.3474C19.8049 44.4584 19.6479 44.5763 19.4959 44.7001C19.4634 44.7264 19.4321 44.7542 19.4 44.7813C19.2677 44.8931 19.1393 45.0095 19.016 45.1305C18.9924 45.1537 18.9676 45.1757 18.9444 45.1993C18.8064 45.3386 18.6749 45.484 18.5492 45.634C18.521 45.668 18.4935 45.7025 18.4657 45.7373C18.3554 45.8742 18.2495 46.0145 18.1493 46.1599C18.1335 46.1831 18.1161 46.2056 18.1002 46.2288C17.9904 46.392 17.8891 46.561 17.7932 46.7338C17.7707 46.7744 17.7495 46.8154 17.7274 46.8564C17.6423 47.0173 17.5623 47.1809 17.49 47.3487C17.4815 47.3684 17.4714 47.3878 17.4633 47.4079C17.3859 47.5916 17.3183 47.7799 17.2568 47.9713C17.2421 48.0174 17.2282 48.0638 17.2142 48.1102C17.1593 48.2942 17.1098 48.4803 17.07 48.6705C17.0673 48.6837 17.0634 48.6964 17.0607 48.7092C17.0197 48.9095 16.9907 49.1133 16.9675 49.3194C16.9617 49.3697 16.9571 49.42 16.9524 49.4706C16.9335 49.6799 16.9203 49.8902 16.9203 50.1041V54.6098C16.9203 58.453 20.0473 61.58 23.8906 61.58H26.0311C26.033 61.5862 26.0353 61.592 26.0372 61.5981C26.0937 61.7795 26.1587 61.9574 26.2186 62.1372C28.6228 69.4234 33.8474 75.3789 40.7732 78.7182C40.8099 78.736 40.8463 78.7542 40.8834 78.772C41.0392 78.8462 41.1912 78.927 41.3486 78.9986V80.6329C41.3486 81.1557 40.9766 81.6101 40.4626 81.7133L38.3036 82.148C38.2204 82.165 38.1381 82.1852 38.0565 82.2091L21.2346 87.1611C21.2292 87.1626 21.2234 87.1645 21.2179 87.1665C20.9936 87.2326 20.769 87.303 20.5451 87.3772L8.23656 83.4787ZM24.8017 54.5583C24.8121 54.7826 24.8318 55.0046 24.8477 55.2273C24.8608 55.4083 24.8686 55.5893 24.8848 55.7703H23.8902C23.2498 55.7703 22.7285 55.249 22.7285 54.6086V50.1029C22.7285 49.4625 23.2498 48.9412 23.8902 48.9412H24.6536H24.7673V53.2021C24.7673 53.6538 24.7796 54.1059 24.8017 54.5583ZM94.7882 137.563H94.787H86.7889V110.168C86.7889 108.712 86.3148 107.27 85.4543 106.11C81.7658 101.136 75.8726 98.1663 69.6901 98.1663C63.846 98.1663 58.3488 100.746 54.6077 105.242C54.0945 105.86 53.4518 105.952 53.1141 105.952C52.7765 105.952 52.1338 105.86 51.6203 105.242C47.8795 100.745 42.3819 98.1663 36.5382 98.1663C30.3557 98.1663 24.4625 101.136 20.774 106.11C19.9132 107.271 19.4394 108.712 19.4394 110.169V115.373C19.4394 116.977 20.74 118.277 22.3437 118.277C23.9474 118.277 25.2479 116.977 25.2479 115.373V110.169C25.2479 109.95 25.316 109.737 25.4398 109.57C28.0764 106.014 32.1219 103.975 36.5382 103.975C40.6514 103.975 44.5209 105.791 47.1548 108.957C48.6371 110.739 50.8089 111.761 53.1145 111.761C55.4198 111.761 57.5916 110.739 59.0735 108.957C61.7074 105.791 65.5769 103.975 69.6905 103.975C74.1068 103.975 78.1523 106.014 80.7889 109.57C80.9123 109.737 80.9804 109.949 80.9804 110.168V137.563H25.2479V128.886C25.2479 127.282 23.9474 125.982 22.3437 125.982C20.74 125.982 19.4394 127.283 19.4394 128.886V137.563H11.4409V108.019C11.4409 101.267 15.7946 95.194 22.1209 92.9781C22.1658 92.9622 22.2103 92.9448 22.2551 92.9294C22.3348 92.9023 22.416 92.8787 22.4964 92.8528C22.6229 92.8122 22.7494 92.7696 22.8758 92.7325H22.8754L39.574 87.8154L41.6081 87.4066C41.8061 87.3668 42.0006 87.3185 42.1917 87.262C42.2566 87.243 42.3189 87.2179 42.3827 87.197C42.5068 87.1564 42.6317 87.117 42.7528 87.0698C42.8278 87.0404 42.8997 87.0052 42.9732 86.9735C43.0796 86.9275 43.1867 86.8834 43.2899 86.8327C43.3665 86.7948 43.4396 86.7515 43.5146 86.7113C43.6105 86.6595 43.7076 86.6092 43.8008 86.5531C43.8766 86.5075 43.9485 86.4568 44.022 86.4085C44.1098 86.3509 44.1983 86.2948 44.2834 86.2333C44.3565 86.1803 44.4253 86.1231 44.4961 86.0678C44.5765 86.0044 44.6581 85.9425 44.7359 85.876C44.8051 85.8168 44.8701 85.7534 44.9366 85.6915C45.0104 85.6227 45.0851 85.555 45.1559 85.4835C45.2204 85.4181 45.2808 85.3493 45.3426 85.2816C45.4099 85.2077 45.4776 85.135 45.5418 85.0585C45.601 84.9873 45.6567 84.9134 45.7131 84.8404C45.7734 84.7618 45.8345 84.6841 45.8914 84.6029C45.9448 84.5271 45.9946 84.4486 46.0453 84.3701C46.0991 84.2873 46.1528 84.2046 46.2027 84.1195C46.2499 84.0391 46.2936 83.9567 46.3377 83.8739C46.3845 83.7869 46.4309 83.6999 46.4738 83.6106C46.5144 83.5263 46.5515 83.44 46.5886 83.3538C46.6281 83.2629 46.6668 83.1721 46.7023 83.0792C46.736 82.9911 46.7662 82.9017 46.7959 82.8124C46.8276 82.718 46.8586 82.6233 46.886 82.527C46.9123 82.4361 46.9352 82.3445 46.9576 82.252C46.9816 82.1542 47.004 82.0564 47.0237 81.957C47.0423 81.8634 47.0574 81.7694 47.072 81.6751C47.0875 81.5745 47.1014 81.4736 47.1127 81.3715C47.1231 81.276 47.1308 81.1805 47.137 81.0838C47.1405 81.0285 47.1486 80.9743 47.1509 80.9186C47.2008 80.9295 47.2519 80.9364 47.3021 80.9469C47.5125 80.991 47.7252 81.0269 47.9371 81.0664C48.1873 81.1128 48.4368 81.1615 48.6885 81.2009C48.9364 81.24 49.187 81.2698 49.4372 81.3023C49.6549 81.3305 49.8719 81.3622 50.0908 81.3854C50.3739 81.4156 50.6596 81.4357 50.945 81.4573C51.1349 81.4716 51.3244 81.4902 51.5147 81.5007C51.8125 81.5173 52.1125 81.5235 52.4123 81.5308C52.5944 81.5351 52.7762 81.5436 52.9583 81.5447C53.0105 81.5451 53.0619 81.5486 53.1145 81.5486C53.3721 81.5486 53.6269 81.5358 53.8829 81.5293C54.0562 81.5246 54.2294 81.5238 54.4027 81.5161C54.7229 81.5018 55.0404 81.4767 55.3579 81.4519C55.5188 81.4392 55.6796 81.4307 55.8401 81.4152C56.1657 81.3839 56.4879 81.3425 56.81 81.3003C56.9624 81.2802 57.1151 81.2644 57.2667 81.2419C57.6074 81.1917 57.9443 81.131 58.2807 81.0687C58.3905 81.0482 58.5015 81.0339 58.611 81.0122C58.6125 81.0354 58.6168 81.0582 58.6187 81.0814C58.6257 81.1685 58.6373 81.2543 58.6477 81.3409C58.6605 81.45 58.6732 81.5587 58.691 81.6662C58.7053 81.7528 58.7239 81.8379 58.7417 81.9233C58.7633 82.0281 58.785 82.1329 58.8117 82.2358C58.8333 82.3209 58.8585 82.4048 58.8836 82.4887C58.9134 82.5897 58.9443 82.6898 58.9787 82.7892C59.0077 82.8723 59.0391 82.9539 59.0712 83.0355C59.1091 83.1326 59.1481 83.2289 59.1903 83.324C59.2259 83.4041 59.2634 83.483 59.302 83.5615C59.3477 83.6543 59.3945 83.7459 59.444 83.8364C59.4861 83.9134 59.5294 83.9892 59.5743 84.0642C59.6273 84.1528 59.6818 84.2398 59.7383 84.3256C59.7862 84.3987 59.8353 84.4706 59.886 84.5418C59.9459 84.6253 60.0078 84.7073 60.0712 84.7881C60.125 84.857 60.1791 84.925 60.2356 84.9916C60.3021 85.0704 60.3713 85.1466 60.4413 85.2224C60.5005 85.2862 60.5593 85.35 60.6208 85.4115C60.6938 85.485 60.7696 85.5554 60.8462 85.6254C60.91 85.6842 60.9734 85.743 61.0392 85.799C61.1188 85.8671 61.2016 85.9313 61.2844 85.9955C61.352 86.0481 61.4193 86.1018 61.4889 86.1517C61.5756 86.214 61.6653 86.2716 61.755 86.33C61.8262 86.376 61.8958 86.424 61.9685 86.4673C62.0624 86.5234 62.1595 86.5744 62.2562 86.6262C62.3293 86.6653 62.4008 86.7067 62.4755 86.7434C62.5787 86.7941 62.6854 86.8385 62.7918 86.8838C62.8641 86.9147 62.9349 86.9487 63.0084 86.9774C63.1286 87.0242 63.2524 87.0636 63.3757 87.1034C63.4392 87.1239 63.5003 87.1483 63.5645 87.1669C63.7536 87.2222 63.9461 87.2705 64.1426 87.3099L66.6543 87.8154L83.3536 92.7321C83.5632 92.7936 83.7705 92.8597 83.9763 92.9297C83.9999 92.9379 84.0231 92.9472 84.0466 92.9553C90.4062 95.1526 94.7882 101.244 94.7882 108.018V137.563ZM162.755 89.0274L166.716 96.0204L155.21 113.842L162.755 89.0274ZM147.996 97.843H144.791L143.657 95.8785L146.394 93.3795L149.131 95.8781L147.996 97.843ZM148.738 115.159L147.455 119.378L146.394 122.868L144.05 115.162L145.643 103.652H147.129L148.738 115.159ZM138.648 86.7589C140.418 87.2241 142.224 87.5226 144.04 87.663L138.016 93.1633C137.825 93.337 137.672 93.5361 137.538 93.7453L135.133 85.8354L138.648 86.7589ZM138.547 80.7268C139.172 79.7047 139.551 78.5225 139.609 77.2727C139.887 77.3392 140.166 77.401 140.446 77.4594C140.53 77.4768 140.616 77.4919 140.7 77.5089C141.054 77.5793 141.409 77.6431 141.766 77.7C141.853 77.7139 141.94 77.7298 142.027 77.7429C142.411 77.8005 142.797 77.8477 143.184 77.8903C143.311 77.9042 143.437 77.9189 143.565 77.9312C143.939 77.9672 144.315 77.9954 144.69 78.0171C144.826 78.0248 144.961 78.0318 145.098 78.038C145.48 78.055 145.862 78.065 146.245 78.067C146.294 78.0674 146.344 78.0708 146.394 78.0708C146.468 78.0708 146.541 78.0658 146.615 78.065C147.013 78.0623 147.411 78.0538 147.808 78.0349C147.902 78.0302 147.996 78.0233 148.09 78.0179C148.473 77.9958 148.855 77.9672 149.236 77.9305C149.297 77.9247 149.358 77.9204 149.419 77.9142C149.849 77.8701 150.277 77.8137 150.705 77.7503C150.771 77.7402 150.838 77.7313 150.905 77.7209C151.334 77.6543 151.761 77.577 152.186 77.4915C152.24 77.4807 152.294 77.4699 152.347 77.4587C152.455 77.4362 152.563 77.4157 152.671 77.3921C152.767 78.6443 153.185 79.8211 153.849 80.8297L152.663 81.1414C148.561 82.2192 144.226 82.2192 140.124 81.1414L138.547 80.7268ZM148.747 87.663C150.563 87.523 152.369 87.2241 154.139 86.7589L157.654 85.8354L155.249 93.7449C155.116 93.5361 154.962 93.337 154.772 93.1633L148.747 87.663ZM175.481 51.1436C175.502 50.8648 175.527 50.5867 175.541 50.3056C175.564 49.8326 175.576 49.3597 175.576 48.8875V44.3915H176.488C176.5 44.3915 176.514 44.3926 176.526 44.3926C176.609 44.3934 176.693 44.4023 176.774 44.4197C176.78 44.4209 176.786 44.4224 176.792 44.424C176.848 44.4367 176.897 44.4576 176.949 44.4758C176.98 44.4874 177.012 44.4932 177.043 44.5071C177.044 44.5071 177.044 44.5075 177.044 44.5075C177.509 44.7175 177.81 45.1804 177.81 45.6862V50.34C177.81 51.0543 177.229 51.6351 176.515 51.6351H175.446C175.461 51.4715 175.468 51.3076 175.481 51.1436ZM116.273 51.6351C115.559 51.6355 114.978 51.0543 114.978 50.3404V45.6866C114.978 45.1812 115.278 44.7186 115.744 44.5075C115.82 44.4735 115.898 44.4495 115.976 44.4305C115.99 44.4271 116 44.4232 116.015 44.4197C116.097 44.4023 116.18 44.3934 116.263 44.3926C116.275 44.3926 116.288 44.3919 116.3 44.3915H117.211V48.8875C117.211 49.3597 117.224 49.8326 117.247 50.3056C117.26 50.5859 117.285 50.8628 117.306 51.1409C117.319 51.3056 117.326 51.4704 117.342 51.6351H116.273ZM120.947 29.5987C120.836 29.63 120.729 29.6679 120.624 29.7116C120.578 29.731 120.534 29.7549 120.49 29.7766C120.433 29.8037 120.375 29.8284 120.321 29.859C120.267 29.8891 120.216 29.9247 120.165 29.958C120.123 29.985 120.079 30.0098 120.039 30.0388C119.985 30.0775 119.935 30.1212 119.885 30.1633C119.85 30.1923 119.813 30.219 119.78 30.2495C119.73 30.2952 119.684 30.3455 119.637 30.3946C119.607 30.4263 119.575 30.4557 119.547 30.4885C119.501 30.5404 119.461 30.596 119.42 30.6514C119.394 30.6858 119.366 30.7183 119.342 30.7538C119.303 30.8111 119.269 30.8714 119.234 30.9317C119.212 30.9688 119.189 31.0044 119.168 31.0427C119.136 31.1042 119.109 31.1688 119.081 31.233C119.066 31.267 119.048 31.2991 119.034 31.3339C119.029 31.3474 119.024 31.3606 119.019 31.3741C119.017 31.3784 119.015 31.3826 119.013 31.3869C119.01 31.3946 119.008 31.4027 119.005 31.4105C119.005 31.4113 119.004 31.4128 119.004 31.4136C119.002 31.419 119 31.4244 118.998 31.4298C118.848 31.839 118.708 32.2508 118.577 32.665C118.574 32.6739 118.571 32.6824 118.568 32.6909C118.566 32.6967 118.564 32.7025 118.563 32.7079C118.044 34.3488 117.671 36.0275 117.451 37.7337V35.1818C117.451 21.6891 128.428 10.7117 141.921 10.7117H150.865C164.357 10.7117 175.335 21.6887 175.335 35.1818V37.7411C175.315 37.5856 175.29 37.4305 175.268 37.2755C175.266 37.2627 175.264 37.2499 175.262 37.2372L175.224 36.9703C175.223 36.9653 175.222 36.9595 175.221 36.9545C175.158 36.5546 175.087 36.1567 175.008 35.7607C175.007 35.7576 175.007 35.7545 175.006 35.7518L174.942 35.442C174.94 35.4355 174.939 35.4293 174.937 35.4227C174.86 35.0596 174.778 34.6984 174.687 34.3387C174.685 34.3294 174.683 34.3205 174.681 34.3113L174.654 34.2018C174.651 34.1898 174.648 34.1778 174.645 34.1659C174.645 34.1643 174.644 34.1631 174.644 34.1616C174.64 34.1481 174.636 34.1341 174.633 34.1202C174.615 34.058 174.588 34.0015 174.567 33.9412C174.536 33.8534 174.509 33.7644 174.471 33.6809C174.442 33.6183 174.405 33.561 174.371 33.5011C174.328 33.4214 174.287 33.3398 174.236 33.2652C174.197 33.208 174.151 33.1573 174.109 33.1031C174.054 33.0339 174.002 32.962 173.942 32.8982C173.892 32.8452 173.834 32.8 173.781 32.7512C173.719 32.6952 173.66 32.6364 173.594 32.5857C173.53 32.537 173.46 32.4975 173.392 32.4542C173.328 32.4136 173.268 32.3688 173.201 32.3332C173.124 32.2918 173.041 32.2613 172.96 32.2268C172.897 32.2002 172.835 32.1681 172.77 32.146C172.683 32.1162 172.591 32.0984 172.501 32.0772C172.436 32.0617 172.373 32.0408 172.307 32.03C172.219 32.0157 172.129 32.0138 172.039 32.0076C171.971 32.0025 171.904 31.9906 171.835 31.9906C171.824 31.9906 171.813 31.9906 171.802 31.9906H171.802L171.734 31.9913C171.224 31.9971 170.724 32.1367 170.285 32.397C167.168 34.2451 163.038 35.1822 158.011 35.1822C152.902 35.1822 147.731 33.5614 142.73 31.994C136.397 30.009 129.87 27.9656 123.229 29.0878C123.164 29.0991 123.098 29.108 123.033 29.1196C123.01 29.1238 122.987 29.1288 122.965 29.1327C122.293 29.2545 121.621 29.408 120.947 29.5987ZM123.557 53.8591C123.475 53.4829 123.403 53.1054 123.34 52.7268C123.336 52.7013 123.33 52.6758 123.326 52.6502C123.261 52.2492 123.206 51.847 123.162 51.4445C123.16 51.4302 123.158 51.4162 123.156 51.4019C123.114 51.0106 123.083 50.6188 123.06 50.2275C123.058 50.1977 123.055 50.1683 123.053 50.1385C123.03 49.7212 123.019 49.304 123.019 48.8875V41.5321C123.019 41.5166 123.019 41.5011 123.019 41.4868C123.019 41.4861 123.019 41.4853 123.019 41.4845C123.019 41.2544 123.025 41.0247 123.032 40.7954C123.035 40.6879 123.039 40.5788 123.044 40.4667C123.048 40.387 123.053 40.3073 123.057 40.2277C123.058 40.2083 123.059 40.189 123.061 40.1697L123.075 39.974C123.091 39.7288 123.107 39.484 123.13 39.2384C123.13 39.2381 123.13 39.2373 123.13 39.2369C123.141 39.1275 123.154 39.0188 123.167 38.9105L123.182 38.7825C123.207 38.5652 123.233 38.3478 123.265 38.1305C123.287 37.9708 123.314 37.8122 123.34 37.6533C123.374 37.4483 123.41 37.2445 123.45 37.0388C123.481 36.8775 123.513 36.717 123.548 36.5577C123.591 36.3589 123.637 36.1609 123.685 35.9645L123.696 35.9181C123.731 35.775 123.765 35.6319 123.804 35.4869C123.856 35.2885 123.915 35.0917 123.972 34.8971L123.985 34.8503C124.107 34.8283 124.23 34.8148 124.352 34.7954C124.564 34.7622 124.775 34.7254 124.987 34.7003C125.254 34.6686 125.523 34.6481 125.791 34.6288C125.86 34.6237 125.929 34.6144 125.999 34.6102C129.973 34.372 134.128 35.4327 138.448 36.7472C139.29 37.0032 140.137 37.2681 140.991 37.5357C144.716 38.7032 148.528 39.8978 152.496 40.5305C154.3 40.8182 156.136 40.9895 158.01 40.9895C158.932 40.9895 159.827 40.9551 160.705 40.8998C161.348 40.8592 161.983 40.8074 162.602 40.737C162.648 40.732 162.696 40.7289 162.742 40.7234C163.057 40.6863 163.363 40.6388 163.671 40.5939C163.854 40.5672 164.042 40.5463 164.222 40.5169C164.409 40.4868 164.588 40.4481 164.772 40.4152C165.067 40.3623 165.365 40.3124 165.654 40.252C165.841 40.213 166.021 40.165 166.206 40.1229C166.483 40.0595 166.763 39.9991 167.035 39.9287C167.3 39.8595 167.557 39.7799 167.817 39.7041C167.999 39.6511 168.186 39.6031 168.365 39.5467C168.581 39.4786 168.789 39.4009 169.001 39.3278C169.216 39.2543 169.434 39.1855 169.644 39.1066L169.649 39.1495C169.684 39.4929 169.709 39.8379 169.728 40.1832C169.728 40.1836 169.728 40.184 169.728 40.184L169.74 40.4326C169.74 40.435 169.74 40.4373 169.74 40.44C169.756 40.7873 169.767 41.1353 169.767 41.4837C169.767 41.4845 169.767 41.4849 169.767 41.4857C169.767 41.5 169.767 41.5151 169.768 41.5309V48.8863C169.768 49.3028 169.756 49.7201 169.733 50.1373C169.732 50.1671 169.728 50.1965 169.726 50.2263C169.703 50.618 169.672 51.0094 169.63 51.4008C169.628 51.4151 169.626 51.4294 169.624 51.4437C169.58 51.8459 169.525 52.2477 169.46 52.6483C169.456 52.6746 169.45 52.7005 169.446 52.7268C169.383 53.105 169.311 53.4821 169.23 53.858C167.441 62.0773 161.321 68.6979 153.385 71.1911C153.317 71.2124 153.248 71.2317 153.179 71.2526C152.899 71.3381 152.617 71.4189 152.332 71.4939C152.23 71.5206 152.129 71.5446 152.027 71.5697C151.772 71.6331 151.516 71.6931 151.257 71.748C151.139 71.7731 151.021 71.7967 150.902 71.8199C150.656 71.8682 150.409 71.9123 150.161 71.9526C150.034 71.9731 149.908 71.9936 149.781 72.0121C149.536 72.0481 149.289 72.0782 149.041 72.1065C148.913 72.1212 148.785 72.137 148.656 72.1494C148.395 72.1745 148.133 72.1927 147.87 72.2093C147.755 72.2163 147.641 72.2267 147.526 72.2322C147.15 72.2503 146.773 72.2608 146.393 72.2608C146.005 72.2608 145.62 72.2503 145.236 72.2314C145.104 72.2248 144.973 72.212 144.841 72.2035C144.591 72.1869 144.342 72.1707 144.094 72.1467C143.932 72.1308 143.77 72.1088 143.608 72.0895C143.395 72.0639 143.181 72.0392 142.969 72.0079C142.788 71.9812 142.608 71.9487 142.427 71.9178C142.239 71.8857 142.051 71.8539 141.865 71.8172C141.667 71.7782 141.47 71.7337 141.273 71.6896C141.108 71.6525 140.943 71.6161 140.78 71.5755C140.568 71.5229 140.358 71.4657 140.147 71.4069C140.002 71.3667 139.857 71.3265 139.713 71.2835C139.493 71.2178 139.275 71.1478 139.057 71.0755C138.922 71.0306 138.786 70.9854 138.652 70.9382C138.438 70.8628 138.225 70.7835 138.012 70.7015C130.758 67.9052 125.239 61.592 123.557 53.8591ZM130.032 89.0274L137.577 113.841L126.071 96.02L130.032 89.0274ZM181.004 137.543V109.708C181.004 108.103 179.704 106.803 178.099 106.803C176.495 106.803 175.195 108.104 175.195 109.708V137.543H117.171V128.886C117.171 127.282 115.87 125.982 114.266 125.982C112.663 125.982 111.362 127.282 111.362 128.886V137.543H100.596V108.019V106.861C100.596 99.0751 105.812 92.1018 113.281 89.9029L124.778 86.5176L120.456 94.1487C119.702 95.479 119.788 97.1125 120.664 98.3539L143.954 134.426C143.958 134.432 143.963 134.438 143.968 134.445C143.983 134.468 143.999 134.491 144.014 134.514C144.026 134.531 144.04 134.547 144.052 134.564C144.089 134.615 144.126 134.665 144.166 134.713C144.18 134.729 144.195 134.745 144.209 134.762C144.245 134.803 144.281 134.845 144.319 134.884C144.321 134.885 144.322 134.886 144.324 134.888C144.347 134.912 144.372 134.933 144.396 134.956C144.417 134.977 144.439 134.997 144.461 135.016C144.518 135.067 144.577 135.115 144.638 135.161C144.652 135.172 144.665 135.183 144.679 135.193C144.69 135.202 144.7 135.211 144.712 135.219C144.719 135.224 144.727 135.228 144.734 135.233C144.814 135.289 144.898 135.34 144.984 135.388C145.002 135.398 145.019 135.409 145.038 135.418C145.055 135.427 145.072 135.434 145.089 135.443C145.117 135.456 145.143 135.472 145.171 135.485C145.203 135.5 145.236 135.51 145.267 135.524C145.312 135.543 145.357 135.561 145.403 135.578C145.425 135.586 145.446 135.596 145.468 135.604C145.472 135.605 145.477 135.606 145.48 135.607C145.521 135.621 145.562 135.629 145.603 135.641C145.643 135.653 145.683 135.665 145.723 135.675C145.774 135.687 145.824 135.696 145.875 135.705C145.906 135.711 145.937 135.716 145.969 135.721C145.998 135.725 146.026 135.731 146.055 135.735C146.167 135.748 146.279 135.755 146.391 135.755C146.392 135.755 146.392 135.755 146.393 135.755C146.393 135.755 146.394 135.755 146.394 135.755C146.506 135.755 146.619 135.748 146.731 135.735C146.76 135.731 146.788 135.725 146.817 135.721C146.848 135.716 146.879 135.711 146.91 135.706C146.961 135.696 147.011 135.687 147.062 135.675C147.103 135.665 147.143 135.653 147.183 135.642C147.225 135.63 147.267 135.621 147.309 135.607C147.311 135.607 147.313 135.606 147.314 135.605C147.337 135.598 147.36 135.587 147.382 135.578C147.428 135.562 147.473 135.543 147.518 135.524C147.55 135.511 147.583 135.501 147.614 135.486C147.643 135.472 147.67 135.456 147.698 135.442C147.714 135.434 147.73 135.428 147.746 135.42C147.765 135.41 147.783 135.398 147.802 135.388C147.888 135.34 147.971 135.29 148.051 135.234C148.058 135.229 148.066 135.224 148.074 135.219C148.086 135.211 148.096 135.202 148.108 135.193C148.12 135.184 148.131 135.174 148.143 135.165C148.206 135.118 148.267 135.069 148.325 135.017C148.347 134.997 148.368 134.977 148.39 134.956C148.455 134.895 148.517 134.83 148.576 134.763C148.591 134.746 148.606 134.73 148.62 134.713C148.661 134.664 148.7 134.613 148.737 134.561C148.748 134.547 148.759 134.533 148.77 134.518C148.786 134.494 148.802 134.47 148.818 134.446C148.822 134.439 148.828 134.434 148.832 134.427L172.122 98.355C172.998 97.114 173.084 95.4802 172.33 94.151L168.008 86.5191L179.505 89.9044C186.973 92.1033 192.19 99.0766 192.19 106.862V137.543H181.004Z" fill="#332E2E"/>
</svg>
