<svg id="Layer_1" data-name="Layer 1" xmlns="http://www.w3.org/2000/svg" viewBox="0 0 50 50"><defs><style>.cls-1{fill:#a7a9ac;}.cls-2,.cls-3{fill:#6d6e71;}.cls-2{fill-rule:evenodd;}</style></defs><rect class="cls-1" x="10.21" y="11.17" width="29.44" height="28.01"/><path class="cls-2" d="M25,0A25,25,0,1,0,50,25,25,25,0,0,0,25,0ZM19.5,11.75c1.43-.07,1.88-.08,5.5-.08h0c3.62,0,4.07,0,5.49.08a9.68,9.68,0,0,1,3.24.62,6.77,6.77,0,0,1,3.9,3.9,9.57,9.57,0,0,1,.62,3.23c.07,1.42.08,1.88.08,5.5s0,4.07-.08,5.5a9.62,9.62,0,0,1-.62,3.23,6.85,6.85,0,0,1-3.9,3.9,9.57,9.57,0,0,1-3.23.62c-1.43.07-1.88.08-5.5.08s-4.08,0-5.5-.08a9.57,9.57,0,0,1-3.23-.62,6.77,6.77,0,0,1-3.9-3.9,9.62,9.62,0,0,1-.62-3.23c-.07-1.43-.08-1.88-.08-5.5s0-4.08.08-5.5a9.57,9.57,0,0,1,.62-3.23,6.77,6.77,0,0,1,3.9-3.9A9.62,9.62,0,0,1,19.5,11.75Z" transform="translate(0)"/><path class="cls-2" d="M23.81,14.07H25c3.56,0,4,0,5.39.08a7.16,7.16,0,0,1,2.47.46,4.31,4.31,0,0,1,2.53,2.53,7.16,7.16,0,0,1,.46,2.47c.07,1.41.08,1.83.08,5.39s0,4-.08,5.38a7.23,7.23,0,0,1-.46,2.48,4.21,4.21,0,0,1-1,1.53,4.07,4.07,0,0,1-1.54,1,7.35,7.35,0,0,1-2.47.46c-1.41.06-1.83.07-5.39.07s-4,0-5.39-.07a7.41,7.41,0,0,1-2.47-.46,4.14,4.14,0,0,1-1.54-1,4.21,4.21,0,0,1-1-1.53,7.23,7.23,0,0,1-.46-2.48c-.07-1.4-.08-1.83-.08-5.39s0-4,.08-5.38a7.23,7.23,0,0,1,.46-2.48,4.21,4.21,0,0,1,1-1.53,4.14,4.14,0,0,1,1.54-1,7.41,7.41,0,0,1,2.47-.46c1.23-.05,1.71-.07,4.2-.07Zm8.31,2.21a1.6,1.6,0,1,0,1.6,1.6,1.6,1.6,0,0,0-1.6-1.6ZM18.15,25A6.85,6.85,0,1,1,25,31.85,6.85,6.85,0,0,1,18.15,25Z" transform="translate(0)"/><path class="cls-3" d="M25,20.56A4.44,4.44,0,1,1,20.56,25,4.44,4.44,0,0,1,25,20.56Z" transform="translate(0)"/></svg>