<svg id="Layer_1" data-name="Layer 1" xmlns="http://www.w3.org/2000/svg" viewBox="0 0 123.11 100.03"><defs><style>.cls-1{fill:#fff;}</style></defs><path class="cls-1" d="M123.11,11.84a52.56,52.56,0,0,1-14.54,4,25.11,25.11,0,0,0,11.1-13.95,50.39,50.39,0,0,1-16,6.11A25.24,25.24,0,0,0,60,25.25,25.67,25.67,0,0,0,60.6,31a71.42,71.42,0,0,1-52-26.4,25.25,25.25,0,0,0,7.76,33.73,24.9,24.9,0,0,1-11.41-3.1v.27A25.35,25.35,0,0,0,25.15,60.3a25.33,25.33,0,0,1-6.62.83,22.21,22.21,0,0,1-4.78-.43A25.48,25.48,0,0,0,37.33,78.29,50.74,50.74,0,0,1,6,89.05a46.23,46.23,0,0,1-6-.35A71.06,71.06,0,0,0,38.72,100c46.44,0,71.84-38.47,71.84-71.82,0-1.12,0-2.19-.1-3.26A50.4,50.4,0,0,0,123.11,11.84Z" transform="translate(0 0)"/></svg>