<svg id="Layer_1" data-name="Layer 1" xmlns="http://www.w3.org/2000/svg" viewBox="0 0 24 24"><defs><style>.cls-1{fill:#fff;}</style></defs><path class="cls-1" d="M12,6.17a5.77,5.77,0,0,0-4.75,9.05L6.7,17.35l2.18-.57A5.77,5.77,0,1,0,12,6.17Zm3.39,8.25a1.77,1.77,0,0,1-1.17.82,2.33,2.33,0,0,1-1.09-.07c-.25-.08-.57-.19-1-.36a7.78,7.78,0,0,1-3-2.62A3.36,3.36,0,0,1,8.5,10.4,1.93,1.93,0,0,1,9.11,9a.66.66,0,0,1,.46-.22H9.9c.11,0,.25,0,.4.3s.49,1.2.53,1.28a.34.34,0,0,1,0,.31,1,1,0,0,1-.17.29l-.26.3c-.09.09-.18.18-.08.35a5,5,0,0,0,1,1.21,4.84,4.84,0,0,0,1.39.86c.17.08.28.07.38-.05s.43-.5.55-.68.23-.14.39-.08,1,.47,1.18.56.29.13.33.2A1.36,1.36,0,0,1,15.42,14.42ZM12,0A12,12,0,1,0,24,12,12,12,0,0,0,12,0Zm0,18.88A7,7,0,0,1,8.71,18L5,19l1-3.6a6.94,6.94,0,1,1,13-3.46A7,7,0,0,1,12,18.88Z"/></svg>