<svg data-name="Layer 1" xmlns="http://www.w3.org/2000/svg" viewBox="0 0 24 24"><path d="M12 6.17a5.77 5.77 0 00-4.75 9.05l-.55 2.13 2.18-.57A5.77 5.77 0 1012 6.17zm3.39 8.25a1.77 1.77 0 01-1.17.82 2.33 2.33 0 01-1.09-.07c-.25-.08-.57-.19-1-.36a7.78 7.78 0 01-3-2.62 3.36 3.36 0 01-.63-1.79A1.93 1.93 0 019.11 9a.66.66 0 01.46-.22h.33c.11 0 .25 0 .4.3s.49 1.2.53 1.28a.34.34 0 010 .31 1 1 0 01-.17.29l-.26.3c-.09.09-.18.18-.08.35a5 5 0 001 1.21 4.84 4.84 0 001.39.86c.17.08.28.07.38-.05s.43-.5.55-.68.23-.14.39-.08 1 .47 1.18.56.29.13.33.2a1.36 1.36 0 01-.12.79zM12 0a12 12 0 1012 12A12 12 0 0012 0zm0 18.88A7 7 0 018.71 18L5 19l1-3.6a6.94 6.94 0 1113-3.46 7 7 0 01-7 6.94z" fill="#5f5f5f"/></svg>