<svg id="Layer_1" data-name="Layer 1" xmlns="http://www.w3.org/2000/svg" viewBox="0 0 50 50"><defs><style>.cls-1,.cls-2{fill:#fff;}.cls-1{fill-rule:evenodd;}</style></defs><path class="cls-1" d="M25,0A25,25,0,1,0,50,25,25,25,0,0,0,25,0ZM35.42,16.41a3.38,3.38,0,0,1,2.36,2.42,37,37,0,0,1,.55,6.59A37.06,37.06,0,0,1,37.78,32a3.39,3.39,0,0,1-2.36,2.42C33.34,35,25,35,25,35s-8.34,0-10.42-.57A3.39,3.39,0,0,1,12.22,32a37.06,37.06,0,0,1-.55-6.59,37,37,0,0,1,.55-6.59,3.38,3.38,0,0,1,2.36-2.42c2.08-.58,10.42-.58,10.42-.58S33.34,15.83,35.42,16.41Z"/><path class="cls-2" d="M22.5,30V21.67l6.67,4.16Z"/></svg>