<svg width="200" height="147" fill="none" xmlns="http://www.w3.org/2000/svg"><path d="M176.45 66.1c-6.8-3.41-19.56-3.45-20.1-3.45a2.93 2.93 0 100 5.86c3.29 0 12.85.5 17.48 2.82a2.9 2.9 0 003.93-1.3 2.93 2.93 0 00-1.3-3.94z" fill="#332E2E"/><path d="M191.06 107.8l-12.1-3.45a1.23 1.23 0 01-.89-1.18v-4.04a21.55 21.55 0 009.4-17.89v-5.57l1.17-2.34A18.69 18.69 0 00190.6 65V49.9a2.93 2.93 0 00-2.93-2.92h-28.19a18.61 18.61 0 00-18.6 18.59v.17c0 2.4.57 4.78 1.64 6.92l1.5 3v4.78c0 7.59 3.74 14.4 9.4 18.49v4.23c0 .65 0 .92-2.42 1.61l-5.9 1.69-17.08-6.21c.06-.8-.21-1.63-.8-2.24l-5.46-5.74v-9.62a34.39 34.39 0 0012.53-26.48V48.5a33.86 33.86 0 003.13-14.24V2.93A2.93 2.93 0 00134.5 0H90.64a28.02 28.02 0 00-27.99 27.99v6.26a33.9 33.9 0 003.13 14.25v6.6a35.8 35.8 0 0012.53 27.33v9.85l-5.45 5.74a2.93 2.93 0 00-.8 2.24l-18.03 6.55a15.6 15.6 0 00-3.62 1.9l-2.83-1.41c8.42-3.67 11.1-8.83 11.22-9.09.41-.82.41-1.8 0-2.62-2.11-4.22-2.37-11.96-2.57-18.18a158.4 158.4 0 00-.26-5.77c-1-14.06-11.68-24.65-24.85-24.65-13.17 0-23.85 10.6-24.85 24.65-.12 1.74-.19 3.7-.25 5.77-.21 6.22-.47 13.96-2.58 18.18-.41.83-.41 1.8 0 2.62.13.26 2.8 5.4 11.24 9.08l-7.87 3.93A12.26 12.26 0 000 122.25v21.64a2.93 2.93 0 005.86 0v-21.64a6.43 6.43 0 013.57-5.79l9.8-4.9 3.4 3.24a12.3 12.3 0 0016.98 0l3.4-3.23 3.2 1.6a15.43 15.43 0 00-2.36 8.17v22.55a2.93 2.93 0 005.86 0v-22.55a9.63 9.63 0 016.32-9.02l19-6.9 7.92 11.86a6.04 6.04 0 009.33.92l4.83-4.82v30.51a2.93 2.93 0 005.86 0v-30.51l4.82 4.82a6.04 6.04 0 009.33-.92l7.92-11.87 19 6.91a9.63 9.63 0 016.32 9.03v22.54a2.93 2.93 0 005.86 0v-22.54c0-4.08-1.62-7.9-4.33-10.72l.72-.21c.73-.21 1.73-.5 2.73-.99l7.48 7.48v26.98a2.93 2.93 0 105.86 0v-26.98l7.42-7.42c.4.2.81.37 1.25.5l12.1 3.45a6.5 6.5 0 014.7 6.22v24.23a2.93 2.93 0 105.85 0v-24.23a12.4 12.4 0 00-8.94-11.86zm-172.27-5.17c-5.48-1.97-8.22-4.6-9.4-6.04a32.3 32.3 0 001.67-7.01 21.85 21.85 0 007.73 9.54v3.5zm16.79 7.93a6.47 6.47 0 01-8.91 0l-2.73-2.6c.46-.85.71-1.83.71-2.85v-3.13a21.64 21.64 0 0012.94 0v3.13c0 1.02.25 2 .71 2.86l-2.72 2.59zM31.12 97.1a15.88 15.88 0 01-15.86-15.87 2.93 2.93 0 00-3.41-2.88l.02-.76c.07-2.01.13-3.92.25-5.55a21.75 21.75 0 015.92-13.66 18.1 18.1 0 0113.08-5.54c4.96 0 9.6 1.97 13.09 5.54a21.75 21.75 0 015.92 13.66 155.03 155.03 0 01.26 6.07c-3.19-4.9-8.1-8.53-14.47-10.57a36.77 36.77 0 00-11.14-1.77c-.77.03-1.5.35-2.03.9l-5.29 5.48a2.93 2.93 0 104.22 4.07l4.4-4.56c3.79.18 15.97 1.6 20.71 12.04a15.8 15.8 0 01-15.67 13.4zm12.33 5.53v-3.5a21.67 21.67 0 007.73-9.55c.36 2.53.87 4.92 1.67 7-1.16 1.42-3.93 4.08-9.4 6.05zm28.2-47.53v-7.27c0-.44-.1-.88-.3-1.27a28.1 28.1 0 01-2.84-12.32V28c0-12.2 9.93-22.13 22.13-22.13h40.92v28.4c0 4.26-.95 8.4-2.84 12.3a3 3 0 00-.29 1.28v8.34a28.13 28.13 0 01-11.23 22.63l-.05.03a28.17 28.17 0 01-19 5.68c-14.87-.97-26.5-13.88-26.5-29.41zm16.49 58.95a.2.2 0 01-.17.06.19.19 0 01-.14-.1l-9.12-13.66 2.94-3.08 13.82 9.45-7.33 7.33zm11.9-11.3L84.17 91.9v-5.47a32.99 32.99 0 0015.9 4c5.6 0 11-1.34 15.83-3.88v5.35l-15.86 10.84zm12.2 11.27a.19.19 0 01-.14.09c-.1.01-.14-.04-.16-.06l-7.33-7.33 13.82-9.45 2.93 3.08-9.11 13.67zm53.5-2.47l-6.64-6.65a8 8 0 00.18-1.74v-1.24a20.59 20.59 0 006.47 1.04c2.23 0 4.4-.34 6.46-.98v1.18c0 .58.08 1.16.22 1.7l-6.69 6.69zm11.05-18.93c-3.1 3.01-7.2 4.6-11.53 4.47-8.48-.25-15.38-7.72-15.38-16.65v-5.47c0-.46-.1-.9-.3-1.31l-1.82-3.62a9.65 9.65 0 01-1.01-4.3v-.17c0-7.02 5.71-12.73 12.73-12.73h25.26V65c0 1.97-.46 3.94-1.34 5.7l-1.48 2.96c-.2.4-.3.85-.3 1.3v6.27c0 4.33-1.72 8.37-4.83 11.39z" fill="#332E2E"/><path d="M184.54 122.17a2.93 2.93 0 00-2.93 2.93v18.8a2.93 2.93 0 005.86 0v-18.8a2.93 2.93 0 00-2.93-2.93zm-169.08 3.87a2.93 2.93 0 00-2.93 2.93v14.92a2.93 2.93 0 105.86 0v-14.92a2.93 2.93 0 00-2.93-2.93zm108.58-90.72c-11.09-11.09-34.27-8.97-43.72-7.54a6.01 6.01 0 00-5.14 5.99v6.75a2.93 2.93 0 005.86 0v-6.75c0-.1.06-.19.15-.2a92.56 92.56 0 0119.03-.93c9.14.61 15.76 2.9 19.67 6.82a2.93 2.93 0 104.15-4.14zm-58.46 93.11a2.93 2.93 0 00-2.93 2.93v12.53a2.93 2.93 0 105.86 0v-12.53a2.93 2.93 0 00-2.93-2.93zm68.92 0a2.93 2.93 0 00-2.94 2.93v12.53a2.93 2.93 0 005.86 0v-12.53a2.93 2.93 0 00-2.92-2.93z" fill="#332E2E"/></svg>