<svg id="Layer_1" data-name="Layer 1" xmlns="http://www.w3.org/2000/svg" viewBox="0 0 198.04 140.93"><defs><style>.cls-1{fill:none;stroke:#332e2e;stroke-miterlimit:10;stroke-width:5px}.cls-2{fill:#332e2e}</style></defs><path class="cls-1" d="M-15.68 58.05a4.07 4.07 0 012.24-5.29C5.26 44.85 19 39.41 20.94 39.26a3.93 3.93 0 012 .31 4.35 4.35 0 012 2.06l3.88 9.85 5 12.37a4.06 4.06 0 01-2.25 5.28L24 72.2a6.25 6.25 0 00-3.4 3.32l-2.9 6.7-6.64-2.81a6.22 6.22 0 00-4.79 0l-7.69 3.11a4.08 4.08 0 01-5.29-2.25z" transform="translate(18.48 -35.11)"/><path class="cls-2" d="M12.87 72.92a3.5 3.5 0 001.51-.24 3.38 3.38 0 001.31-.94c2-2.35 8.35-10.54 5.75-17.24a8.63 8.63 0 00-15.08-1.73 8.55 8.55 0 00-4.92.49 8.75 8.75 0 00-4.77 11.16c2.65 6.96 13.07 8.26 16.2 8.5zM3.39 58.05A3.46 3.46 0 016 58a3.38 3.38 0 004.28-1.73 3.48 3.48 0 016.37.09c1.23 3.17-1.89 8.31-4.29 11.32-3.82-.42-9.62-1.87-10.85-5.11a3.65 3.65 0 011.88-4.52zm67.97-12.58c-.13 6.14 7.64 10.47 10.06 11.64a2.07 2.07 0 001 .23 2.17 2.17 0 001-.25c2.33-1.21 10-5.64 10-11.57a6.91 6.91 0 00-6.83-6.87 7 7 0 00-4.21 1.41 6.88 6.88 0 00-4.2-1.41 7 7 0 00-6.82 6.82zm6.86-3.84a3.89 3.89 0 012.65 1.06 2.19 2.19 0 003 0 3.88 3.88 0 016.55 2.79c0 3.3-4.3 6.74-8.08 8.78-3.83-2-8.11-5.35-8-8.73a4 4 0 013.88-3.9zm86.91 114.56v-37.56a28.05 28.05 0 00-40.83-24.95 2.58 2.58 0 002.36 4.59 22.62 22.62 0 0110.44-2.52 22.91 22.91 0 0122.9 22.88v33l-.21-.09-13-5.35v-5c5-5 8.78-12.9 8.78-20.22 0-9.41-4.19-16.81-11.21-19.78a2.62 2.62 0 00-2 0 2.66 2.66 0 00-1.53 1.83 18.61 18.61 0 01-14.25 14.18l-5.9 1.26a3 3 0 00-2 3c.18 7.24 3.93 14.91 8.78 19.73v5l-10.26 4.23a12.87 12.87 0 00-2.94-2.66v-29.13a22.79 22.79 0 014.13-13.12 2.58 2.58 0 10-4.22-3 27.84 27.84 0 00-5.07 16.08v26.76L95 139.57v-9.79c6.46-5.24 10.29-14.65 11-23.91 3.38-2.43 5.36-7.34 6.45-11.26a9.59 9.59 0 00-1.26-7.88 9.39 9.39 0 00-3.88-3.33 10 10 0 00.11-2.63 9.79 9.79 0 00-14-8 11.33 11.33 0 00-15.53-4.7 9.79 9.79 0 00-15.37 4.67 12.89 12.89 0 00-7.75 20.55 32.32 32.32 0 00.43 6.71 12.22 12.22 0 006 8.45 42.47 42.47 0 001 5 2.72 2.72 0 003.15 1.84 2.58 2.58 0 001.84-3.15 37.2 37.2 0 01-1-5.36c-.11-1 .26-1.43 2.52-2.54a10.43 10.43 0 004.7-3.58A15.09 15.09 0 0087.09 94a11.51 11.51 0 007.17 1.9 11.94 11.94 0 004.6 5.07c1.54 1.06 2 1.39 2 3.33-.53 12.06-7.2 24.5-17.46 24.5-5.67 0-9.47-3.6-11.67-6.62a2.58 2.58 0 10-4.17 3 23.84 23.84 0 004.32 4.6v9.77l-17.09 7a13 13 0 00-5.16 3.86l-10.35-4.21v-7.93a30.1 30.1 0 008.37-13.12 2.53 2.53 0 001.8-1.15c2.68-4.19 7.83-16.89-.42-25.25a12.79 12.79 0 00-11.58-3.26 9.49 9.49 0 00-.54-1c-3.48-5.44-12.48-6.2-20.49-1.74a2.58 2.58 0 002.51 4.51c6-3.35 11.9-2.7 13.64 0a5.64 5.64 0 01.13 4.74 13.85 13.85 0 01-8.45 8.16 30.26 30.26 0 00-11.65 7.64 23.51 23.51 0 01-.2-12.68 2.58 2.58 0 00-4.94-1.49c-2.38 7.9 0 16.94 2.28 20.58a2.6 2.6 0 001.87 1.17 30.08 30.08 0 008.3 12.87v7.95c-.24.1-12.88 5.29-13.13 5.42A11.13 11.13 0 000 161.89V170a6 6 0 006 6h154.67a6 6 0 006-6v-8.12a11.16 11.16 0 00-1.54-5.69zM98.4 92.24a2.59 2.59 0 00-1.26-1.58 2.63 2.63 0 00-2-.18 5.8 5.8 0 01-1.8.29 5.86 5.86 0 01-4.85-2.57 2.57 2.57 0 00-4.58.64 9.79 9.79 0 01-9.31 6.74 17.56 17.56 0 01-2.27-.3 2.58 2.58 0 00-3 2c-.22 1-1 1.47-2.81 2.34a10.4 10.4 0 00-4.32 3.16 7.06 7.06 0 01-1.91-3.7 28.71 28.71 0 01-.29-6.43 2.57 2.57 0 00-.68-2 7.73 7.73 0 015.45-13 2.58 2.58 0 002.49-2.34A4.63 4.63 0 0175.52 73a2.56 2.56 0 001.79 1 2.6 2.6 0 002-.63 6.19 6.19 0 0110.22 4A2.58 2.58 0 0094 78.7a4.63 4.63 0 014-1.7 4.69 4.69 0 014.2 4.2 4.63 4.63 0 01-.56 2.66 2.58 2.58 0 002 3.8 4.34 4.34 0 013.17 1.9 4.45 4.45 0 01.58 3.64 24.28 24.28 0 01-2.62 6.33 10.14 10.14 0 00-3-2.85 6.85 6.85 0 01-3.37-4.44zm29.25 30a23.73 23.73 0 0017.22-14.8c3.51 2.74 5.53 7.59 5.53 13.55 0 9.25-8.05 20-13.3 20-4.87 0-12.14-9.11-13.19-17.9zm-48.81 48.64a50.59 50.59 0 00-9.6-24.64l4.63-1.9a14.41 14.41 0 009.55 3.66 14.43 14.43 0 009.58-3.66l4.55 1.87a50.83 50.83 0 00-9.68 24.67zm23.63-22.63l7.6 3.13a7.71 7.71 0 014.8 7.16v12.34H93.05a45.52 45.52 0 019.42-22.63zm-19-14.3a17.72 17.72 0 006.37-1.17v7.49a9.25 9.25 0 01-6.37 2.54 9.27 9.27 0 01-6.37-2.54v-7.48a17.9 17.9 0 006.32 1.21zm-36.6 36.93h-4.5l4.5-5.22zm0-13.16l-11.35 13.16H23.78L12 155.05l9.9-4.05a12 12 0 007.69 2.79 12 12 0 007.69-2.79l10 4.12a12.9 12.9 0 00-.43 2.6zm-1.49-55.35c4.49 4.55 3.07 11.44 1.3 15.76a43.35 43.35 0 00-7.06-5.71 12.32 12.32 0 01-4.26-4.42 16.84 16.84 0 002.22-4.32 13.22 13.22 0 00.66-3.06c2.14-.45 5.11-.28 7.12 1.75zM16 121.76A24.94 24.94 0 0126 115a20.46 20.46 0 005.66-3.16 17.87 17.87 0 005.14 4.9 39.78 39.78 0 016.39 5.26c-2 8.47-8.93 15.52-13.6 15.52S17.88 130.3 16 121.76zm13.64 20.86a11.65 11.65 0 004.53-1v5.25a6.83 6.83 0 01-4.53 1.72 6.82 6.82 0 01-4.52-1.72v-5.26a11.48 11.48 0 004.47 1.01zM5.16 170v-8.12a6 6 0 012.07-4.55l10.11 13.54H6a.86.86 0 01-.84-.87zM52 158.54a7.72 7.72 0 014.79-7.16l7.54-3.1a45.43 45.43 0 019.34 22.6H52v-12.34zm68 12.34v-12.34a12.9 12.9 0 00-.5-3.52l7.9-3.25c.11 6.49.71 13.32 4.32 19.11zm12.54-23v-3a9.7 9.7 0 009.05 0v3c0 7.74 0 15.72-4.52 21.61-4.53-5.88-4.53-13.87-4.53-21.61zm29 22.09a.86.86 0 01-.86.87h-18.24c3.62-5.79 4.22-12.62 4.32-19.11l11 4.55a6 6 0 013.73 5.57z" transform="translate(18.48 -35.11)"/><path class="cls-1" d="M136.17 40.15a4.07 4.07 0 015.29-2.25c18.94 7.3 32.64 13 34.11 14.17a4 4 0 011.25 1.64 4.36 4.36 0 010 2.86l-4.05 9.78-5 12.37a4.07 4.07 0 01-5.29 2.28l-7.6-3.07a6.25 6.25 0 00-4.75 0l-6.74 2.8-2.83-6.63a6.21 6.21 0 00-3.41-3.36l-7.7-3.1a4.07 4.07 0 01-2.24-5.29z" transform="translate(18.48 -35.11)"/><path class="cls-2" d="M146.38 70.67a3.35 3.35 0 001.26.88 3.31 3.31 0 001.59.24c3.07-.3 13.32-1.79 16.11-8.41a8.63 8.63 0 00-9.65-11.72 8.5 8.5 0 00-3.88-3.07 8.76 8.76 0 00-11.18 4.71c-2.93 6.86 3.66 15.03 5.75 17.37zm3.51-17.28a3.43 3.43 0 011.84 1.77A3.38 3.38 0 00156 56.9a3.48 3.48 0 014.52 4.49c-1.32 3.13-7.13 4.67-10.95 5.17-2.46-3-5.62-8-4.26-11.22a3.65 3.65 0 014.58-1.95z" transform="translate(18.48 -35.11)"/></svg>