<svg id="visual" viewBox="0 0 550 1480" width="100%" height="100%" xmlns="http://www.w3.org/2000/svg" xmlns:xlink="http://www.w3.org/1999/xlink" version="1.1"><path d="M0 334L23 342.7C46 351.3 92 368.7 137.8 387C183.7 405.3 229.3 424.7 275.2 454.7C321 484.7 367 525.3 412.8 524.5C458.7 523.7 504.3 481.3 527.2 460.2L550 439L550 1601L527.2 1601C504.3 1601 458.7 1601 412.8 1601C367 1601 321 1601 275.2 1601C229.3 1601 183.7 1601 137.8 1601C92 1601 46 1601 23 1601L0 1601Z" fill="#ffb6b6"></path><path d="M0 892L23 858.7C46 825.3 92 758.7 137.8 727.5C183.7 696.3 229.3 700.7 275.2 706.5C321 712.3 367 719.7 412.8 732.3C458.7 745 504.3 763 527.2 772L550 781L550 1601L527.2 1601C504.3 1601 458.7 1601 412.8 1601C367 1601 321 1601 275.2 1601C229.3 1601 183.7 1601 137.8 1601C92 1601 46 1601 23 1601L0 1601Z" fill="#ffc4c3"></path><path d="M0 1081L23 1045C46 1009 92 937 137.8 919.3C183.7 901.7 229.3 938.3 275.2 960C321 981.7 367 988.3 412.8 977C458.7 965.7 504.3 936.3 527.2 921.7L550 907L550 1601L527.2 1601C504.3 1601 458.7 1601 412.8 1601C367 1601 321 1601 275.2 1601C229.3 1601 183.7 1601 137.8 1601C92 1601 46 1601 23 1601L0 1601Z" fill="#ffd2d1"></path><path d="M0 1110L23 1130.5C46 1151 92 1192 137.8 1216.5C183.7 1241 229.3 1249 275.2 1214.7C321 1180.3 367 1103.7 412.8 1089.3C458.7 1075 504.3 1123 527.2 1147L550 1171L550 1601L527.2 1601C504.3 1601 458.7 1601 412.8 1601C367 1601 321 1601 275.2 1601C229.3 1601 183.7 1601 137.8 1601C92 1601 46 1601 23 1601L0 1601Z" fill="#ffdfdf"></path><path d="M0 1430L23 1429.8C46 1429.7 92 1429.3 137.8 1424.7C183.7 1420 229.3 1411 275.2 1393.8C321 1376.7 367 1351.3 412.8 1336.8C458.7 1322.3 504.3 1318.7 527.2 1316.8L550 1315L550 1601L527.2 1601C504.3 1601 458.7 1601 412.8 1601C367 1601 321 1601 275.2 1601C229.3 1601 183.7 1601 137.8 1601C92 1601 46 1601 23 1601L0 1601Z" fill="#ffeded"></path></svg>