<svg id="visual" viewBox="0 0 550 920" width="100%" height="920" xmlns="http://www.w3.org/2000/svg" xmlns:xlink="http://www.w3.org/1999/xlink" version="1.1"><path d="M0 171L11.5 172.5C23 174 46 177 69 176.7C92 176.3 115 172.7 137.8 167C160.7 161.3 183.3 153.7 206.2 155.3C229 157 252 168 275 168.5C298 169 321 159 344 153C367 147 390 145 412.8 149.8C435.7 154.7 458.3 166.3 481.2 173C504 179.7 527 181.3 538.5 182.2L550 183L550 921L538.5 921C527 921 504 921 481.2 921C458.3 921 435.7 921 412.8 921C390 921 367 921 344 921C321 921 298 921 275 921C252 921 229 921 206.2 921C183.3 921 160.7 921 137.8 921C115 921 92 921 69 921C46 921 23 921 11.5 921L0 921Z" fill="#ffb6b6"></path><path d="M0 282L11.5 289.5C23 297 46 312 69 311C92 310 115 293 137.8 289.5C160.7 286 183.3 296 206.2 298C229 300 252 294 275 291C298 288 321 288 344 286.3C367 284.7 390 281.3 412.8 282.5C435.7 283.7 458.3 289.3 481.2 294.2C504 299 527 303 538.5 305L550 307L550 921L538.5 921C527 921 504 921 481.2 921C458.3 921 435.7 921 412.8 921C390 921 367 921 344 921C321 921 298 921 275 921C252 921 229 921 206.2 921C183.3 921 160.7 921 137.8 921C115 921 92 921 69 921C46 921 23 921 11.5 921L0 921Z" fill="#ffc4c3"></path><path d="M0 471L11.5 465.2C23 459.3 46 447.7 69 448.2C92 448.7 115 461.3 137.8 466C160.7 470.7 183.3 467.3 206.2 463.3C229 459.3 252 454.7 275 450C298 445.3 321 440.7 344 447.2C367 453.7 390 471.3 412.8 479.7C435.7 488 458.3 487 481.2 479C504 471 527 456 538.5 448.5L550 441L550 921L538.5 921C527 921 504 921 481.2 921C458.3 921 435.7 921 412.8 921C390 921 367 921 344 921C321 921 298 921 275 921C252 921 229 921 206.2 921C183.3 921 160.7 921 137.8 921C115 921 92 921 69 921C46 921 23 921 11.5 921L0 921Z" fill="#ffd2d1"></path><path d="M0 630L11.5 631.8C23 633.7 46 637.3 69 632.7C92 628 115 615 137.8 606.7C160.7 598.3 183.3 594.7 206.2 591.5C229 588.3 252 585.7 275 589.7C298 593.7 321 604.3 344 611.2C367 618 390 621 412.8 621.2C435.7 621.3 458.3 618.7 481.2 616.7C504 614.7 527 613.3 538.5 612.7L550 612L550 921L538.5 921C527 921 504 921 481.2 921C458.3 921 435.7 921 412.8 921C390 921 367 921 344 921C321 921 298 921 275 921C252 921 229 921 206.2 921C183.3 921 160.7 921 137.8 921C115 921 92 921 69 921C46 921 23 921 11.5 921L0 921Z" fill="#ffdfdf"></path><path d="M0 791L11.5 788.8C23 786.7 46 782.3 69 776C92 769.7 115 761.3 137.8 755.2C160.7 749 183.3 745 206.2 751.7C229 758.3 252 775.7 275 780.7C298 785.7 321 778.3 344 774C367 769.7 390 768.3 412.8 764.5C435.7 760.7 458.3 754.3 481.2 750.5C504 746.7 527 745.3 538.5 744.7L550 744L550 921L538.5 921C527 921 504 921 481.2 921C458.3 921 435.7 921 412.8 921C390 921 367 921 344 921C321 921 298 921 275 921C252 921 229 921 206.2 921C183.3 921 160.7 921 137.8 921C115 921 92 921 69 921C46 921 23 921 11.5 921L0 921Z" fill="#ffeded"></path></svg>