<svg viewBox="0 0 1200 900" xmlns="http://www.w3.org/2000/svg"><path d="M0 396l50 20c50 20 150 60 250 61.5s200-35.5 300-43.7c100-8.1 200 12.5 300 32.9 100 20.3 200 40.3 250 50.3l50 10v374H0z" fill="#ffb6b6"/><path d="M0 585l50-8.3c50-8.4 150-25 250-20.7 100 4.3 200 29.7 300 32 100 2.3 200-18.3 300-20.7 100-2.3 200 13.7 250 21.7l50 8v304H0z" fill="#ffc9c8"/><path d="M0 643l50 13.5c50 13.5 150 40.5 250 40.3 100-.1 200-27.5 300-35.6 100-8.2 200 2.8 300 0 100-2.9 200-19.5 250-27.9l50-8.3v276H0z" fill="#ffdbda"/><path d="M0 791l50-1.8c50-1.9 150-5.5 250-17.9C400 759 500 738 600 743.7c100 5.6 200 38 300 57.5s200 26.1 250 29.5l50 3.3v67H0z" fill="#ffeded"/></svg>