<svg width="90" height="103" fill="none" xmlns="http://www.w3.org/2000/svg"><path opacity=".3" d="M12 38.44h6v-6.4h-6v6.4zm24.02-6.4h6v-6.42h-6v6.41zm12 0h6v-6.42h-6v6.41zm12 0h6.01v-6.42h-6v6.41zM36.06 19.2h6v-6.4h-6v6.4zm12 0h6v-6.4h-6v6.4zm12.01 0h6v-6.4h-6v6.4zM35.98 57.64h6v-6.41h-6v6.41zm12 0H54v-6.41h-6v6.41zm12.02 0h6v-6.41h-6v6.41zM36.02 70.46h6v-6.41h-6v6.4zm23.97 0H66v-6.41h-6v6.4zM36.03 83.28h6v-6.41h-6v6.4zm23.97 0H66v-6.41h-6v6.4zm18.02-6.41h6v-6.41h-6v6.4zm0-19.23v6.4h6v-6.4h-6zm0 32h6v-6.4h-6v6.4zm-42.03-44.8h6v-6.41h-6v6.4zm12 0H54v-6.41h-6v6.4zm12.02 0h6v-6.41h-6v6.4zm-47.97 6.4h6v-6.4h-6v6.4zm0 12.82h6v-6.4h-6v6.4zm0 12.82h6v-6.4h-6v6.4zm0 12.82h6v-6.41h-6v6.41zM48 70.47h6v-6.4h-6v6.4z" fill="#E95C6D"/><path opacity=".8" fill-rule="evenodd" clip-rule="evenodd" d="M89.94 96.04c0 1.7-.63 3.33-1.76 4.54a5.82 5.82 0 01-4.24 1.87H6c-1.59 0-3.12-.67-4.24-1.87A6.64 6.64 0 010 96.05V25.64c0-1.7.63-3.33 1.76-4.54A5.82 5.82 0 016 19.23h18.01V6.4c0-1.7.64-3.33 1.76-4.53A5.81 5.81 0 0130.02 0h41.97c1.6 0 3.12.68 4.24 1.88A6.64 6.64 0 0178 6.4v38.4h6c1.6 0 3.13.67 4.25 1.88A6.63 6.63 0 0190 51.22l-.06 44.82zm-65.95-70.4H5.98v70.4h18v-70.4zM71.96 6.4H29.98v89.63H48V76.82h6v19.23h18.01L71.96 6.4zm12 44.8h-6V96h6v-44.8z" fill="#E95C6D"/></svg>