<svg id="Layer_1" data-name="Layer 1" xmlns="http://www.w3.org/2000/svg" viewBox="0 0 40.25 45.98"><defs><style>.cls-2{fill:#e95c6d}.cls-3{fill:none}.cls-12,.cls-3{stroke:#45413c;stroke-linecap:round;stroke-linejoin:round}.cls-12{fill:#45413c}.cls-8{fill:#ffb59e}.cls-9{fill:#ffaac9}</style></defs><path id="_Path_" data-name="Path" d="M3.44 43.73V24.56A20.76 20.76 0 016.1 14.41a11.49 11.49 0 0111.49-11.5h7.72a11.49 11.49 0 0111.49 11.5 20.65 20.65 0 012.66 10.15v19.17z" transform="translate(-1.33 .02)" opacity=".2" fill="#e95c6d"/><path id="_Path_2" data-name="Path 2" class="cls-2" d="M36.8 14.41a11.49 11.49 0 00-11.49-11.5h-7.72A11.49 11.49 0 006.1 14.41a20.76 20.76 0 00-2.66 10.15v19.17h1.89V29.09c0-6 1.5-8.76 3.78-10.15 0-6.35 4.6-11.5 10.28-11.5h4.12c5.68 0 10.28 5.15 10.28 11.5 2.47 1.39 3.78 3.29 3.78 10.15v14.64h1.89V24.56a20.65 20.65 0 00-2.66-10.15z" transform="translate(-1.33 .02)"/><path id="_Path_3" data-name="Path 3" class="cls-3" d="M3.44 43.73V24.56A20.76 20.76 0 016.1 14.41a11.49 11.49 0 0111.49-11.5h7.72a11.49 11.49 0 0111.49 11.5 20.65 20.65 0 012.66 10.15v19.17z" transform="translate(-1.33 .02)"/><ellipse id="_Ellipse_" data-name="Ellipse" cx="20.12" cy="44.3" rx="20.12" ry="1.68" style="isolation:isolate" opacity=".15" fill="#45413c"/><path id="_Path_4" data-name="Path 4" d="M21.45.48a12.18 12.18 0 0112.18 12.15v23.48a1.38 1.38 0 01-.87 1.28 30.34 30.34 0 01-22.6 0 1.38 1.38 0 01-.86-1.28V12.63A12.16 12.16 0 0121.45.48z" transform="translate(-1.33 .02)" fill="#a86c4d"/><path id="_Path_5" data-name="Path 5" d="M21.45.48A12.16 12.16 0 009.3 12.63V16a12.17 12.17 0 0124.33 0v-3.37A12.18 12.18 0 0021.45.48z" transform="translate(-1.33 .02)" fill="#de926a"/><path id="_Path_6" data-name="Path 6" class="cls-3" d="M21.45.48a12.18 12.18 0 0112.18 12.15v23.48a1.38 1.38 0 01-.87 1.28 30.34 30.34 0 01-22.6 0 1.38 1.38 0 01-.86-1.28V12.63A12.16 12.16 0 0121.45.48z" transform="translate(-1.33 .02)"/><path id="_Path_7" data-name="Path 7" d="M24.29 28.63v-2a2.84 2.84 0 10-5.68 0v2a13.27 13.27 0 00-10.44 13v2.13h26.56V41.6a13.27 13.27 0 00-10.44-12.97z" transform="translate(-1.33 .02)" fill="#ffcebf"/><path class="cls-8" d="M21.45 30.31a13.42 13.42 0 0113.28 11.5v-.21a13.27 13.27 0 00-10.44-13v-2a2.84 2.84 0 10-5.68 0v2a13.27 13.27 0 00-10.44 13v.21a13.42 13.42 0 0113.28-11.5z" transform="translate(-1.33 .02)"/><path id="_Path_8" data-name="Path 8" class="cls-3" d="M24.29 28.63v-2a2.84 2.84 0 10-5.68 0v2a13.27 13.27 0 00-10.44 13v2.13h26.56V41.6a13.27 13.27 0 00-10.44-12.97z" transform="translate(-1.33 .02)"/><path class="cls-2" d="M35 37.77a15.29 15.29 0 00-1.4-3.57 10.36 10.36 0 00-1.37-2 1.13 1.13 0 00-1.29-.2 8.28 8.28 0 00-2.23 1.62 5.59 5.59 0 00-1.52 2.28s-1.4-.84-5.74-.84-5.73.84-5.73.84a5.7 5.7 0 00-1.48-2.24A8.33 8.33 0 0012 32a1.12 1.12 0 00-1.28.24 10 10 0 00-1.38 2A15 15 0 008 37.81a1.12 1.12 0 00.81 1.36h.13a12 12 0 014.82 1.88v2.65H29.2V41a12 12 0 014.8-1.85 1.11 1.11 0 001-1.25.59.59 0 000-.13z" transform="translate(-1.33 .02)"/><path class="cls-9" d="M9.4 39.25a12.83 12.83 0 014.47-5.93 8.94 8.94 0 00-2-1.31 1.11 1.11 0 00-1.28.23 10 10 0 00-1.38 2 15.26 15.26 0 00-1.31 3.54 1.12 1.12 0 00.81 1.36h.13zM35 37.77a15.29 15.29 0 00-1.4-3.57 10.36 10.36 0 00-1.37-2 1.13 1.13 0 00-1.29-.2 8.23 8.23 0 00-2 1.31 12.9 12.9 0 014.47 5.93l.51-.09a1.12 1.12 0 001-1.21z" transform="translate(-1.33 .02)"/><path class="cls-3" d="M35 37.77a15.29 15.29 0 00-1.4-3.57 10.36 10.36 0 00-1.37-2 1.13 1.13 0 00-1.29-.2 8.28 8.28 0 00-2.23 1.62 5.59 5.59 0 00-1.52 2.28s-1.4-.84-5.74-.84-5.73.84-5.73.84a5.7 5.7 0 00-1.48-2.24A8.33 8.33 0 0012 32a1.12 1.12 0 00-1.28.24 10 10 0 00-1.38 2A15 15 0 008 37.81a1.12 1.12 0 00.81 1.36h.13a12 12 0 014.82 1.88v2.65H29.2V41a12 12 0 014.8-1.85 1.11 1.11 0 001-1.25.59.59 0 000-.13z" transform="translate(-1.33 .02)"/><path id="_Path_9" data-name="Path 9" class="cls-3" d="M15.78 29.08l4.34 2.22 4.35-2.22"/><circle id="_Path_10" data-name="Path 10" cx="20.12" cy="32.4" r="1.1" fill="#ffe500" stroke="#45413c" stroke-linecap="round" stroke-linejoin="round"/><g id="_Group_" data-name="Group"><path id="_Path_11" data-name="Path 11" d="M31.59 15.18a9.79 9.79 0 01-6.34-5.59L24.56 8a17.78 17.78 0 01-11.18 6.91l-2.11.38a2 2 0 000 4h.14a10.06 10.06 0 0020 0h.12a2 2 0 100-4h0z" transform="translate(-1.33 .02)" fill="#ffcebf" stroke="#45413c" stroke-linecap="round" stroke-linejoin="round"/></g><path id="_Path_12" data-name="Path 12" class="cls-12" d="M15.39 16.79a.86.86 0 10.86-.86.86.86 0 00-.86.86z" transform="translate(-1.33 .02)"/><path id="_Path_13" data-name="Path 13" class="cls-12" d="M27.53 16.79a.86.86 0 01-1.72 0 .87.87 0 01.86-.86.85.85 0 01.86.84z" transform="translate(-1.33 .02)"/><g id="_Group_2" data-name="Group 2"><g id="_Group_3" data-name="Group 3"><g id="_Group_4" data-name="Group 4"><g id="_Group_5" data-name="Group 5"><g id="_Group_6" data-name="Group 6"><g id="_Group_7" data-name="Group 7"><g id="_Group_8" data-name="Group 8"><path id="_Path_14" data-name="Path 14" d="M18.29 22a.45.45 0 00-.37.18.43.43 0 00-.11.39 3.71 3.71 0 007.31 0 .49.49 0 00-.11-.39.51.51 0 00-.37-.18z" transform="translate(-1.33 .02)" fill="#ff6242"/><path id="_Path_15" data-name="Path 15" d="M21.45 23.6a4.53 4.53 0 00-2.82.86 3.76 3.76 0 005.31.29 3.83 3.83 0 00.28-.29 4.51 4.51 0 00-2.77-.86z" transform="translate(-1.33 .02)" fill="#ffa694"/></g></g></g></g></g></g></g><g id="_Group_9" data-name="Group 9"><path id="_Path_16" data-name="Path 16" class="cls-3" d="M18.29 22a.45.45 0 00-.37.18.43.43 0 00-.11.39 3.71 3.71 0 007.31 0 .49.49 0 00-.11-.39.51.51 0 00-.37-.18z" transform="translate(-1.33 .02)"/></g><ellipse id="_Ellipse_2" data-name="Ellipse 2" class="cls-8" cx="13.49" cy="20.48" rx="1.12" ry=".67"/><ellipse id="_Ellipse_3" data-name="Ellipse 3" class="cls-8" cx="26.78" cy="20.48" rx="1.12" ry=".67"/><path id="_Path_17" data-name="Path 17" d="M11.39 5.81a11.21 11.21 0 00-1.26 2.43 35.27 35.27 0 0011.32 1.59 35.37 35.37 0 0011.33-1.59 12 12 0 00-1.27-2.43 33.89 33.89 0 01-10.06 1.37 33.93 33.93 0 01-10.06-1.37z" transform="translate(-1.33 .02)" stroke="#45413c" stroke-linecap="round" stroke-linejoin="round" fill="#e95c6d"/></svg>