<svg width="113" height="113" fill="none" xmlns="http://www.w3.org/2000/svg"><path d="M33.55 95.34H21.19v3.53h12.36v-3.53zM49.44 49a3.1 3.1 0 01-3.1-3.1 3.1 3.1 0 013.1-3.08 3.1 3.1 0 013.09 3.09 3.1 3.1 0 01-3.1 3.09zm0-3.53a.44.44 0 00-.44.44c0 .48.88.48.88 0a.44.44 0 00-.44-.44zM31.78 49a3.1 3.1 0 01-3.09-3.1 3.1 3.1 0 013.1-3.08 3.1 3.1 0 013.08 3.09A3.1 3.1 0 0131.78 49zm0-3.53a.44.44 0 00-.44.44c0 .48.88.48.88 0a.44.44 0 00-.44-.44zm8.83 15.88a6.63 6.63 0 01-6.62-6.62h2.65a3.98 3.98 0 003.97 3.98 3.98 3.98 0 003.97-3.98h2.65a6.63 6.63 0 01-6.62 6.63z" fill="#E95C6D"/><path d="M3.53 61.8a7.07 7.07 0 017.06-7.07V34.34c0-16.5 12.55-30.02 28.57-30.78a61.12 61.12 0 012.9 0c16.02.76 28.56 14.28 28.56 30.78v20.4a7.07 7.07 0 017.07 7.06 7.08 7.08 0 01-4.32 6.5 12.33 12.33 0 014.32 9.39c0 2.07-.52 4.1-1.5 5.91-.16.71-.6 2.46-1.66 4.5l1.7 7.98 6.67-13.34-1.25-6.24a4.43 4.43 0 012.36-4.83 4.42 4.42 0 015.1.83l1.36 1.35 11.87-4.74a5.19 5.19 0 014.84.52 5.19 5.19 0 012.29 4.3 5.2 5.2 0 01-2.62 4.51l-10 5.72-6.87 24.03a1.77 1.77 0 01-1.7 1.28H5.3a1.76 1.76 0 01-1.73-2.12L7.4 88.7a20.8 20.8 0 01-2.28-4.88l-.1-.34c-.15-.46-.32-.92-.49-1.38-.47-1.28-1-2.74-1-4.42 0-3.75 1.67-7.11 4.31-9.38a7.08 7.08 0 01-4.32-6.51zm83.42 44.14l6.7-23.44c.12-.44.42-.82.82-1.05l10.63-6.07a1.68 1.68 0 00.1-2.83 1.64 1.64 0 00-1.55-.17L90.7 77.56a1.77 1.77 0 01-1.9-.39L86.62 75a.9.9 0 00-1.03-.17.9.9 0 00-.48.97l1.37 6.84c.08.38.02.78-.15 1.14l-11.08 22.16h11.7zm-13.26-4.8l-3.66-17.22a2.03 2.03 0 01-.03-.18 1.75 1.75 0 00-1.14-1.48l-11.1-2.59-2.7 9.11c-.22.77.2 2.72-.56 2.72 0 .5-1.44-1.48-1.6-1.52l-10.52-2.91v18.87H61.8v-7.07h3.53v7.07h5.97l2.4-4.8zM51.1 78.13c-.1.37-.26.7-.56.95l-6.13 4.9 7.76 2.15 2.14-7.25-3.2-.75zm7.17-39.28H45.74c-4.87 0-9.99-.22-11.75-5.18-1.4 3.93-7.07 5.07-11.04 5.17v8.84c0 9.74 7.92 17.66 17.66 17.66 9.73 0 17.65-7.92 17.65-17.66v-8.83zm-27.6 40.23c-.29-.24-.45-.57-.55-.93l-3.07.75 2.69 7.23 7.12-2.1-6.18-4.95zm9.94-10.21c-2.48 0-4.85-.45-7.06-1.24v9.22l7.06 5.65 7.06-5.65v-9.22a21.05 21.05 0 01-7.06 1.24zm-24.72 37.08v-7.06h3.53v7.06h19.42V87.1l-9.69 2.86c-.88.27-2.65 3.03-2.15-1.07l-3.4-9.17-10.33 2.5c-.68.21-1.17.8-1.27 1.68l-4.54 22.03h8.43z" fill="#E95C6D"/><path d="M95.24 41.84a12.13 12.13 0 00-7.58 3.18 10.6 10.6 0 00-3.47 7.87.73.73 0 00.73.71h22.11a.73.73 0 00.73-.72v-.07c0-3.04-1.33-5.8-3.47-7.79a12.14 12.14 0 00-7.59-3.18v-1.98h1.58a.73.73 0 000-1.46h-4.7a.73.73 0 000 1.46h1.66v1.98zm13.5 12.66H83.08a.73.73 0 00-.73.73v3.67a.73.73 0 00.73.73h25.66a.73.73 0 00.73-.73v-3.67a.73.73 0 00-.73-.73zm-24.93 1.46H108v2.2h-24.2v-2.2zm4.84-9.87c1.87-1.74 4.46-2.82 7.32-2.82s5.46 1.08 7.33 2.82a9.22 9.22 0 012.98 6.06H85.67a9.2 9.2 0 012.98-6.06z" fill="#E95C6D"/></svg>