<svg viewBox="0 0 675 900" xmlns="http://www.w3.org/2000/svg"><path d="M0 180l28.2 28.5C56.3 237 112.7 294 169 296.2c56.3 2.1 112.7-50.5 168.8-62 56.2-11.5 112.2 18.1 168.4 47.1 56.1 29 112.5 57.4 140.6 71.5L675 367v534H0z" fill="#ffb6b6"/><path d="M0 450l28.2-12c28.1-12 84.5-36 140.8-29.7 56.3 6.4 112.7 43 168.8 46.5 56.2 3.5 112.2-26.1 168.4-29.5 56.1-3.3 112.5 19.7 140.6 31.2L675 468v433H0z" fill="#ffc9c8"/><path d="M0 534l28.2 19.2c28.1 19.1 84.5 57.5 140.8 57.1 56.3-.3 112.7-39.3 168.8-51 56.2-11.6 112.2 4 168.4-.1C562.3 555 618.7 531 646.8 519l28.2-12v394H0z" fill="#ffdbda"/><path d="M0 745l28.2-2.7c28.1-2.6 84.5-8 140.8-25.8 56.3-17.8 112.7-48.2 168.8-40 56.2 8.2 112.2 54.8 168.4 82.8 56.1 28 112.5 37.4 140.6 42L675 806v95H0z" fill="#ffeded"/></svg>