<svg viewBox="0 0 1920 1080" xmlns="http://www.w3.org/2000/svg"><path d="M0 634l45.7 6c45.6 6 137 18 228.5 3.2 91.5-14.9 183.1-56.5 274.6-66.7 91.5-10.2 182.9 11.2 274.2 31.7 91.3 20.5 182.7 40.1 274 47.6 91.3 7.5 182.7 2.9 274.2 2.9s183.1 4.6 274.6 4.3c91.5-.3 182.9-5.7 228.5-8.3l45.7-2.7v429H0z" fill="#ffb6b6"/><path d="M0 761l45.7-19c45.6-19 137-57 228.5-79s183.1-28 274.6-20c91.5 8 182.9 30 274.2 52.3 91.3 22.4 182.7 45 274 37.5 91.3-7.5 182.7-45.1 274.2-59 91.5-13.8 183.1-3.8 274.6 9.9 91.5 13.6 182.9 31 228.5 39.6l45.7 8.7v349H0z" fill="#ffc4c3"/><path d="M0 796l45.7 6.8c45.6 6.9 137 20.5 228.5 30.9C365.7 844 457.3 851 548.8 851c91.5 0 182.9-7 274.2-21.7 91.3-14.6 182.7-37 274-51.5 91.3-14.5 182.7-21.1 274.2-20.1s183.1 9.6 274.6 12.8c91.5 3.2 182.9.8 228.5-.3l45.7-1.2v312H0z" fill="#ffd2d1"/><path d="M0 924l45.7-7c45.6-7 137-21 228.5-29s183.1-10 274.6-.7c91.5 9.4 182.9 30 274.2 42.9 91.3 12.8 182.7 17.8 274 15 91.3-2.9 182.7-13.5 274.2-31.9 91.5-18.3 183.1-44.3 274.6-51.8 91.5-7.5 182.9 3.5 228.5 9l45.7 5.5v205H0z" fill="#ffdfdf"/><path d="M0 956l45.7 9.3c45.6 9.4 137 28 228.5 35.4 91.5 7.3 183.1 3.3 274.6-12.9 91.5-16.1 182.9-44.5 274.2-41.3 91.3 3.2 182.7 37.8 274 52.5 91.3 14.7 182.7 9.3 274.2 9.7 91.5.3 183.1 6.3 274.6 9.5 91.5 3.1 182.9 3.5 228.5 3.6l45.7.2v59H0z" fill="#ffeded"/></svg>